SplineFontDB: 3.0
FontName: ThiruValluvar-Regular
FullName: ThiruValluvar
FamilyName: ThiruValluvar
Weight: Book
Copyright: Copyright (c) 1995-2015, NLCI (http://www.nlci.in/fonts/) Derived from TAM ThiruValluvar Normal by ttfbuilder v0.33
Version: 1.0 Thu Apr 27 12:35:12 1995
ItalicAngle: 0
UnderlinePosition: -532
UnderlineWidth: 40
Ascent: 1638
Descent: 410
InvalidEm: 0
sfntRevision: 0x00010000
LayerCount: 2
Layer: 0 0 "Back" 1
Layer: 1 0 "Fore" 0
XUID: [1021 590 -1471075710 2004904]
StyleMap: 0x0040
FSType: 0
OS2Version: 1
OS2_WeightWidthSlopeOnly: 0
OS2_UseTypoMetrics: 0
CreationTime: 1547921071
ModificationTime: 1547921084
PfmFamily: 17
TTFWeight: 400
TTFWidth: 5
LineGap: 0
VLineGap: 0
Panose: 2 0 0 3 0 0 0 0 0 0
OS2TypoAscent: 1942
OS2TypoAOffset: 0
OS2TypoDescent: -735
OS2TypoDOffset: 0
OS2TypoLinegap: 0
OS2WinAscent: 1942
OS2WinAOffset: 0
OS2WinDescent: 735
OS2WinDOffset: 0
HheadAscent: 1942
HheadAOffset: 0
HheadDescent: -735
HheadDOffset: 0
OS2SubXSize: 1434
OS2SubYSize: 1331
OS2SubXOff: 0
OS2SubYOff: 293
OS2SupXSize: 1434
OS2SupYSize: 1331
OS2SupXOff: 0
OS2SupYOff: 928
OS2StrikeYSize: 102
OS2StrikeYPos: 530
OS2Vendor: 'Alts'
OS2CodePages: 20000001.00000000
OS2UnicodeRanges: a01080ff.520021cb.08000028.00000000
Lookup: 260 0 0 "_holdAnchorsbase" { "_someAnchorsbase"  } []
DEI: 91125
ShortTable: maxp 16
  1
  0
  243
  192
  12
  307
  16
  1
  0
  0
  0
  0
  3
  0
  3
  2
EndShort

StartChar: .notdef
Encoding: 0 -1 0
Width: 1024
Flags: HW
LayerCount: 2
Fore
SplineSet
64 0 m 1
 64 1536 l 1
 960 1536 l 1
 960 0 l 1
 64 0 l 1
896 64 m 1
 896 1472 l 1
 128 1472 l 1
 128 64 l 1
 896 64 l 1
EndSplineSet
EndChar

StartChar: exclam.taml
Encoding: 4 -1 4
Width: 656
Flags: HW
LayerCount: 2
Fore
SplineSet
365 922 m 0
 423.666666667 922 453 872 453 772 c 1
 406 414 l 1
 373 144 l 1
 359 144 l 1
 326 414 l 1
 279 772 l 1
 279 872 307.666666667 922 365 922 c 0
363 17 m 0
 387 17 407 9 423 -7 c 128
 439 -23 447 -42.6666666667 447 -66 c 0
 447 -90.6666666667 438.833333333 -111.5 422.5 -128.5 c 128
 406.166666667 -145.5 387 -154 365 -154 c 256
 343 -154 323.5 -145.5 306.5 -128.5 c 128
 289.5 -111.5 281 -90.6666666667 281 -66 c 0
 281 -44.6666666667 289.166666667 -25.5 305.5 -8.5 c 128
 321.833333333 8.5 341 17 363 17 c 0
EndSplineSet
EndChar

StartChar: quoteleft.taml
Encoding: 5 -1 5
Width: 512
Flags: HW
LayerCount: 2
Fore
SplineSet
362 1327 m 1
 297.333333333 1305 244.666666667 1267.33333333 204 1214 c 0
 171.333333333 1171.33333333 155 1133.66666667 155 1101 c 0
 155 1091 158.166666667 1083.83333333 164.5 1079.5 c 128
 170.833333333 1075.16666667 178 1073 186 1073 c 0
 195.333333333 1073 206 1077 218 1085 c 0
 246.666666667 1103.66666667 266.666666667 1113 278 1113 c 0
 285.333333333 1113 291.5 1112.16666667 296.5 1110.5 c 128
 301.5 1108.83333333 308.333333333 1105.33333333 317 1100 c 0
 357.666666667 1072 378 1033 378 983 c 0
 378 970.333333333 376.5 958.666666667 373.5 948 c 128
 370.5 937.333333333 365.333333333 926.333333333 358 915 c 0
 346.666666667 895.666666667 332 881.833333333 314 873.5 c 128
 296 865.166666667 275 861 251 861 c 0
 239 861 227 862 215 864 c 0
 173.666666667 869.333333333 140.666666667 892.666666667 116 934 c 0
 94 970.666666667 83 1012 83 1058 c 0
 83 1067.33333333 83.3333333333 1074.66666667 84 1080 c 128
 84.6666666667 1085.33333333 86 1092.66666667 88 1102 c 0
 102 1171.33333333 132.666666667 1230.66666667 180 1280 c 0
 213.333333333 1314.66666667 253.666666667 1342.66666667 301 1364 c 0
 333.666666667 1378.66666667 354 1386 362 1386 c 1
 362 1327 l 1
EndSplineSet
EndChar

StartChar: u20A8
Encoding: 6 8360 6
Width: 1638
Flags: HW
LayerCount: 2
Fore
SplineSet
1425 176 m 0
 1425 152.666666667 1420.5 130.166666667 1411.5 108.5 c 128
 1402.5 86.8333333333 1390 67.6666666667 1374 51 c 0
 1334 9 1284.33333333 -12 1225 -12 c 0
 1207.66666667 -12 1194.66666667 -11.5 1186 -10.5 c 128
 1177.33333333 -9.5 1163 -7.16666666667 1143 -3.5 c 128
 1123 0.166666666667 1104.66666667 3.66666666667 1088 7 c 128
 1071.33333333 10.3333333333 1060 12 1054 12 c 0
 1038.66666667 12 1028.66666667 7.33333333333 1024 -2 c 1
 1024 205 l 1
 1034 171 1044.5 143.333333333 1055.5 122 c 128
 1066.5 100.666666667 1080.16666667 81.5 1096.5 64.5 c 128
 1112.83333333 47.5 1132.16666667 34.5 1154.5 25.5 c 128
 1176.83333333 16.5 1201 12 1227 12 c 0
 1246.33333333 12 1265 17.1666666667 1283 27.5 c 128
 1301 37.8333333333 1316 51.6666666667 1328 69 c 128
 1340 86.3333333333 1346 103 1346 119 c 256
 1346 135 1342.83333333 149.666666667 1336.5 163 c 128
 1330.16666667 176.333333333 1321.5 188.5 1310.5 199.5 c 128
 1299.5 210.5 1284.66666667 221.833333333 1266 233.5 c 128
 1247.33333333 245.166666667 1218 261 1178 281 c 0
 1148.66666667 296.333333333 1131.33333333 305.333333333 1126 308 c 0
 1112.66666667 315.333333333 1098.33333333 324.333333333 1083 335 c 0
 1062.33333333 351 1047 368.333333333 1037 387 c 128
 1027 405.666666667 1022 429.666666667 1022 459 c 0
 1022 487.666666667 1027.5 513.666666667 1038.5 537 c 128
 1049.5 560.333333333 1065 579.666666667 1085 595 c 0
 1115.66666667 617.666666667 1152.66666667 629 1196 629 c 0
 1218.66666667 629 1251.33333333 624.666666667 1294 616 c 0
 1314 612 1327.33333333 610 1334 610 c 0
 1349.33333333 610 1359.33333333 616.333333333 1364 629 c 1
 1384 629 l 1
 1384 436 l 1
 1366 436 l 1
 1359.33333333 468 1350.33333333 495.666666667 1339 519 c 0
 1323.66666667 553 1302.33333333 577.333333333 1275 592 c 0
 1253 604 1225.33333333 610 1192 610 c 0
 1164.66666667 610 1139 601.333333333 1115 584 c 0
 1105 576 1096.83333333 566 1090.5 554 c 128
 1084.16666667 542 1081 530 1081 518 c 0
 1081 496 1086.33333333 476.833333333 1097 460.5 c 128
 1107.66666667 444.166666667 1123 429.333333333 1143 416 c 0
 1159 404.666666667 1182.66666667 391.666666667 1214 377 c 0
 1236.66666667 366.333333333 1253.33333333 358.666666667 1264 354 c 0
 1284.66666667 343.333333333 1300.66666667 334.666666667 1312 328 c 0
 1327.33333333 318.666666667 1342.66666667 308.333333333 1358 297 c 0
 1379.33333333 279.666666667 1395.83333333 261.5 1407.5 242.5 c 128
 1419.16666667 223.5 1425 201.333333333 1425 176 c 0
915 8 m 1
 680 8 l 1
 369 442 l 1
 264 438 l 1
 263 164 l 2
 263 131.333333333 265 105.833333333 269 87.5 c 128
 273 69.1666666667 278.666666667 56 286 48 c 128
 293.333333333 40 302.666666667 35.1666666667 314 33.5 c 128
 325.333333333 31.8333333333 341.333333333 31 362 31 c 2
 393 31 l 1
 393 8 l 1
 18 8 l 1
 18 31 l 1
 39 31 l 2
 61.6666666667 31 78.3333333333 32 89 34 c 128
 99.6666666667 36 110.333333333 41.6666666667 121 51 c 0
 130.333333333 61 137.5 74.8333333333 142.5 92.5 c 128
 147.5 110.166666667 150 134 150 164 c 2
 150 766 l 2
 150 795.333333333 148 817.666666667 144 833 c 128
 140 848.333333333 133.5 860.333333333 124.5 869 c 128
 115.5 877.666666667 104.166666667 883.166666667 90.5 885.5 c 128
 76.8333333333 887.833333333 59.6666666667 889 39 889 c 2
 14 887 l 1
 14 913 l 1
 338 913 l 2
 422.666666667 913 491.5 907 544.5 895 c 128
 597.5 883 638.666666667 862 668 832 c 0
 700.666666667 797.333333333 717 750 717 690 c 256
 717 630 694.666666667 579 650 537 c 0
 631.333333333 519 608.333333333 503 581 489 c 128
 553.666666667 475 521.666666667 463.666666667 485 455 c 1
 509 421.666666667 533.333333333 388.333333333 558 355 c 0
 596 303.666666667 643.666666667 241 701 167 c 0
 755 97 786.333333333 59.6666666667 795 55 c 0
 809 45.6666666667 828.833333333 38.8333333333 854.5 34.5 c 128
 880.166666667 30.1666666667 900.333333333 27 915 25 c 1
 915 8 l 1
584 668 m 0
 584 696.666666667 579.666666667 723.833333333 571 749.5 c 128
 562.333333333 775.166666667 548.333333333 797.5 529 816.5 c 128
 509.666666667 835.5 485.166666667 849.833333333 455.5 859.5 c 128
 425.833333333 869.166666667 390 874 348 874 c 0
 326.666666667 874 298.666666667 870.666666667 264 864 c 1
 264 475 l 1
 272 473.666666667 279.666666667 473 287 473 c 128
 298 473 298 473 309 473 c 0
 339.666666667 473 368.166666667 475.833333333 394.5 481.5 c 128
 420.833333333 487.166666667 445.333333333 495.666666667 468 507 c 0
 504.666666667 525 533.166666667 548.166666667 553.5 576.5 c 128
 573.833333333 604.833333333 584 635.333333333 584 668 c 0
EndSplineSet
EndChar

StartChar: percent.taml
Encoding: 7 -1 7
Width: 1190
Flags: HW
LayerCount: 2
Fore
SplineSet
1022 322 m 0
 1022 286 1019.66666667 254.833333333 1015 228.5 c 128
 1010.33333333 202.166666667 1002.33333333 177 991 153 c 0
 970.333333333 109.666666667 944.166666667 78.1666666667 912.5 58.5 c 128
 880.833333333 38.8333333333 848.333333333 29 815 29 c 0
 776.333333333 29 738.666666667 45 702 77 c 128
 665.333333333 109 647 175.666666667 647 277 c 0
 647 333 653.833333333 381.166666667 667.5 421.5 c 128
 681.166666667 461.833333333 698 493 718 515 c 128
 738 537 759.5 553.333333333 782.5 564 c 128
 805.5 574.666666667 827.333333333 580 848 580 c 0
 892.666666667 580 932.833333333 561.333333333 968.5 524 c 128
 1004.16666667 486.666666667 1022 419.333333333 1022 322 c 0
873 1032 m 1
 283 25 l 1
 201 25 l 1
 789 1032 l 1
 873 1032 l 1
434 785 m 0
 434 711 423 651.5 401 606.5 c 128
 379 561.5 352.833333333 529.5 322.5 510.5 c 128
 292.166666667 491.5 262.666666667 482 234 482 c 256
 205.333333333 482 178.333333333 488.833333333 153 502.5 c 128
 127.666666667 516.166666667 105.833333333 542.166666667 87.5 580.5 c 128
 69.1666666667 618.833333333 60 672 60 740 c 0
 60 808.666666667 70.3333333333 864.666666667 91 908 c 128
 111.666666667 951.333333333 138 982.833333333 170 1002.5 c 128
 202 1022.16666667 234 1032 266 1032 c 0
 286.666666667 1032 306 1028.33333333 324 1021 c 128
 342 1013.66666667 360.666666667 1001.66666667 380 985 c 0
 416 953.666666667 434 887 434 785 c 0
940 244 m 0
 940 325.333333333 926.833333333 384.5 900.5 421.5 c 128
 874.166666667 458.5 840.333333333 477 799 477 c 0
 774.333333333 477 756.5 469.666666667 745.5 455 c 128
 734.5 440.333333333 729 413.666666667 729 375 c 0
 729 294.333333333 742.166666667 233.5 768.5 192.5 c 128
 794.833333333 151.5 830.333333333 131 875 131 c 0
 918.333333333 131 940 168.666666667 940 244 c 0
353 686 m 0
 353 766.666666667 340 827.5 314 868.5 c 128
 288 909.5 252.333333333 930 207 930 c 0
 163.666666667 930 142 892.333333333 142 817 c 0
 142 735.666666667 155.333333333 676.5 182 639.5 c 128
 208.666666667 602.5 242.333333333 584 283 584 c 0
 329.666666667 584 353 618 353 686 c 0
EndSplineSet
EndChar

StartChar: ampersand.taml
Encoding: 8 -1 8
Width: 1034
Flags: HW
LayerCount: 2
Fore
SplineSet
678 586 m 1
 948 586 l 1
 948 561 l 1
 930 561 914.666666667 559.166666667 902 555.5 c 128
 889.333333333 551.833333333 877 545.666666667 865 537 c 0
 843.666666667 518.333333333 815.833333333 476.833333333 781.5 412.5 c 128
 747.166666667 348.166666667 704.666666667 283.666666667 654 219 c 1
 670.666666667 199.666666667 686.666666667 182.666666667 702 168 c 128
 717.333333333 153.333333333 736 139 758 125 c 0
 772 116.333333333 786.666666667 109.833333333 802 105.5 c 128
 817.333333333 101.166666667 832.666666667 99 848 99 c 0
 877.333333333 99 902.5 107.5 923.5 124.5 c 128
 944.5 141.5 959 165 967 195 c 1
 994 176 l 1
 978 118.666666667 952.833333333 74.6666666667 918.5 44 c 128
 884.166666667 13.3333333333 844.333333333 -2 799 -2 c 0
 762.333333333 -2 724 7.66666666667 684 27 c 0
 653.333333333 43.6666666667 613 76.3333333333 563 125 c 1
 467.666666667 39 372.333333333 -4 277 -4 c 0
 213.666666667 -4 158.333333333 16.6666666667 111 58 c 0
 69.6666666667 94 49 139.666666667 49 195 c 0
 49 246.333333333 67.8333333333 298 105.5 350 c 128
 143.166666667 402 214 455.333333333 318 510 c 1
 299.333333333 551.333333333 285.666666667 587 277 617 c 128
 268.333333333 647 264 676.333333333 264 705 c 0
 264 767.666666667 286.166666667 818.833333333 330.5 858.5 c 128
 374.833333333 898.166666667 428.666666667 918 492 918 c 0
 540.666666667 918 581.833333333 903.166666667 615.5 873.5 c 128
 649.166666667 843.833333333 666 806.666666667 666 762 c 0
 666 716.666666667 650.5 676.5 619.5 641.5 c 128
 588.5 606.5 532.333333333 568.333333333 451 527 c 1
 517 413 575 323.333333333 625 258 c 1
 661 302 688.833333333 343.666666667 708.5 383 c 128
 728.166666667 422.333333333 738 457.333333333 738 488 c 0
 738 530.666666667 718 555 678 561 c 1
 678 586 l 1
430 570 m 1
 536.666666667 622 590 686.666666667 590 764 c 0
 590 793.333333333 580.333333333 818 561 838 c 0
 551 848.666666667 540.166666667 857.166666667 528.5 863.5 c 128
 516.833333333 869.833333333 504 873 490 873 c 0
 455.333333333 873 427.833333333 860.5 407.5 835.5 c 128
 387.166666667 810.5 377 784 377 756 c 0
 377 710 394.666666667 648 430 570 c 1
529 162 m 1
 475 238.666666667 436.666666667 295 414 331 c 0
 394.666666667 363.666666667 369.333333333 409 338 467 c 1
 284 434.333333333 245 401.333333333 221 368 c 128
 197 334.666666667 185 296.666666667 185 254 c 0
 185 228 188 205.333333333 194 186 c 128
 200 166.666666667 211.333333333 147.666666667 228 129 c 0
 262 91 300 72 342 72 c 0
 393.333333333 72 455.666666667 102 529 162 c 1
EndSplineSet
EndChar

StartChar: quoteright.taml
Encoding: 9 -1 9
Width: 512
Flags: HW
LayerCount: 2
Fore
SplineSet
307 1126 m 0
 293 1056.66666667 262.333333333 997.333333333 215 948 c 0
 181.666666667 913.333333333 141.333333333 885.333333333 94 864 c 0
 61.3333333333 849.333333333 41 842 33 842 c 1
 33 901 l 1
 97.6666666667 923 150.333333333 960.666666667 191 1014 c 0
 223.666666667 1056.66666667 240 1094.33333333 240 1127 c 0
 240 1137 237.666666667 1143.66666667 233 1147 c 0
 225 1152.33333333 217 1155 209 1155 c 0
 201.666666667 1155 184 1146.33333333 156 1129 c 0
 140.666666667 1119.66666667 128 1115 118 1115 c 0
 110.666666667 1115 104.166666667 1115.83333333 98.5 1117.5 c 128
 92.8333333333 1119.16666667 86 1122.66666667 78 1128 c 0
 37.3333333333 1156 17 1195 17 1245 c 0
 17 1257.66666667 18.5 1269.33333333 21.5 1280 c 128
 24.5 1290.66666667 29.6666666667 1301.66666667 37 1313 c 0
 48.3333333333 1331.66666667 63.1666666667 1345.33333333 81.5 1354 c 128
 99.8333333333 1362.66666667 120.666666667 1367 144 1367 c 0
 156 1367 168 1366 180 1364 c 0
 221.333333333 1359.33333333 254.333333333 1336.33333333 279 1295 c 0
 301 1258.33333333 312 1217 312 1171 c 0
 312 1161.66666667 311.666666667 1154.33333333 311 1149 c 128
 310.333333333 1143.66666667 309 1136 307 1126 c 0
EndSplineSet
EndChar

StartChar: parenleft.taml
Encoding: 10 -1 10
Width: 573
Flags: HW
LayerCount: 2
Fore
SplineSet
616 -504 m 1
 604 -518 l 1
 438 -425.333333333 311.333333333 -296.333333333 224 -131 c 0
 142.666666667 23 102 195.666666667 102 387 c 0
 102 579 142.666666667 752.333333333 224 907 c 0
 310.666666667 1072.33333333 437.333333333 1201.33333333 604 1294 c 1
 616 1282 l 1
 502 1191.33333333 413.333333333 1064 350 900 c 0
 290 744.666666667 260 575 260 391 c 0
 260 211 289.333333333 43.6666666667 348 -111 c 0
 410.666666667 -275.666666667 500 -406.666666667 616 -504 c 1
EndSplineSet
EndChar

StartChar: parenright.taml
Encoding: 11 -1 11
Width: 574
Flags: HW
LayerCount: 2
Fore
SplineSet
389 387 m 0
 389 294.333333333 379 204.333333333 359 117 c 128
 339 29.6666666667 308.166666667 -53.6666666667 266.5 -133 c 128
 224.833333333 -212.333333333 172.833333333 -284.166666667 110.5 -348.5 c 128
 48.1666666667 -412.833333333 -26.3333333333 -469.333333333 -113 -518 c 1
 -125 -504 l 1
 -68.3333333333 -456.666666667 -16.6666666667 -398.666666667 30 -330 c 0
 74 -264.666666667 111.333333333 -192 142 -112 c 0
 170.666666667 -34.6666666667 192.666666667 46.6666666667 208 132 c 0
 214.666666667 172.666666667 220 215.333333333 224 260 c 128
 228 304.666666667 230 348.333333333 230 391 c 0
 230 507.666666667 216.333333333 623.5 189 738.5 c 128
 161.666666667 853.5 121.333333333 958 68 1052 c 128
 14.6666666667 1146 -49.6666666667 1222.66666667 -125 1282 c 1
 -113 1295 l 1
 -29.6666666667 1248.33333333 44.3333333333 1191.66666667 109 1125 c 128
 173.666666667 1058.33333333 226.333333333 986.166666667 267 908.5 c 128
 307.666666667 830.833333333 338.166666667 748 358.5 660 c 128
 378.833333333 572 389 481 389 387 c 0
EndSplineSet
EndChar

StartChar: asterisk.taml
Encoding: 12 -1 12
Width: 1229
Flags: HW
LayerCount: 2
Fore
SplineSet
600 821 m 1
 569.333333333 802.333333333 535.333333333 773.5 498 734.5 c 128
 460.666666667 695.5 435.333333333 669.666666667 422 657 c 0
 410 647 395.333333333 642 378 642 c 0
 354 642 336 652 324 672 c 0
 318.666666667 680 316 690.333333333 316 703 c 0
 316 716.333333333 319.833333333 728.833333333 327.5 740.5 c 128
 335.166666667 752.166666667 345.333333333 760 358 764 c 0
 359.333333333 764.666666667 402.333333333 776.666666667 487 800 c 0
 525.666666667 810.666666667 559.333333333 824 588 840 c 1
 562.666666667 852 529 863.666666667 487 875 c 0
 425 891.666666667 382 903.666666667 358 911 c 0
 344.666666667 917 334.5 925.5 327.5 936.5 c 128
 320.5 947.5 317 960 317 974 c 0
 317 986.666666667 319.333333333 997.333333333 324 1006 c 0
 337.333333333 1026 357 1036 383 1036 c 0
 399 1036 412 1031.33333333 422 1022 c 0
 469.333333333 972 501.333333333 938.666666667 518 922 c 0
 544 895.333333333 571.333333333 872.666666667 600 854 c 1
 600 885.333333333 594.333333333 921.333333333 583 962 c 0
 565 1027.33333333 553.666666667 1072 549 1096 c 1
 549 1117.33333333 555.166666667 1134.83333333 567.5 1148.5 c 128
 579.833333333 1162.16666667 594.666666667 1169 612 1169 c 256
 629.333333333 1169 643.666666667 1162 655 1148 c 128
 666.333333333 1134 672 1116 672 1094 c 1
 653.333333333 1026.66666667 641 981.666666667 635 959 c 0
 625.666666667 923.666666667 621 890 621 858 c 1
 647.666666667 874 675.666666667 896.666666667 705 926 c 0
 764.333333333 984 797 1016 803 1022 c 0
 812.333333333 1029.33333333 824 1033 838 1033 c 0
 864 1033 883.666666667 1023.33333333 897 1004 c 0
 901.666666667 994.666666667 904 984.333333333 904 973 c 0
 904 959 900 946 892 934 c 128
 884 922 874 914.333333333 862 911 c 0
 796 893.666666667 751.666666667 882.333333333 729 877 c 0
 693 867.666666667 660.333333333 855.333333333 631 840 c 1
 661 823.333333333 702.333333333 808 755 794 c 0
 795.666666667 783.333333333 831.333333333 773.333333333 862 764 c 0
 874 761.333333333 884 754.333333333 892 743 c 128
 900 731.666666667 904 719 904 705 c 0
 904 694.333333333 901.666666667 684.666666667 897 676 c 0
 883.666666667 654 864 643 838 643 c 0
 824 643 812.333333333 647.666666667 803 657 c 0
 782.333333333 675 749.666666667 705.666666667 705 749 c 0
 674.333333333 779 646.333333333 801.666666667 621 817 c 1
 621 785.666666667 625.666666667 752 635 716 c 0
 649.666666667 666.666666667 662 622 672 582 c 1
 672 560.666666667 666.333333333 542.666666667 655 528 c 128
 643.666666667 513.333333333 629.333333333 506 612 506 c 0
 595.333333333 506 580.666666667 513 568 527 c 128
 555.333333333 541 549 559.333333333 549 582 c 1
 554.333333333 610.666666667 565.333333333 654.333333333 582 713 c 0
 594 756.333333333 600 792.333333333 600 821 c 1
EndSplineSet
EndChar

StartChar: plus.taml
Encoding: 13 -1 13
Width: 860
Flags: HW
LayerCount: 2
Fore
SplineSet
361 531 m 1
 361 684 l 1
 500 684 l 1
 500 531 l 1
 654 531 l 1
 654 391 l 1
 500 391 l 1
 500 238 l 1
 361 238 l 1
 361 391 l 1
 207 391 l 1
 207 531 l 1
 361 531 l 1
EndSplineSet
EndChar

StartChar: comma.taml
Encoding: 14 -1 14
Width: 451
Flags: HW
LayerCount: 2
Fore
SplineSet
315 70 m 0
 315 -7.33333333333 287.666666667 -75 233 -133 c 0
 161.666666667 -208.333333333 99.6666666667 -246 47 -246 c 1
 47 -190 l 1
 71.6666666667 -190 108.333333333 -169 157 -127 c 0
 215 -77 244 -25 244 29 c 0
 244 41.6666666667 242.166666667 48.8333333333 238.5 50.5 c 128
 234.833333333 52.1666666667 228.333333333 53 219 53 c 0
 211.666666667 53 194 44.3333333333 166 27 c 0
 152 18.3333333333 139.666666667 14 129 14 c 0
 108.333333333 14 86.8333333333 27.3333333333 64.5 54 c 128
 42.1666666667 80.6666666667 31 108.333333333 31 137 c 0
 31 168.333333333 43 196.333333333 67 221 c 128
 91 245.666666667 118.666666667 258 150 258 c 0
 198.666666667 258 239 237.666666667 271 197 c 0
 300.333333333 159.666666667 315 117.333333333 315 70 c 0
EndSplineSet
EndChar

StartChar: hyphen.taml
Encoding: 15 -1 15
Width: 819
Flags: HW
LayerCount: 2
Fore
SplineSet
635 391 m 1
 62 391 l 1
 62 535 l 1
 635 535 l 1
 635 391 l 1
EndSplineSet
EndChar

StartChar: period.taml
Encoding: 16 -1 16
Width: 451
Flags: HW
LayerCount: 2
Fore
SplineSet
313 127 m 256
 313 91.6666666667 300 61.6666666667 274 37 c 128
 248 12.3333333333 217.333333333 0 182 0 c 0
 147.333333333 0 117.5 12.1666666667 92.5 36.5 c 128
 67.5 60.8333333333 55 91 55 127 c 0
 55 162.333333333 67.6666666667 192.333333333 93 217 c 128
 118.333333333 241.666666667 148 254 182 254 c 0
 217.333333333 254 248 241.666666667 274 217 c 128
 300 192.333333333 313 162.333333333 313 127 c 256
EndSplineSet
EndChar

StartChar: slash.taml
Encoding: 18 -1 18
Width: 533
Flags: HW
LayerCount: 2
Fore
SplineSet
533 1258 m 1
 43 -193 l 1
 -39 -193 l 1
 453 1258 l 1
 533 1258 l 1
EndSplineSet
EndChar

StartChar: zero.taml
Encoding: 19 -1 19
Width: 680
Flags: HW
LayerCount: 2
Fore
SplineSet
649 461 m 0
 649 395 640 326.166666667 622 254.5 c 128
 604 182.833333333 571.666666667 121 525 69 c 128
 478.333333333 17 416.666666667 -9 340 -9 c 0
 264 -9 203.166666667 16.6666666667 157.5 68 c 128
 111.833333333 119.333333333 79.6666666667 181.166666667 61 253.5 c 128
 42.3333333333 325.833333333 33 395 33 461 c 0
 33 525 42 593.5 60 666.5 c 128
 78 739.5 110.333333333 802 157 854 c 128
 203.666666667 906 264.666666667 932 340 932 c 0
 417.333333333 932 478.833333333 906.166666667 524.5 854.5 c 128
 570.166666667 802.833333333 602.333333333 740.666666667 621 668 c 128
 639.666666667 595.333333333 649 526.333333333 649 461 c 0
518 461 m 0
 518 560.333333333 507 657.5 485 752.5 c 128
 463 847.5 414.666666667 895 340 895 c 0
 222.666666667 895 164 750.333333333 164 461 c 256
 164 171.666666667 222.666666667 27 340 27 c 0
 458.666666667 27 518 171.666666667 518 461 c 0
EndSplineSet
EndChar

StartChar: one.taml
Encoding: 20 -1 20
Width: 680
Flags: HW
LayerCount: 2
Fore
SplineSet
160 0 m 1
 160 21 l 1
 182.666666667 21 202.5 22.6666666667 219.5 26 c 128
 236.5 29.3333333333 250.333333333 34 261 40 c 0
 281 52 291 81 291 127 c 2
 291 744 l 2
 291 764.666666667 288.333333333 780.333333333 283 791 c 128
 277.666666667 801.666666667 264.666666667 807 244 807 c 0
 232 807 201.333333333 797.333333333 152 778 c 1
 152 797 l 1
 398 922 l 1
 408 918 l 1
 408 101 l 2
 408 66.3333333333 417 44.3333333333 435 35 c 128
 453 25.6666666667 487 21 537 21 c 1
 537 0 l 1
 160 0 l 1
EndSplineSet
EndChar

StartChar: two.taml
Encoding: 21 -1 21
Width: 680
Flags: HW
LayerCount: 2
Fore
SplineSet
647 187 m 1
 572 0 l 1
 41 0 l 1
 41 17 l 1
 283 275 l 2
 401.666666667 401.666666667 461 518.333333333 461 625 c 0
 461 673.666666667 446.5 718.166666667 417.5 758.5 c 128
 388.5 798.833333333 338 819 266 819 c 0
 212.666666667 819 172.333333333 803.333333333 145 772 c 128
 117.666666667 740.666666667 93.3333333333 697.666666667 72 643 c 1
 43 649 l 1
 61.6666666667 744.333333333 97.6666666667 813.666666667 151 857 c 128
 204.333333333 900.333333333 264.666666667 922 332 922 c 0
 374 922 413.833333333 911.833333333 451.5 891.5 c 128
 489.166666667 871.166666667 519.666666667 842.333333333 543 805 c 128
 566.333333333 767.666666667 578 724.666666667 578 676 c 0
 578 613.333333333 561.166666667 555.166666667 527.5 501.5 c 128
 493.833333333 447.833333333 452.666666667 395.333333333 404 344 c 2
 174 105 l 1
 500 105 l 2
 530 105 552.666666667 109.833333333 568 119.5 c 128
 583.333333333 129.166666667 603.666666667 153.666666667 629 193 c 1
 647 187 l 1
EndSplineSet
EndChar

StartChar: three.taml
Encoding: 22 -1 22
Width: 680
Flags: HW
LayerCount: 2
Fore
SplineSet
588 295 m 0
 588 231.666666667 571.666666667 176.5 539 129.5 c 128
 506.333333333 82.5 461.333333333 46 404 20 c 128
 346.666666667 -6 282.333333333 -19 211 -19 c 0
 176.333333333 -19 142.5 -13.5 109.5 -2.5 c 128
 76.5 8.5 60 29.3333333333 60 60 c 0
 60 91.3333333333 77.6666666667 107 113 107 c 0
 126.333333333 107 139.666666667 103.666666667 153 97 c 2
 205 67 l 2
 227.666666667 53 245.833333333 43.1666666667 259.5 37.5 c 128
 273.166666667 31.8333333333 288.333333333 29 305 29 c 0
 364.333333333 29 410 50 442 92 c 128
 474 134 490 183.333333333 490 240 c 0
 490 289.333333333 469.833333333 336.833333333 429.5 382.5 c 128
 389.166666667 428.166666667 315 451 207 451 c 1
 207 469 l 1
 357 513 432 589.666666667 432 699 c 0
 432 737.666666667 419.166666667 770.833333333 393.5 798.5 c 128
 367.833333333 826.166666667 331.666666667 840 285 840 c 0
 196.333333333 840 128.666666667 791.666666667 82 695 c 1
 62 701 l 1
 87.3333333333 782.333333333 124.333333333 839.5 173 872.5 c 128
 221.666666667 905.5 273.333333333 922 328 922 c 0
 406 922 461.333333333 901.666666667 494 861 c 128
 526.666666667 820.333333333 543 779.333333333 543 738 c 0
 543 666 500 602.333333333 414 547 c 1
 463.333333333 525.666666667 504.666666667 497.833333333 538 463.5 c 128
 571.333333333 429.166666667 588 373 588 295 c 0
EndSplineSet
EndChar

StartChar: four.taml
Encoding: 23 -1 23
Width: 680
Flags: HW
LayerCount: 2
Fore
SplineSet
643 316 m 1
 643 228 l 1
 504 228 l 1
 504 0 l 1
 400 0 l 1
 400 228 l 1
 17 228 l 1
 17 316 l 1
 445 922 l 1
 504 922 l 1
 504 316 l 1
 643 316 l 1
398 316 m 1
 398 769 l 1
 72 316 l 1
 398 316 l 1
EndSplineSet
EndChar

StartChar: five.taml
Encoding: 24 -1 24
Width: 680
Flags: HW
LayerCount: 2
Fore
SplineSet
246 795 m 1
 189 678 l 1
 263 666 325.666666667 650.833333333 377 632.5 c 128
 428.333333333 614.166666667 471.333333333 583 506 539 c 0
 536.666666667 502.333333333 556.333333333 469.666666667 565 441 c 0
 575 411.666666667 580 367 580 307 c 0
 580 247.666666667 564.333333333 193 533 143 c 128
 501.666666667 93 458 53.5 402 24.5 c 128
 346 -4.5 283.666666667 -19 215 -19 c 0
 164.333333333 -19 123 -11.3333333333 91 4 c 128
 59 19.3333333333 43 39.3333333333 43 64 c 0
 43 99.3333333333 61.6666666667 117 99 117 c 0
 117.666666667 117 135 113 151 105 c 0
 158.333333333 101.666666667 168.833333333 95.5 182.5 86.5 c 128
 196.166666667 77.5 204 72.3333333333 206 71 c 2
 254 39 l 2
 266 33.6666666667 279.666666667 31 295 31 c 0
 344.333333333 31 388.5 52.5 427.5 95.5 c 128
 466.5 138.5 486 198.333333333 486 275 c 0
 486 340.333333333 465.5 394.166666667 424.5 436.5 c 128
 383.5 478.833333333 332.666666667 509.666666667 272 529 c 0
 240 539 209.666666667 546.833333333 181 552.5 c 128
 152.333333333 558.166666667 124.333333333 561 97 561 c 0
 93.6666666667 561 90.8333333333 562.833333333 88.5 566.5 c 128
 86.1666666667 570.166666667 86 574.666666667 88 580 c 2
 238 901 l 1
 522 901 l 2
 546.666666667 901 567.333333333 913.333333333 584 938 c 1
 596 928 l 1
 545 807 l 2
 541.666666667 799 531.333333333 795 514 795 c 2
 246 795 l 1
EndSplineSet
EndChar

StartChar: six.taml
Encoding: 25 -1 25
Width: 680
Flags: HW
LayerCount: 2
Fore
SplineSet
609 932 m 1
 611 910 l 1
 534.333333333 898 467.166666667 872.333333333 409.5 833 c 128
 351.833333333 793.666666667 306.166666667 746.666666667 272.5 692 c 128
 238.833333333 637.333333333 217 580.666666667 207 522 c 1
 239 544.666666667 268.166666667 560.666666667 294.5 570 c 128
 320.833333333 579.333333333 351.666666667 584 387 584 c 0
 434.333333333 584 477.166666667 572.666666667 515.5 550 c 128
 553.833333333 527.333333333 583.666666667 494.166666667 605 450.5 c 128
 626.333333333 406.833333333 637 355.666666667 637 297 c 0
 637 254.333333333 628.833333333 209 612.5 161 c 128
 596.166666667 113 566.166666667 71 522.5 35 c 128
 478.833333333 -1 420 -19 346 -19 c 0
 260.666666667 -19 189.5 16.6666666667 132.5 88 c 128
 75.5 159.333333333 47 262.666666667 47 398 c 0
 47 466 60.8333333333 532 88.5 596 c 128
 116.166666667 660 154.833333333 716.333333333 204.5 765 c 128
 254.166666667 813.666666667 314 853.333333333 384 884 c 0
 418.666666667 899.333333333 455.166666667 911.166666667 493.5 919.5 c 128
 531.833333333 927.833333333 570.333333333 932 609 932 c 1
330 520 m 0
 272.666666667 520 229.666666667 505.666666667 201 477 c 0
 181.666666667 457.666666667 172 414.666666667 172 348 c 0
 172 241.333333333 190.666666667 159.833333333 228 103.5 c 128
 265.333333333 47.1666666667 311.666666667 19 367 19 c 0
 411 19 446.5 37.8333333333 473.5 75.5 c 128
 500.5 113.166666667 514 169.333333333 514 244 c 0
 514 324.666666667 500 390.833333333 472 442.5 c 128
 444 494.166666667 396.666666667 520 330 520 c 0
EndSplineSet
EndChar

StartChar: seven.taml
Encoding: 26 -1 26
Width: 680
Flags: HW
LayerCount: 2
Fore
SplineSet
613 911 m 1
 613 891 l 1
 324 0 l 1
 234 0 l 1
 504 811 l 1
 209 811 l 2
 168.333333333 811 138.833333333 803.5 120.5 788.5 c 128
 102.166666667 773.5 79 744 51 700 c 1
 27 711 l 1
 109 911 l 1
 613 911 l 1
EndSplineSet
EndChar

StartChar: eight.taml
Encoding: 27 -1 27
Width: 680
Flags: HW
LayerCount: 2
Fore
SplineSet
289 424 m 1
 257 398 230.833333333 369.833333333 210.5 339.5 c 128
 190.166666667 309.166666667 180 267 180 213 c 0
 180 178.333333333 186.666666667 146.333333333 200 117 c 128
 213.333333333 87.6666666667 233.333333333 63.6666666667 260 45 c 0
 286.666666667 27.6666666667 317.666666667 19 353 19 c 0
 397 19 432.833333333 32.8333333333 460.5 60.5 c 128
 488.166666667 88.1666666667 502 125.333333333 502 172 c 0
 502 205.333333333 495.666666667 233.166666667 483 255.5 c 128
 470.333333333 277.833333333 450.166666667 300.833333333 422.5 324.5 c 128
 394.833333333 348.166666667 350.333333333 381.333333333 289 424 c 1
76 199 m 256
 76 235 82 266.5 94 293.5 c 128
 106 320.5 123 344 145 364 c 0
 157 375.333333333 171.5 387.833333333 188.5 401.5 c 128
 205.5 415.166666667 227.333333333 432.333333333 254 453 c 1
 204 497.666666667 169.666666667 529.333333333 151 548 c 0
 130.333333333 569.333333333 114 592.666666667 102 618 c 128
 90 643.333333333 84 673.666666667 84 709 c 0
 84 773.666666667 110.666666667 825.333333333 164 864 c 128
 217.333333333 902.666666667 276 922 340 922 c 0
 389.333333333 922 432 913.333333333 468 896 c 128
 504 878.666666667 531.333333333 854.666666667 550 824 c 128
 568.666666667 793.333333333 578 761 578 727 c 0
 578 672.333333333 561.666666667 629.5 529 598.5 c 128
 496.333333333 567.5 452 536.666666667 396 506 c 1
 480.666666667 444.666666667 536.833333333 392 564.5 348 c 128
 592.166666667 304 606 256.333333333 606 205 c 0
 606 151.666666667 585.5 101 544.5 53 c 128
 503.5 5 434 -19 336 -19 c 0
 281.333333333 -19 234.5 -8.66666666667 195.5 12 c 128
 156.5 32.6666666667 126.833333333 60 106.5 94 c 128
 86.1666666667 128 76 163 76 199 c 256
185 746 m 0
 185 673.333333333 242.333333333 601.666666667 357 531 c 1
 393.666666667 554.333333333 424 581 448 611 c 128
 472 641 484 681.666666667 484 733 c 0
 484 774.333333333 471 809.666666667 445 839 c 128
 419 868.333333333 381.333333333 883 332 883 c 0
 284.666666667 883 248.333333333 869.166666667 223 841.5 c 128
 197.666666667 813.833333333 185 782 185 746 c 0
EndSplineSet
EndChar

StartChar: nine.taml
Encoding: 28 -1 28
Width: 680
Flags: HW
LayerCount: 2
Fore
SplineSet
80 -31 m 1
 76 -2 l 1
 174 14 253.333333333 49.6666666667 314 105 c 128
 374.666666667 160.333333333 417.5 214.833333333 442.5 268.5 c 128
 467.5 322.166666667 483.333333333 364.666666667 490 396 c 1
 486 398 l 1
 426.666666667 348.666666667 360.333333333 324 287 324 c 0
 205 324 143.5 352.166666667 102.5 408.5 c 128
 61.5 464.833333333 41 526 41 592 c 0
 41 652 52.6666666667 707.166666667 76 757.5 c 128
 99.3333333333 807.833333333 133 847.833333333 177 877.5 c 128
 221 907.166666667 271.333333333 922 328 922 c 0
 383.333333333 922 433.666666667 905.666666667 479 873 c 128
 524.333333333 840.333333333 560 794.666666667 586 736 c 128
 612 677.333333333 625 611.666666667 625 539 c 0
 625 443 603.5 352.666666667 560.5 268 c 128
 517.5 183.333333333 454.333333333 114 371 60 c 0
 327.666666667 32 281.5 9.83333333333 232.5 -6.5 c 128
 183.5 -22.8333333333 132.666666667 -31 80 -31 c 1
494 484 m 2
 494 537 l 2
 494 767.666666667 433.333333333 883 312 883 c 0
 259.333333333 883 221.833333333 859.833333333 199.5 813.5 c 128
 177.166666667 767.166666667 166 711 166 645 c 0
 166 577 179 516 205 462 c 128
 231 408 276 381 340 381 c 0
 386.666666667 381 430.333333333 396.666666667 471 428 c 0
 486.333333333 440 494 458.666666667 494 484 c 2
EndSplineSet
EndChar

StartChar: colon.taml
Encoding: 29 -1 29
Width: 481
Flags: HW
LayerCount: 2
Fore
SplineSet
328 680 m 0
 328 644.666666667 315 614.666666667 289 590 c 128
 263 565.333333333 232.333333333 553 197 553 c 0
 162.333333333 553 132.5 565.166666667 107.5 589.5 c 128
 82.5 613.833333333 70 644 70 680 c 0
 70 714.666666667 82.5 744.5 107.5 769.5 c 128
 132.5 794.5 162.333333333 807 197 807 c 256
 231.666666667 807 262.166666667 794.5 288.5 769.5 c 128
 314.833333333 744.5 328 714.666666667 328 680 c 0
328 106 m 0
 328 70.6666666667 315.166666667 40.8333333333 289.5 16.5 c 128
 263.833333333 -7.83333333333 233 -20 197 -20 c 0
 162.333333333 -20 132.5 -7.83333333333 107.5 16.5 c 128
 82.5 40.8333333333 70 70.6666666667 70 106 c 0
 70 140.666666667 82.5 170.5 107.5 195.5 c 128
 132.5 220.5 162.333333333 233 197 233 c 256
 231.666666667 233 262.166666667 220.5 288.5 195.5 c 128
 314.833333333 170.5 328 140.666666667 328 106 c 0
EndSplineSet
EndChar

StartChar: semicolon.taml
Encoding: 30 -1 30
Width: 481
Flags: HW
LayerCount: 2
Fore
SplineSet
315 680 m 256
 315 644.666666667 302 614.666666667 276 590 c 128
 250 565.333333333 219.333333333 553 184 553 c 0
 149.333333333 553 119.5 565.166666667 94.5 589.5 c 128
 69.5 613.833333333 57 644 57 680 c 0
 57 715.333333333 69.6666666667 745.333333333 95 770 c 128
 120.333333333 794.666666667 150 807 184 807 c 0
 219.333333333 807 250 794.666666667 276 770 c 128
 302 745.333333333 315 715.333333333 315 680 c 256
315 70 m 0
 315 -7.33333333333 287.666666667 -75 233 -133 c 0
 161.666666667 -208.333333333 99.6666666667 -246 47 -246 c 1
 47 -211 l 1
 70.3333333333 -211 107 -186.333333333 157 -137 c 0
 215 -79.6666666667 244 -24.3333333333 244 29 c 0
 244 41.6666666667 242.166666667 48.8333333333 238.5 50.5 c 128
 234.833333333 52.1666666667 228.333333333 53 219 53 c 0
 211.666666667 53 194 44.3333333333 166 27 c 0
 152 18.3333333333 139.666666667 14 129 14 c 0
 108.333333333 14 86.8333333333 27.3333333333 64.5 54 c 128
 42.1666666667 80.6666666667 31 108.333333333 31 137 c 0
 31 168.333333333 43 196.333333333 67 221 c 128
 91 245.666666667 118.666666667 258 150 258 c 0
 198.666666667 258 239 237.666666667 271 197 c 0
 300.333333333 159.666666667 315 117.333333333 315 70 c 0
EndSplineSet
EndChar

StartChar: less.taml
Encoding: 31 -1 31
Width: 1080
Flags: HW
LayerCount: 2
Fore
SplineSet
875 99 m 1
 875 -13 l 1
 47 365 l 1
 47 465 l 1
 875 840 l 1
 875 729 l 1
 183 414 l 1
 875 99 l 1
EndSplineSet
EndChar

StartChar: equal.taml
Encoding: 32 -1 32
Width: 1155
Flags: HW
LayerCount: 2
Fore
SplineSet
991 735 m 1
 991 629 l 1
 164 629 l 1
 164 735 l 1
 991 735 l 1
991 408 m 1
 991 301 l 1
 164 301 l 1
 164 408 l 1
 991 408 l 1
EndSplineSet
EndChar

StartChar: greater.taml
Encoding: 33 -1 33
Width: 1080
Flags: HW
LayerCount: 2
Fore
SplineSet
47 99 m 1
 740 414 l 1
 47 729 l 1
 47 840 l 1
 875 465 l 1
 875 365 l 1
 47 -13 l 1
 47 99 l 1
EndSplineSet
EndChar

StartChar: question.taml
Encoding: 34 -1 34
Width: 815
Flags: HW
LayerCount: 2
Fore
SplineSet
355 86 m 1
 326 86 l 1
 326 153.333333333 342.333333333 230.666666667 375 318 c 1
 422 424 l 1
 462 522 482 602.666666667 482 666 c 0
 482 720 466.666666667 768.333333333 436 811 c 128
 405.333333333 853.666666667 360.333333333 875 301 875 c 0
 265 875 230.833333333 864.833333333 198.5 844.5 c 128
 166.166666667 824.166666667 150 800.666666667 150 774 c 0
 150 762.666666667 160 744.333333333 180 719 c 0
 200.666666667 696.333333333 211 674 211 652 c 0
 211 634.666666667 205.833333333 619.333333333 195.5 606 c 128
 185.166666667 592.666666667 169.333333333 586 148 586 c 0
 93.3333333333 586 66 620 66 688 c 0
 66 740 79.3333333333 783.333333333 106 818 c 128
 132.666666667 852.666666667 167.333333333 879 210 897 c 128
 252.666666667 915 294 924 334 924 c 0
 379.333333333 924 425.166666667 914.166666667 471.5 894.5 c 128
 517.833333333 874.833333333 551.333333333 853.333333333 572 830 c 0
 594 803.333333333 609.333333333 777.5 618 752.5 c 128
 626.666666667 727.5 631 694 631 652 c 0
 631 632.666666667 628 612.666666667 622 592 c 128
 616 571.333333333 606.333333333 548.666666667 593 524 c 0
 568.333333333 476.666666667 540 434 508 396 c 0
 462 342 428 294 406 252 c 128
 384 210 367 154.666666667 355 86 c 1
344 -195 m 256
 322 -195 301.833333333 -187.833333333 283.5 -173.5 c 128
 265.166666667 -159.166666667 256 -138.333333333 256 -111 c 0
 256 -87 264.666666667 -66.3333333333 282 -49 c 128
 299.333333333 -31.6666666667 320 -23 344 -23 c 0
 368.666666667 -23 389.5 -31.5 406.5 -48.5 c 128
 423.5 -65.5 432 -86.3333333333 432 -111 c 0
 432 -137 422.833333333 -157.5 404.5 -172.5 c 128
 386.166666667 -187.5 366 -195 344 -195 c 256
EndSplineSet
EndChar

StartChar: u0952
Encoding: 38 2386 38
Width: 20
Flags: HW
LayerCount: 2
Fore
SplineSet
-451 -735 m 1
 -1130 -735 l 1
 -1204 -618 l 1
 -524 -618 l 1
 -451 -735 l 1
EndSplineSet
EndChar

StartChar: u0B83
Encoding: 40 2947 40
Width: 1045
Flags: HW
LayerCount: 2
Fore
SplineSet
117 246 m 256
 148.333333333 246 175.666666667 234.333333333 199 211 c 128
 222.333333333 187.666666667 234 160.333333333 234 129 c 0
 234 99 222.5 72.1666666667 199.5 48.5 c 128
 176.5 24.8333333333 149 13 117 13 c 0
 96.3333333333 13 77 18.1666666667 59 28.5 c 128
 41 38.8333333333 26.6666666667 53.3333333333 16 72 c 128
 5.33333333333 90.6666666667 0 109.666666667 0 129 c 0
 0 159 11.6666666667 186 35 210 c 128
 58.3333333333 234 85.6666666667 246 117 246 c 256
723 246 m 256
 754.333333333 246 781.666666667 234.333333333 805 211 c 128
 828.333333333 187.666666667 840 160.333333333 840 129 c 0
 840 99 828.5 72.1666666667 805.5 48.5 c 128
 782.5 24.8333333333 755 13 723 13 c 0
 702.333333333 13 683 18.1666666667 665 28.5 c 128
 647 38.8333333333 632.666666667 53.3333333333 622 72 c 128
 611.333333333 90.6666666667 606 109.666666667 606 129 c 0
 606 159 617.666666667 186 641 210 c 128
 664.333333333 234 691.666666667 246 723 246 c 256
420 910 m 256
 451.333333333 910 478.666666667 898.333333333 502 875 c 128
 525.333333333 851.666666667 537 824.333333333 537 793 c 0
 537 763 525.5 736.166666667 502.5 712.5 c 128
 479.5 688.833333333 452 677 420 677 c 0
 399.333333333 677 380 682.166666667 362 692.5 c 128
 344 702.833333333 329.666666667 717.333333333 319 736 c 128
 308.333333333 754.666666667 303 773.666666667 303 793 c 0
 303 823 314.666666667 850 338 874 c 128
 361.333333333 898 388.666666667 910 420 910 c 256
EndSplineSet
EndChar

StartChar: u0B85
Encoding: 41 2949 41
Width: 1680
Flags: HW
AnchorPoint: "V" 743.5 932 basechar 0
AnchorPoint: "N" 743.5 2.2939 basechar 0
LayerCount: 2
Fore
SplineSet
1485 -154 m 1
 1331 -154 l 1
 1331 277 l 1
 1135 277 l 1
 1083.66666667 191.666666667 1005.16666667 124.166666667 899.5 74.5 c 128
 793.833333333 24.8333333333 677 0 549 0 c 0
 287 0 107.333333333 88 10 264 c 0
 8.66666666667 266.666666667 7 271.666666667 5 279 c 128
 3 286.333333333 2 291 2 293 c 0
 2 329.666666667 24 348 68 348 c 2
 1012 348 l 1
 1052.66666667 414.666666667 1073 486.333333333 1073 563 c 0
 1073 709 996.666666667 800 844 836 c 1
 904 802.666666667 934 737 934 639 c 0
 934 601 927.333333333 566 914 534 c 128
 900.666666667 502 878 476 846 456 c 128
 814 436 773.666666667 426 725 426 c 0
 661.666666667 426 612 450 576 498 c 128
 540 546 522 604.666666667 522 674 c 0
 522 720 532.5 761.666666667 553.5 799 c 128
 574.5 836.333333333 605.5 866.166666667 646.5 888.5 c 128
 687.5 910.833333333 736.333333333 922 793 922 c 0
 876.333333333 922 949.333333333 906.666666667 1012 876 c 128
 1074.66666667 845.333333333 1122.33333333 800.333333333 1155 741 c 128
 1187.66666667 681.666666667 1204 609.666666667 1204 525 c 0
 1204 469 1192.66666667 410 1170 348 c 1
 1331 348 l 1
 1331 922 l 1
 1485 922 l 1
 1485 -154 l 1
815 656 m 0
 815 697.333333333 807 732.833333333 791 762.5 c 128
 775 792.166666667 756.333333333 811.666666667 735 821 c 1
 691.666666667 821 657.333333333 806.333333333 632 777 c 128
 606.666666667 747.666666667 594 712 594 670 c 0
 594 625.333333333 605.333333333 591.666666667 628 569 c 128
 650.666666667 546.333333333 677 535 707 535 c 0
 739.666666667 535 765.833333333 547.5 785.5 572.5 c 128
 805.166666667 597.5 815 625.333333333 815 656 c 0
967 277 m 1
 131 277 l 2
 102.333333333 277 88 269.333333333 88 254 c 0
 88 248.666666667 91 242 97 234 c 0
 129 186.666666667 179.166666667 147.833333333 247.5 117.5 c 128
 315.833333333 87.1666666667 404 72 512 72 c 0
 558.666666667 72 603.666666667 76.3333333333 647 85 c 128
 690.333333333 93.6666666667 731.666666667 107 771 125 c 0
 850.333333333 161 915.666666667 211.666666667 967 277 c 1
EndSplineSet
EndChar

StartChar: u0B86
Encoding: 42 2950 42
Width: 2069
Flags: HW
AnchorPoint: "V" 933 932 basechar 0
AnchorPoint: "N" 933 -506.608 basechar 0
LayerCount: 2
Fore
SplineSet
1864 94 m 0
 1864 -34 1835.5 -144 1778.5 -236 c 128
 1721.5 -328 1642.66666667 -397 1542 -443 c 128
 1441.33333333 -489 1326.66666667 -512 1198 -512 c 0
 1023.33333333 -512 887.166666667 -489 789.5 -443 c 128
 691.833333333 -397 643 -332 643 -248 c 0
 643 -191.333333333 668.5 -147.833333333 719.5 -117.5 c 128
 770.5 -87.1666666667 832.333333333 -72 905 -72 c 0
 961 -72 1013.33333333 -80.8333333333 1062 -98.5 c 128
 1110.66666667 -116.166666667 1150.66666667 -139.333333333 1182 -168 c 1
 1161 -205 l 1
 1131 -181 1091 -161.666666667 1041 -147 c 128
 991 -132.333333333 942.333333333 -125 895 -125 c 0
 838.333333333 -125 793.5 -135.5 760.5 -156.5 c 128
 727.5 -177.5 711 -206.666666667 711 -244 c 0
 711 -311.333333333 753 -361 837 -393 c 128
 921 -425 1021 -441 1137 -441 c 0
 1249.66666667 -441 1349.5 -417.333333333 1436.5 -370 c 128
 1523.5 -322.666666667 1590.83333333 -258.333333333 1638.5 -177 c 128
 1686.16666667 -95.6666666667 1710 -8 1710 86 c 0
 1710 142.666666667 1702 189.833333333 1686 227.5 c 128
 1670 265.166666667 1649.5 293 1624.5 311 c 128
 1599.5 329 1574.33333333 338 1549 338 c 256
 1523.66666667 338 1502.33333333 330 1485 314 c 1
 1485 -154 l 1
 1331 -154 l 1
 1331 277 l 1
 1135 277 l 1
 1083.66666667 191.666666667 1005.16666667 124.166666667 899.5 74.5 c 128
 793.833333333 24.8333333333 677 0 549 0 c 0
 287 0 107.333333333 88 10 264 c 0
 8.66666666667 266.666666667 7 271.666666667 5 279 c 128
 3 286.333333333 2 291 2 293 c 0
 2 329.666666667 24 348 68 348 c 2
 1012 348 l 1
 1052.66666667 414.666666667 1073 486.333333333 1073 563 c 0
 1073 709 996.666666667 800 844 836 c 1
 904 802.666666667 934 737 934 639 c 0
 934 601 927.333333333 566 914 534 c 128
 900.666666667 502 878 476 846 456 c 128
 814 436 773.666666667 426 725 426 c 0
 661.666666667 426 612 450 576 498 c 128
 540 546 522 604.666666667 522 674 c 0
 522 720 532.5 761.666666667 553.5 799 c 128
 574.5 836.333333333 605.5 866.166666667 646.5 888.5 c 128
 687.5 910.833333333 736.333333333 922 793 922 c 0
 876.333333333 922 949.333333333 906.666666667 1012 876 c 128
 1074.66666667 845.333333333 1122.33333333 800.333333333 1155 741 c 128
 1187.66666667 681.666666667 1204 609.666666667 1204 525 c 0
 1204 469 1192.66666667 410 1170 348 c 1
 1331 348 l 1
 1331 922 l 1
 1485 922 l 1
 1485 383 l 1
 1517.66666667 415.666666667 1558 432 1606 432 c 0
 1650.66666667 432 1692.66666667 419.166666667 1732 393.5 c 128
 1771.33333333 367.833333333 1803.16666667 329.5 1827.5 278.5 c 128
 1851.83333333 227.5 1864 166 1864 94 c 0
815 656 m 0
 815 697.333333333 807 732.833333333 791 762.5 c 128
 775 792.166666667 756.333333333 811.666666667 735 821 c 1
 691.666666667 821 657.333333333 806.333333333 632 777 c 128
 606.666666667 747.666666667 594 712 594 670 c 0
 594 625.333333333 605.333333333 591.666666667 628 569 c 128
 650.666666667 546.333333333 677 535 707 535 c 0
 739.666666667 535 765.833333333 547.5 785.5 572.5 c 128
 805.166666667 597.5 815 625.333333333 815 656 c 0
967 277 m 1
 131 277 l 2
 102.333333333 277 88 269.333333333 88 254 c 0
 88 248.666666667 91 242 97 234 c 0
 129 186.666666667 179.166666667 147.833333333 247.5 117.5 c 128
 315.833333333 87.1666666667 404 72 512 72 c 0
 558.666666667 72 603.666666667 76.3333333333 647 85 c 128
 690.333333333 93.6666666667 731.666666667 107 771 125 c 0
 850.333333333 161 915.666666667 211.666666667 967 277 c 1
EndSplineSet
EndChar

StartChar: u0B87
Encoding: 43 2951 43
Width: 1577
Flags: HW
AnchorPoint: "V" 696.5 1320.86 basechar 0
AnchorPoint: "N" 696.5 -185 basechar 0
LayerCount: 2
Fore
SplineSet
549 656 m 0
 549 697.333333333 541 732.833333333 525 762.5 c 128
 509 792.166666667 490.333333333 811.666666667 469 821 c 1
 425.666666667 821 391.333333333 806.333333333 366 777 c 128
 340.666666667 747.666666667 328 712 328 670 c 0
 328 625.333333333 339.166666667 591.666666667 361.5 569 c 128
 383.833333333 546.333333333 410.333333333 535 441 535 c 0
 473.666666667 535 499.833333333 547.5 519.5 572.5 c 128
 539.166666667 597.5 549 625.333333333 549 656 c 0
611 -88 m 1
 665 -104.666666667 720.666666667 -113 778 -113 c 0
 848 -113 902.5 -93.8333333333 941.5 -55.5 c 128
 980.5 -17.1666666667 1000 28.6666666667 1000 82 c 0
 1000 140 961 192 883 238 c 1
 825 98 734.333333333 -10.6666666667 611 -88 c 1
168 162 m 1
 104 116 72 67 72 15 c 0
 72 -23 90.1666666667 -53.8333333333 126.5 -77.5 c 128
 162.833333333 -101.166666667 208 -113 262 -113 c 0
 314.666666667 -113 366 -102 416 -80 c 1
 352 -40.6666666667 294.666666667 7.33333333333 244 64 c 0
 212.666666667 100.666666667 187.333333333 133.333333333 168 162 c 1
232 203 m 1
 262 161 289.333333333 127 314 101 c 0
 366.666666667 45 426.666666667 -1.66666666667 494 -39 c 1
 613.333333333 37.6666666667 702 146.333333333 760 287 c 1
 712.666666667 299 663 305 611 305 c 0
 549 305 484 295.666666667 416 277 c 0
 382 268.333333333 350 257.833333333 320 245.5 c 128
 290 233.166666667 260.666666667 219 232 203 c 1
783 357 m 1
 799 411 807 466 807 522 c 0
 807 571.333333333 802.333333333 613.5 793 648.5 c 128
 783.666666667 683.5 768.666666667 713.666666667 748 739 c 0
 708 787 651.333333333 819.333333333 578 836 c 1
 638 802.666666667 668 737 668 639 c 0
 668 577.666666667 651.333333333 526.833333333 618 486.5 c 128
 584.666666667 446.166666667 531.666666667 426 459 426 c 0
 395.666666667 426 346 450.166666667 310 498.5 c 128
 274 546.833333333 256 605.333333333 256 674 c 0
 256 720 266.5 761.833333333 287.5 799.5 c 128
 308.5 837.166666667 339.5 867 380.5 889 c 128
 421.5 911 470.333333333 922 527 922 c 0
 610.333333333 922 683.333333333 906.666666667 746 876 c 128
 808.666666667 845.333333333 856.333333333 800.333333333 889 741 c 128
 921.666666667 681.666666667 938 609.666666667 938 525 c 0
 938 491.666666667 936 458.5 932 425.5 c 128
 928 392.5 921.333333333 358 912 322 c 1
 982.666666667 296.666666667 1038.83333333 263.333333333 1080.5 222 c 128
 1122.16666667 180.666666667 1143 132.666666667 1143 78 c 0
 1143 -9.33333333333 1109.83333333 -75 1043.5 -119 c 128
 977.166666667 -163 888 -185 776 -185 c 0
 690 -185 605.333333333 -167.666666667 522 -133 c 1
 440.666666667 -167.666666667 357.666666667 -185 273 -185 c 0
 192.333333333 -185 126.666666667 -168 76 -134 c 128
 25.3333333333 -100 0 -47.6666666667 0 23 c 0
 0 95 42.3333333333 163.333333333 127 228 c 1
 87.6666666667 298 56.6666666667 372.833333333 34 452.5 c 128
 11.3333333333 532.166666667 0 606.666666667 0 676 c 0
 0 810.666666667 30.5 927 91.5 1025 c 128
 152.5 1123 235.166666667 1196.83333333 339.5 1246.5 c 128
 443.833333333 1296.16666667 557.333333333 1321 680 1321 c 0
 787.333333333 1321 885 1303 973 1267 c 128
 1061 1231 1136.16666667 1177.83333333 1198.5 1107.5 c 128
 1260.83333333 1037.16666667 1308.83333333 951.166666667 1342.5 849.5 c 128
 1376.16666667 747.833333333 1393 633.333333333 1393 506 c 0
 1393 454.666666667 1390.66666667 406 1386 360 c 128
 1381.33333333 314 1374.16666667 265.833333333 1364.5 215.5 c 128
 1354.83333333 165.166666667 1345 121 1335 83 c 128
 1325 45 1313.33333333 7.33333333333 1300 -30 c 0
 1276.66666667 -98.6666666667 1255.66666667 -150.333333333 1237 -185 c 1
 1184 -162 l 1
 1199.33333333 -135.333333333 1214.66666667 -100.333333333 1230 -57 c 128
 1245.33333333 -13.6666666667 1260.33333333 35.6666666667 1275 91 c 0
 1305.66666667 205 1321 328.333333333 1321 461 c 0
 1321 567.666666667 1305 665.5 1273 754.5 c 128
 1241 843.5 1195.83333333 919.166666667 1137.5 981.5 c 128
 1079.16666667 1043.83333333 1010.83333333 1091.5 932.5 1124.5 c 128
 854.166666667 1157.5 770 1174 680 1174 c 0
 566.666666667 1174 463.333333333 1151.5 370 1106.5 c 128
 276.666666667 1061.5 203.666666667 1000.33333333 151 923 c 128
 98.3333333333 845.666666667 72 759.333333333 72 664 c 0
 72 533.333333333 111.666666667 400.666666667 191 266 c 1
 220.333333333 282 251.5 296.333333333 284.5 309 c 128
 317.5 321.666666667 354 333 394 343 c 0
 472 361.666666667 545.666666667 371 615 371 c 0
 673 371 729 366.333333333 783 357 c 1
EndSplineSet
EndChar

StartChar: u0B88
Encoding: 44 2952 44
Width: 1065
Flags: HW
AnchorPoint: "V" 426 932 basechar 0
AnchorPoint: "N" 426 0 basechar 0
LayerCount: 2
Fore
SplineSet
852 461 m 0
 852 435 843.5 413.5 826.5 396.5 c 128
 809.5 379.5 788 371 762 371 c 256
 736 371 714.5 379.666666667 697.5 397 c 128
 680.5 414.333333333 672 435.666666667 672 461 c 0
 672 487 680.5 508.833333333 697.5 526.5 c 128
 714.5 544.166666667 736 553 762 553 c 256
 788 553 809.5 544 826.5 526 c 128
 843.5 508 852 486.333333333 852 461 c 0
789 850 m 1
 584 850 l 1
 584 0 l 1
 430 0 l 1
 430 850 l 1
 72 850 l 1
 72 0 l 1
 0 0 l 1
 0 922 l 1
 789 922 l 1
 789 850 l 1
340 461 m 0
 340 435 331.5 413.5 314.5 396.5 c 128
 297.5 379.5 276 371 250 371 c 256
 224 371 202.5 379.666666667 185.5 397 c 128
 168.5 414.333333333 160 435.666666667 160 461 c 0
 160 487 168.5 508.833333333 185.5 526.5 c 128
 202.5 544.166666667 224 553 250 553 c 256
 276 553 297.5 544 314.5 526 c 128
 331.5 508 340 486.333333333 340 461 c 0
EndSplineSet
EndChar

StartChar: u0B89
Encoding: 45 2953 45
Width: 1659
Flags: HW
AnchorPoint: "V" 777.5 932 basechar 0
AnchorPoint: "N" 777.5 0 basechar 0
LayerCount: 2
Fore
SplineSet
1506 0 m 2
 162 0 l 2
 112.666666667 0 73.3333333333 13 44 39 c 128
 14.6666666667 65 0 95.6666666667 0 131 c 0
 0 165 14.6666666667 195 44 221 c 128
 73.3333333333 247 112.666666667 260 162 260 c 2
 422 260 l 2
 484 260 534.333333333 288 573 344 c 128
 611.666666667 400 631 461.666666667 631 529 c 0
 631 743 532 850 334 850 c 0
 291.333333333 850 250 841.333333333 210 824 c 128
 170 806.666666667 137.333333333 783.333333333 112 754 c 128
 86.6666666667 724.666666667 74 694 74 662 c 1
 108 719.333333333 159.333333333 748 228 748 c 0
 265.333333333 748 299 738 329 718 c 0
 357 700 379.5 674 396.5 640 c 128
 413.5 606 422 569.666666667 422 531 c 0
 422 465.666666667 402.666666667 414.166666667 364 376.5 c 128
 325.333333333 338.833333333 273.666666667 320 209 320 c 0
 69.6666666667 320 0 421 0 623 c 0
 0 660.333333333 8.33333333333 697 25 733 c 128
 41.6666666667 769 65.5 800.833333333 96.5 828.5 c 128
 127.5 856.166666667 166 878.666666667 212 896 c 128
 258 913.333333333 308.333333333 922 363 922 c 0
 451 922 526.166666667 905.833333333 588.5 873.5 c 128
 650.833333333 841.166666667 697.333333333 796.333333333 728 739 c 128
 758.666666667 681.666666667 774 614.333333333 774 537 c 0
 774 299 657.333333333 180 424 180 c 2
 219 180 l 2
 191 180 169.333333333 174.333333333 154 163 c 128
 138.666666667 151.666666667 131 137.666666667 131 121 c 0
 131 105 138.666666667 91.1666666667 154 79.5 c 128
 169.333333333 67.8333333333 190.333333333 62 217 62 c 2
 1506 62 l 2
 1538.66666667 62 1555 51.6666666667 1555 31 c 0
 1555 23 1550.33333333 15.8333333333 1541 9.5 c 128
 1531.66666667 3.16666666667 1520 0 1506 0 c 2
250 628 m 0
 230 644 207.666666667 652 183 652 c 0
 137 652 100 627.333333333 72 578 c 1
 72 530 83 490 105 458 c 128
 127 426 156.333333333 410 193 410 c 0
 224.333333333 410 248.833333333 422.5 266.5 447.5 c 128
 284.166666667 472.5 293 501.666666667 293 535 c 0
 293 549.666666667 290 564.666666667 284 580 c 0
 276 600.666666667 264.666666667 616.666666667 250 628 c 0
EndSplineSet
EndChar

StartChar: u0B8A
Encoding: 46 2954 46
Width: 2663
Flags: HW
AnchorPoint: "V" 1239 932 basechar 0
AnchorPoint: "N" 1239 0 basechar 0
LayerCount: 2
Fore
SplineSet
2478 850 m 1
 2274 850 l 1
 2274 123 l 1
 2120 123 l 1
 2120 850 l 1
 1884 850 l 1
 1884 123 l 1
 1731 123 l 1
 1731 643 l 2
 1731 704.333333333 1704.83333333 754.166666667 1652.5 792.5 c 128
 1600.16666667 830.833333333 1529.33333333 850 1440 850 c 0
 1404.66666667 850 1371.16666667 847 1339.5 841 c 128
 1307.83333333 835 1277 825.333333333 1247 812 c 0
 1189 787.333333333 1143.16666667 756.333333333 1109.5 719 c 128
 1075.83333333 681.666666667 1059 648.333333333 1059 619 c 1
 1075.66666667 641 1102 659.166666667 1138 673.5 c 128
 1174 687.833333333 1214 695 1258 695 c 0
 1305.33333333 695 1349 683 1389 659 c 128
 1429 635 1460.16666667 601.666666667 1482.5 559 c 128
 1504.83333333 516.333333333 1516 469.333333333 1516 418 c 0
 1516 358.666666667 1507.83333333 307.166666667 1491.5 263.5 c 128
 1475.16666667 219.833333333 1450 185.5 1416 160.5 c 128
 1382 135.5 1341 123 1293 123 c 0
 1231 123 1176.66666667 139 1130 171 c 128
 1083.33333333 203 1047.16666667 249.666666667 1021.5 311 c 128
 995.833333333 372.333333333 983 443.666666667 983 525 c 256
 983 606.333333333 1002 677.333333333 1040 738 c 128
 1078 798.666666667 1130.5 844.5 1197.5 875.5 c 128
 1264.5 906.5 1339.33333333 922 1422 922 c 0
 1544.66666667 922 1638.5 906.666666667 1703.5 876 c 128
 1768.5 845.333333333 1808.33333333 809.333333333 1823 768 c 1
 1823 922 l 1
 2478 922 l 1
 2478 850 l 1
2407 0 m 2
 162 0 l 2
 112.666666667 0 73.3333333333 13 44 39 c 128
 14.6666666667 65 0 95.6666666667 0 131 c 0
 0 165 14.6666666667 195 44 221 c 128
 73.3333333333 247 112.666666667 260 162 260 c 2
 422 260 l 2
 484 260 534.333333333 288 573 344 c 128
 611.666666667 400 631 461.666666667 631 529 c 0
 631 743 532 850 334 850 c 0
 291.333333333 850 250 841.333333333 210 824 c 128
 170 806.666666667 137.333333333 783.333333333 112 754 c 128
 86.6666666667 724.666666667 74 694 74 662 c 1
 108 719.333333333 159.333333333 748 228 748 c 0
 265.333333333 748 299 738 329 718 c 0
 357 700 379.5 674 396.5 640 c 128
 413.5 606 422 569.666666667 422 531 c 0
 422 465.666666667 402.666666667 414.166666667 364 376.5 c 128
 325.333333333 338.833333333 273.666666667 320 209 320 c 0
 69.6666666667 320 0 421 0 623 c 0
 0 660.333333333 8.33333333333 697 25 733 c 128
 41.6666666667 769 65.5 800.833333333 96.5 828.5 c 128
 127.5 856.166666667 166 878.666666667 212 896 c 128
 258 913.333333333 308.333333333 922 363 922 c 0
 451 922 526.166666667 905.833333333 588.5 873.5 c 128
 650.833333333 841.166666667 697.333333333 796.333333333 728 739 c 128
 758.666666667 681.666666667 774 614.333333333 774 537 c 0
 774 299 657.333333333 180 424 180 c 2
 219 180 l 2
 191 180 169.333333333 174.333333333 154 163 c 128
 138.666666667 151.666666667 131 137.666666667 131 121 c 0
 131 105 138.666666667 91.1666666667 154 79.5 c 128
 169.333333333 67.8333333333 190.333333333 62 217 62 c 2
 2407 62 l 2
 2439.66666667 62 2456 51.6666666667 2456 31 c 0
 2456 23 2451.33333333 15.8333333333 2442 9.5 c 128
 2432.66666667 3.16666666667 2421 0 2407 0 c 2
1354 420 m 0
 1354 448.666666667 1347.16666667 476.166666667 1333.5 502.5 c 128
 1319.83333333 528.833333333 1301.33333333 550.666666667 1278 568 c 128
 1254.66666667 585.333333333 1229.33333333 594 1202 594 c 0
 1164 594 1132.16666667 584.5 1106.5 565.5 c 128
 1080.83333333 546.5 1063.66666667 522 1055 492 c 1
 1055 437.333333333 1070.16666667 383.333333333 1100.5 330 c 128
 1130.83333333 276.666666667 1171 250 1221 250 c 0
 1262.33333333 250 1294.83333333 266.833333333 1318.5 300.5 c 128
 1342.16666667 334.166666667 1354 374 1354 420 c 0
250 628 m 0
 230 644 207.666666667 652 183 652 c 0
 137 652 100 627.333333333 72 578 c 1
 72 530 83 490 105 458 c 128
 127 426 156.333333333 410 193 410 c 0
 224.333333333 410 248.833333333 422.5 266.5 447.5 c 128
 284.166666667 472.5 293 501.666666667 293 535 c 0
 293 549.666666667 290 564.666666667 284 580 c 0
 276 600.666666667 264.666666667 616.666666667 250 628 c 0
EndSplineSet
EndChar

StartChar: u0B8E
Encoding: 47 2958 47
Width: 1311
Flags: HW
AnchorPoint: "V" 553 932 basechar 0
AnchorPoint: "N" 553 28.8506 basechar 0
LayerCount: 2
Fore
SplineSet
1106 850 m 1
 901 850 l 1
 901 0 l 1
 748 0 l 1
 748 850 l 1
 457 850 l 2
 372.333333333 850 301.666666667 832.833333333 245 798.5 c 128
 188.333333333 764.166666667 146 721.666666667 118 671 c 0
 104 645.666666667 93.1666666667 620.166666667 85.5 594.5 c 128
 77.8333333333 568.833333333 74 544.666666667 74 522 c 1
 90 546 116.666666667 566 154 582 c 128
 191.333333333 598 231 606 273 606 c 0
 352.333333333 606 416.833333333 578.833333333 466.5 524.5 c 128
 516.166666667 470.166666667 541 400.666666667 541 316 c 0
 541 219.333333333 521.833333333 142.5 483.5 85.5 c 128
 445.166666667 28.5 387 0 309 0 c 0
 211 0 135 37.1666666667 81 111.5 c 128
 27 185.833333333 0 290 0 424 c 0
 0 524 17.8333333333 611.5 53.5 686.5 c 128
 89.1666666667 761.5 140.5 819.5 207.5 860.5 c 128
 274.5 901.5 351.666666667 922 439 922 c 2
 1106 922 l 1
 1106 850 l 1
387 312 m 0
 387 344 379.833333333 374.833333333 365.5 404.5 c 128
 351.166666667 434.166666667 331.5 458.5 306.5 477.5 c 128
 281.5 496.5 255.333333333 506 228 506 c 0
 189.333333333 506 156.166666667 494.833333333 128.5 472.5 c 128
 100.833333333 450.166666667 82 423 72 391 c 1
 72 314.333333333 87.1666666667 250.5 117.5 199.5 c 128
 147.833333333 148.5 190.666666667 123 246 123 c 0
 290.666666667 123 325.333333333 141.666666667 350 179 c 128
 374.666666667 216.333333333 387 260.666666667 387 312 c 0
EndSplineSet
EndChar

StartChar: u0B8F
Encoding: 48 2959 48
Width: 1311
Flags: HW
AnchorPoint: "V" 553 932 basechar 0
AnchorPoint: "N" 553 -287 basechar 0
LayerCount: 2
Fore
SplineSet
1106 850 m 1
 901 850 l 1
 901 0 l 1
 563 -287 l 1
 441 -287 l 1
 748 0 l 1
 748 850 l 1
 457 850 l 2
 372.333333333 850 301.666666667 832.833333333 245 798.5 c 128
 188.333333333 764.166666667 146 721.666666667 118 671 c 0
 104 645.666666667 93.1666666667 620.166666667 85.5 594.5 c 128
 77.8333333333 568.833333333 74 544.666666667 74 522 c 1
 90 546 116.666666667 566 154 582 c 128
 191.333333333 598 231 606 273 606 c 0
 352.333333333 606 416.833333333 578.833333333 466.5 524.5 c 128
 516.166666667 470.166666667 541 400.666666667 541 316 c 0
 541 219.333333333 521.833333333 142.5 483.5 85.5 c 128
 445.166666667 28.5 387 0 309 0 c 0
 211 0 135 37.1666666667 81 111.5 c 128
 27 185.833333333 0 290 0 424 c 0
 0 524 17.8333333333 611.5 53.5 686.5 c 128
 89.1666666667 761.5 140.5 819.5 207.5 860.5 c 128
 274.5 901.5 351.666666667 922 439 922 c 2
 1106 922 l 1
 1106 850 l 1
387 312 m 0
 387 344 379.833333333 374.833333333 365.5 404.5 c 128
 351.166666667 434.166666667 331.5 458.5 306.5 477.5 c 128
 281.5 496.5 255.333333333 506 228 506 c 0
 189.333333333 506 156.166666667 494.833333333 128.5 472.5 c 128
 100.833333333 450.166666667 82 423 72 391 c 1
 72 314.333333333 87.1666666667 250.5 117.5 199.5 c 128
 147.833333333 148.5 190.666666667 123 246 123 c 0
 290.666666667 123 325.333333333 141.666666667 350 179 c 128
 374.666666667 216.333333333 387 260.666666667 387 312 c 0
EndSplineSet
EndChar

StartChar: u0B90
Encoding: 49 2960 49
Width: 1331
Flags: HW
AnchorPoint: "V" 563.5 932 basechar 0
AnchorPoint: "N" 563.5 -358.508 basechar 0
LayerCount: 2
Fore
SplineSet
1127 598 m 0
 1127 532 1114 467.666666667 1088 405 c 128
 1062 342.333333333 1021.66666667 296 967 266 c 0
 921.666666667 243.333333333 873.666666667 227.666666667 823 219 c 0
 792.333333333 214.333333333 760 210 726 206 c 128
 692 202 658.666666667 200 626 200 c 0
 590.666666667 200 560.166666667 199 534.5 197 c 128
 508.833333333 195 475.166666667 192 433.5 188 c 128
 391.833333333 184 352 174.666666667 314 160 c 0
 282.666666667 148 253.333333333 123.333333333 226 86 c 128
 198.666666667 48.6666666667 185 1.33333333333 185 -56 c 0
 185 -120.666666667 199.333333333 -175.333333333 228 -220 c 128
 256.666666667 -264.666666667 298.333333333 -287 353 -287 c 0
 383.666666667 -287 412.5 -277.666666667 439.5 -259 c 128
 466.5 -240.333333333 488.833333333 -217.166666667 506.5 -189.5 c 128
 524.166666667 -161.833333333 533 -136.333333333 533 -113 c 2
 533 17 l 1
 676 17 l 1
 676 -109 l 2
 676 -153 692.5 -194.666666667 725.5 -234 c 128
 758.5 -273.333333333 802.666666667 -293 858 -293 c 0
 908.666666667 -293 946.333333333 -276 971 -242 c 128
 995.666666667 -208 1008 -164.333333333 1008 -111 c 0
 1008 -74.3333333333 1002.83333333 -39.5 992.5 -6.5 c 128
 982.166666667 26.5 969 52.6666666667 953 72 c 1
 1043 113 l 1
 1083.66666667 56.3333333333 1104 -12.6666666667 1104 -94 c 0
 1104 -170 1082.33333333 -233.833333333 1039 -285.5 c 128
 995.666666667 -337.166666667 931.333333333 -363 846 -363 c 0
 736 -363 662.333333333 -326 625 -252 c 1
 608.333333333 -281.333333333 576.5 -307.166666667 529.5 -329.5 c 128
 482.5 -351.833333333 431.666666667 -363 377 -363 c 0
 303.666666667 -363 241.666666667 -350.166666667 191 -324.5 c 128
 140.333333333 -298.833333333 102.666666667 -263 78 -217 c 128
 53.3333333333 -171 41 -117.333333333 41 -56 c 0
 41 76 97 163.666666667 209 207 c 0
 278.333333333 234.333333333 355.333333333 252 440 260 c 2
 685 282 l 1
 723 282 756.833333333 285.666666667 786.5 293 c 128
 816.166666667 300.333333333 844.5 310.833333333 871.5 324.5 c 128
 898.5 338.166666667 920.5 362.833333333 937.5 398.5 c 128
 954.5 434.166666667 966.333333333 472.166666667 973 512.5 c 128
 979.666666667 552.833333333 983 587 983 615 c 0
 983 683 967.5 739.166666667 936.5 783.5 c 128
 905.5 827.833333333 859.666666667 850 799 850 c 0
 757.666666667 850 726.833333333 832.5 706.5 797.5 c 128
 686.166666667 762.5 676 729 676 697 c 2
 676 439 l 1
 533 439 l 1
 533 686 l 2
 533 724 516.833333333 760.833333333 484.5 796.5 c 128
 452.166666667 832.166666667 402 850 334 850 c 0
 291.333333333 850 250 841.333333333 210 824 c 128
 170 806.666666667 137.333333333 783.333333333 112 754 c 128
 86.6666666667 724.666666667 74 694 74 662 c 1
 108 719.333333333 159.333333333 748 228 748 c 0
 265.333333333 748 299 738 329 718 c 0
 357 700 379.5 674 396.5 640 c 128
 413.5 606 422 569.666666667 422 531 c 0
 422 465.666666667 402.666666667 414.166666667 364 376.5 c 128
 325.333333333 338.833333333 273.666666667 320 209 320 c 0
 69.6666666667 320 0 421 0 623 c 0
 0 675 14.1666666667 723.833333333 42.5 769.5 c 128
 70.8333333333 815.166666667 112.666666667 852 168 880 c 128
 223.333333333 908 288.333333333 922 363 922 c 0
 506.333333333 922 593.666666667 883 625 805 c 1
 655 883 719.666666667 922 819 922 c 0
 919 922 995.333333333 893.666666667 1048 837 c 128
 1100.66666667 780.333333333 1127 700.666666667 1127 598 c 0
250 628 m 0
 230 644 207.666666667 652 183 652 c 0
 137 652 100 627.333333333 72 578 c 1
 72 530 83 490 105 458 c 128
 127 426 156.333333333 410 193 410 c 0
 224.333333333 410 248.833333333 422.5 266.5 447.5 c 128
 284.166666667 472.5 293 501.666666667 293 535 c 0
 293 549.666666667 290 564.666666667 284 580 c 0
 276 600.666666667 264.666666667 616.666666667 250 628 c 0
EndSplineSet
EndChar

StartChar: u0B92
Encoding: 50 2962 50
Width: 1434
Flags: HW
AnchorPoint: "V" 584 932 basechar 0
AnchorPoint: "N" 584 -512 basechar 0
LayerCount: 2
Fore
SplineSet
1168 436 m 0
 1168 370.666666667 1158.16666667 313.666666667 1138.5 265 c 128
 1118.83333333 216.333333333 1090.33333333 178.833333333 1053 152.5 c 128
 1015.66666667 126.166666667 973.333333333 113 926 113 c 0
 858 113 812 134.166666667 788 176.5 c 128
 764 218.833333333 752 275.333333333 752 346 c 1
 736.666666667 288.666666667 729 245 729 215 c 0
 729 151.666666667 749.333333333 108 790 84 c 0
 810.666666667 72.6666666667 835.5 63.6666666667 864.5 57 c 128
 893.5 50.3333333333 926.333333333 47 963 47 c 2
 1118 47 l 1
 1118 -33 l 1
 1004 -33 l 2
 976.666666667 -33 954.166666667 -40.5 936.5 -55.5 c 128
 918.833333333 -70.5 904.666666667 -91 894 -117 c 128
 883.333333333 -143 872 -177.333333333 860 -220 c 2
 830 -318 l 1
 784 -447.333333333 677.333333333 -512 510 -512 c 0
 438 -512 376.166666667 -500.5 324.5 -477.5 c 128
 272.833333333 -454.5 232.833333333 -422.833333333 204.5 -382.5 c 128
 176.166666667 -342.166666667 162 -297.333333333 162 -248 c 0
 162 -182 178.5 -127.333333333 211.5 -84 c 128
 244.5 -40.6666666667 288.666666667 -19 344 -19 c 1
 369 -101 l 1
 328.333333333 -101 295.666666667 -113.5 271 -138.5 c 128
 246.333333333 -163.5 234 -200 234 -248 c 0
 234 -299.333333333 260 -344.333333333 312 -383 c 128
 364 -421.666666667 435.666666667 -441 527 -441 c 0
 568.333333333 -441 601.833333333 -433.333333333 627.5 -418 c 128
 653.166666667 -402.666666667 672.333333333 -382.666666667 685 -358 c 128
 697.666666667 -333.333333333 707.666666667 -302 715 -264 c 2
 733 -168 l 2
 741.666666667 -124 753.666666667 -88.6666666667 769 -62 c 128
 784.333333333 -35.3333333333 808 -16.6666666667 840 -6 c 1
 784.666666667 6.66666666667 743.833333333 33.8333333333 717.5 75.5 c 128
 691.166666667 117.166666667 678 166.333333333 678 223 c 0
 678 289 693 353.666666667 723 417 c 128
 753 480.333333333 786.666666667 518.333333333 824 531 c 1
 860 508 l 1
 823.333333333 476.666666667 805 427 805 359 c 0
 805 320.333333333 812.5 287.666666667 827.5 261 c 128
 842.5 234.333333333 862.333333333 221 887 221 c 0
 971.666666667 221 1014 290.666666667 1014 430 c 0
 1014 509.333333333 991.5 580.666666667 946.5 644 c 128
 901.5 707.333333333 843.5 757.5 772.5 794.5 c 128
 701.5 831.5 629 850 555 850 c 0
 429.666666667 850 325 825.166666667 241 775.5 c 128
 157 725.833333333 102.666666667 649.666666667 78 547 c 1
 112.666666667 593.666666667 168.666666667 617 246 617 c 0
 318.666666667 617 377.5 594.833333333 422.5 550.5 c 128
 467.5 506.166666667 490 449.666666667 490 381 c 0
 490 303.666666667 471.833333333 241.333333333 435.5 194 c 128
 399.166666667 146.666666667 346.333333333 123 277 123 c 0
 192.333333333 123 125 154.5 75 217.5 c 128
 25 280.5 0 356.333333333 0 445 c 0
 0 592.333333333 47.6666666667 708.666666667 143 794 c 128
 238.333333333 879.333333333 382 922 574 922 c 0
 673.333333333 922 760.666666667 908.833333333 836 882.5 c 128
 911.333333333 856.166666667 973.333333333 820.666666667 1022 776 c 128
 1070.66666667 731.333333333 1107.16666667 679.5 1131.5 620.5 c 128
 1155.83333333 561.5 1168 500 1168 436 c 0
336 377 m 0
 336 404.333333333 331.166666667 429.833333333 321.5 453.5 c 128
 311.833333333 477.166666667 297.166666667 496.666666667 277.5 512 c 128
 257.833333333 527.333333333 235.666666667 535 211 535 c 0
 176.333333333 535 146.833333333 526.666666667 122.5 510 c 128
 98.1666666667 493.333333333 81.3333333333 471 72 443 c 1
 72 393.666666667 86.5 346.166666667 115.5 300.5 c 128
 144.5 254.833333333 182.666666667 232 230 232 c 0
 266 232 292.666666667 245.666666667 310 273 c 128
 327.333333333 300.333333333 336 335 336 377 c 0
EndSplineSet
EndChar

StartChar: u0B93
Encoding: 51 2963 51
Width: 1434
Flags: HW
AnchorPoint: "V" 584 932 basechar 0
AnchorPoint: "N" 584 -512 basechar 0
LayerCount: 2
Fore
SplineSet
1168 436 m 0
 1168 370.666666667 1158.16666667 313.666666667 1138.5 265 c 128
 1118.83333333 216.333333333 1090.33333333 178.833333333 1053 152.5 c 128
 1015.66666667 126.166666667 973.333333333 113 926 113 c 0
 858 113 812 134.166666667 788 176.5 c 128
 764 218.833333333 752 275.333333333 752 346 c 1
 744.666666667 319.333333333 739 294.666666667 735 272 c 128
 731 249.333333333 729 229.666666667 729 213 c 0
 729 151 749 108.333333333 789 85 c 0
 811 72.3333333333 836 62.8333333333 864 56.5 c 128
 892 50.1666666667 925 47 963 47 c 2
 1118 47 l 1
 1118 -33 l 1
 1004 -33 l 2
 976.666666667 -33 954.166666667 -40.5 936.5 -55.5 c 128
 918.833333333 -70.5 904.666666667 -91 894 -117 c 128
 883.333333333 -143 872 -177.333333333 860 -220 c 2
 830 -318 l 1
 784 -447.333333333 677.333333333 -512 510 -512 c 0
 439.333333333 -512 377.666666667 -500.5 325 -477.5 c 128
 272.333333333 -454.5 232 -423 204 -383 c 128
 176 -343 162 -298 162 -248 c 0
 162 -182 179.833333333 -128 215.5 -86 c 128
 251.166666667 -44 301.666666667 -23 367 -23 c 0
 433.666666667 -23 485.833333333 -38.6666666667 523.5 -70 c 128
 561.166666667 -101.333333333 580 -139.666666667 580 -185 c 0
 580 -244.333333333 557.333333333 -292 512 -328 c 1
 439 -291 l 1
 469 -261 484 -227.666666667 484 -191 c 0
 484 -165 473.833333333 -143.5 453.5 -126.5 c 128
 433.166666667 -109.5 405 -101 369 -101 c 0
 328.333333333 -101 295.666666667 -113.5 271 -138.5 c 128
 246.333333333 -163.5 234 -200 234 -248 c 0
 234 -299.333333333 260 -344.333333333 312 -383 c 128
 364 -421.666666667 435.666666667 -441 527 -441 c 0
 571.666666667 -441 607.166666667 -431.833333333 633.5 -413.5 c 128
 659.833333333 -395.166666667 678.833333333 -372.166666667 690.5 -344.5 c 128
 702.166666667 -316.833333333 711.666666667 -286 719 -252 c 2
 742 -135 l 2
 758 -65 790.666666667 -22 840 -6 c 1
 784.666666667 6.66666666667 743.833333333 33.8333333333 717.5 75.5 c 128
 691.166666667 117.166666667 678 166.333333333 678 223 c 0
 678 289 693 353.666666667 723 417 c 128
 753 480.333333333 786.666666667 518.333333333 824 531 c 1
 860 508 l 1
 823.333333333 476.666666667 805 427 805 359 c 0
 805 320.333333333 812.5 287.666666667 827.5 261 c 128
 842.5 234.333333333 862.333333333 221 887 221 c 0
 971.666666667 221 1014 290.666666667 1014 430 c 0
 1014 509.333333333 991.5 580.666666667 946.5 644 c 128
 901.5 707.333333333 843.5 757.5 772.5 794.5 c 128
 701.5 831.5 629 850 555 850 c 0
 429.666666667 850 325 825.166666667 241 775.5 c 128
 157 725.833333333 102.666666667 649.666666667 78 547 c 1
 112.666666667 593.666666667 168.666666667 617 246 617 c 0
 318.666666667 617 377.5 594.833333333 422.5 550.5 c 128
 467.5 506.166666667 490 449.666666667 490 381 c 0
 490 303.666666667 471.833333333 241.333333333 435.5 194 c 128
 399.166666667 146.666666667 346.333333333 123 277 123 c 0
 192.333333333 123 125 154.5 75 217.5 c 128
 25 280.5 0 356.333333333 0 445 c 0
 0 592.333333333 47.6666666667 708.666666667 143 794 c 128
 238.333333333 879.333333333 382 922 574 922 c 0
 673.333333333 922 760.666666667 908.833333333 836 882.5 c 128
 911.333333333 856.166666667 973.333333333 820.666666667 1022 776 c 128
 1070.66666667 731.333333333 1107.16666667 679.5 1131.5 620.5 c 128
 1155.83333333 561.5 1168 500 1168 436 c 0
336 377 m 0
 336 404.333333333 331.166666667 429.833333333 321.5 453.5 c 128
 311.833333333 477.166666667 297.166666667 496.666666667 277.5 512 c 128
 257.833333333 527.333333333 235.666666667 535 211 535 c 0
 176.333333333 535 146.833333333 526.666666667 122.5 510 c 128
 98.1666666667 493.333333333 81.3333333333 471 72 443 c 1
 72 393.666666667 86.5 346.166666667 115.5 300.5 c 128
 144.5 254.833333333 182.666666667 232 230 232 c 0
 266 232 292.666666667 245.666666667 310 273 c 128
 327.333333333 300.333333333 336 335 336 377 c 0
EndSplineSet
EndChar

StartChar: u0B95
Encoding: 53 2965 53
Width: 1270
Flags: HW
AnchorPoint: "V" 522.5 932 basechar 0
AnchorPoint: "N" 522.5 6.77083 basechar 0
LayerCount: 2
Fore
SplineSet
1065 248 m 0
 1065 168.666666667 1042 107.5 996 64.5 c 128
 950 21.5 889 0 813 0 c 0
 687.666666667 0 614.666666667 36.3333333333 594 109 c 1
 571.333333333 81.6666666667 534.333333333 56.6666666667 483 34 c 128
 431.666666667 11.3333333333 376.666666667 0 318 0 c 0
 221.333333333 0 144.166666667 24.1666666667 86.5 72.5 c 128
 28.8333333333 120.833333333 0 193 0 289 c 0
 0 341 11.3333333333 385.333333333 34 422 c 128
 56.6666666667 458.666666667 83 486 113 504 c 128
 143 522 167.666666667 531 187 531 c 1
 187 922 l 1
 852 922 l 1
 852 850 l 1
 647 850 l 1
 647 533 l 1
 732.333333333 533 804.5 527.166666667 863.5 515.5 c 128
 922.5 503.833333333 970.833333333 477.166666667 1008.5 435.5 c 128
 1046.16666667 393.833333333 1065 331.333333333 1065 248 c 0
494 533 m 1
 494 850 l 1
 258 850 l 1
 258 533 l 1
 494 533 l 1
922 244 m 0
 922 308.666666667 910.333333333 357 887 389 c 128
 863.666666667 421 833.833333333 441 797.5 449 c 128
 761.166666667 457 711 461 647 461 c 1
 647 217 l 2
 647 167.666666667 657.166666667 131.166666667 677.5 107.5 c 128
 697.833333333 83.8333333333 731.333333333 72 778 72 c 0
 817.333333333 72 851.166666667 86.5 879.5 115.5 c 128
 907.833333333 144.5 922 187.333333333 922 244 c 0
494 211 m 2
 494 461 l 1
 226 461 l 2
 206.666666667 461 185 455 161 443 c 128
 137 431 116.166666667 410.666666667 98.5 382 c 128
 80.8333333333 353.333333333 72 316.333333333 72 271 c 0
 72 138.333333333 146.333333333 72 295 72 c 0
 310.333333333 72 324.166666667 73.3333333333 336.5 76 c 128
 348.833333333 78.6666666667 364 84 382 92 c 0
 413.333333333 105.333333333 439.833333333 122.833333333 461.5 144.5 c 128
 483.166666667 166.166666667 494 188.333333333 494 211 c 2
EndSplineSet
EndChar

StartChar: u0B95_u0BBF
Encoding: 54 -1 54
Width: 1495
Flags: HW
AnchorPoint: "V" 522.5 1474.86 basechar 0
AnchorPoint: "N" 522.5 6.77083 basechar 0
LayerCount: 2
Fore
SplineSet
1290 0 m 1
 1229 0 l 1
 1229 926 l 2
 1229 984.666666667 1215.33333333 1038.5 1188 1087.5 c 128
 1160.66666667 1136.5 1122.33333333 1179.33333333 1073 1216 c 128
 1023.66666667 1252.66666667 965.333333333 1281 898 1301 c 128
 830.666666667 1321 758 1331 680 1331 c 0
 543.333333333 1331 429.333333333 1312.83333333 338 1276.5 c 128
 246.666666667 1240.16666667 179.5 1189.33333333 136.5 1124 c 128
 93.5 1058.66666667 72 983.666666667 72 899 c 0
 72 835.666666667 81.8333333333 774 101.5 714 c 128
 121.166666667 654 149.666666667 606.666666667 187 572 c 1
 187 922 l 1
 852 922 l 1
 852 850 l 1
 647 850 l 1
 647 533 l 1
 732.333333333 533 804.5 527.166666667 863.5 515.5 c 128
 922.5 503.833333333 970.833333333 477.166666667 1008.5 435.5 c 128
 1046.16666667 393.833333333 1065 331.333333333 1065 248 c 0
 1065 168.666666667 1042 107.5 996 64.5 c 128
 950 21.5 889 0 813 0 c 0
 687.666666667 0 614.666666667 36.3333333333 594 109 c 1
 571.333333333 81.6666666667 534.333333333 56.6666666667 483 34 c 128
 431.666666667 11.3333333333 376.666666667 0 318 0 c 0
 221.333333333 0 144.166666667 24.1666666667 86.5 72.5 c 128
 28.8333333333 120.833333333 0 193 0 289 c 0
 0 349 15 398.833333333 45 438.5 c 128
 75 478.166666667 108.666666667 505.333333333 146 520 c 1
 48.6666666667 601.333333333 0 724.333333333 0 889 c 0
 0 997.666666667 23 1097 69 1187 c 128
 115 1277 188.833333333 1349.16666667 290.5 1403.5 c 128
 392.166666667 1457.83333333 521.333333333 1485 678 1485 c 0
 818 1485 933.166666667 1463.66666667 1023.5 1421 c 128
 1113.83333333 1378.33333333 1180.83333333 1314.16666667 1224.5 1228.5 c 128
 1268.16666667 1142.83333333 1290 1037.33333333 1290 912 c 2
 1290 0 l 1
494 533 m 1
 494 850 l 1
 258 850 l 1
 258 533 l 1
 494 533 l 1
922 244 m 0
 922 308.666666667 910.333333333 357 887 389 c 128
 863.666666667 421 833.833333333 441 797.5 449 c 128
 761.166666667 457 711 461 647 461 c 1
 647 217 l 2
 647 167.666666667 657.166666667 131.166666667 677.5 107.5 c 128
 697.833333333 83.8333333333 731.333333333 72 778 72 c 0
 817.333333333 72 851.166666667 86.5 879.5 115.5 c 128
 907.833333333 144.5 922 187.333333333 922 244 c 0
494 211 m 2
 494 461 l 1
 226 461 l 2
 206.666666667 461 185 455 161 443 c 128
 137 431 116.166666667 410.666666667 98.5 382 c 128
 80.8333333333 353.333333333 72 316.333333333 72 271 c 0
 72 138.333333333 146.333333333 72 295 72 c 0
 310.333333333 72 324.166666667 73.3333333333 336.5 76 c 128
 348.833333333 78.6666666667 364 84 382 92 c 0
 413.333333333 105.333333333 439.833333333 122.833333333 461.5 144.5 c 128
 483.166666667 166.166666667 494 188.333333333 494 211 c 2
EndSplineSet
EndChar

StartChar: u0B95_u0BC0
Encoding: 55 -1 55
Width: 1270
Flags: HW
AnchorPoint: "V" 522.5 1524.36 basechar 0
AnchorPoint: "N" 522.5 6.77083 basechar 0
LayerCount: 2
Fore
SplineSet
920 1233 m 0
 920 1271.66666667 906.5 1305.33333333 879.5 1334 c 128
 852.5 1362.66666667 818 1377 776 1377 c 1
 740.666666667 1370.33333333 712.166666667 1353.16666667 690.5 1325.5 c 128
 668.833333333 1297.83333333 658 1266.33333333 658 1231 c 0
 658 1207 663.5 1185 674.5 1165 c 128
 685.5 1145 700.833333333 1128.83333333 720.5 1116.5 c 128
 740.166666667 1104.16666667 761.666666667 1098 785 1098 c 0
 821.666666667 1098 853.333333333 1111.33333333 880 1138 c 128
 906.666666667 1164.66666667 920 1196.33333333 920 1233 c 0
494 533 m 1
 494 850 l 1
 258 850 l 1
 258 533 l 1
 494 533 l 1
922 244 m 0
 922 308.666666667 910.333333333 357 887 389 c 128
 863.666666667 421 833.833333333 441 797.5 449 c 128
 761.166666667 457 711 461 647 461 c 1
 647 217 l 2
 647 167.666666667 657.166666667 131.166666667 677.5 107.5 c 128
 697.833333333 83.8333333333 731.333333333 72 778 72 c 0
 817.333333333 72 851.166666667 86.5 879.5 115.5 c 128
 907.833333333 144.5 922 187.333333333 922 244 c 0
494 211 m 2
 494 461 l 1
 226 461 l 2
 206.666666667 461 185 455 161 443 c 128
 137 431 116.166666667 410.666666667 98.5 382 c 128
 80.8333333333 353.333333333 72 316.333333333 72 271 c 0
 72 138.333333333 146.333333333 72 295 72 c 0
 310.333333333 72 324.166666667 73.3333333333 336.5 76 c 128
 348.833333333 78.6666666667 364 84 382 92 c 0
 413.333333333 105.333333333 439.833333333 122.833333333 461.5 144.5 c 128
 483.166666667 166.166666667 494 188.333333333 494 211 c 2
146 520 m 1
 48.6666666667 601.333333333 0 724.333333333 0 889 c 0
 0 983 16.1666666667 1070 48.5 1150 c 128
 80.8333333333 1230 126.5 1298.66666667 185.5 1356 c 128
 244.5 1413.33333333 314.5 1457.66666667 395.5 1489 c 128
 476.5 1520.33333333 564 1536 658 1536 c 0
 758.666666667 1536 847.666666667 1515 925 1473 c 128
 1002.33333333 1431 1041 1358.66666667 1041 1256 c 0
 1041 1192.66666667 1019.16666667 1139.83333333 975.5 1097.5 c 128
 931.833333333 1055.16666667 875 1034 805 1034 c 0
 739 1034 686.666666667 1053.66666667 648 1093 c 128
 609.333333333 1132.33333333 590 1179 590 1233 c 0
 590 1268.33333333 598.166666667 1302.66666667 614.5 1336 c 128
 630.833333333 1369.33333333 652 1393.66666667 678 1409 c 1
 652 1413 626.666666667 1415 602 1415 c 0
 498 1415 405.833333333 1389.5 325.5 1338.5 c 128
 245.166666667 1287.5 182.833333333 1221.83333333 138.5 1141.5 c 128
 94.1666666667 1061.16666667 72 980.333333333 72 899 c 0
 72 835.666666667 81.8333333333 774 101.5 714 c 128
 121.166666667 654 149.666666667 606.666666667 187 572 c 1
 187 922 l 1
 852 922 l 1
 852 850 l 1
 647 850 l 1
 647 533 l 1
 732.333333333 533 804.5 527.166666667 863.5 515.5 c 128
 922.5 503.833333333 970.833333333 477.166666667 1008.5 435.5 c 128
 1046.16666667 393.833333333 1065 331.333333333 1065 248 c 0
 1065 168.666666667 1042 107.5 996 64.5 c 128
 950 21.5 889 0 813 0 c 0
 687.666666667 0 614.666666667 36.3333333333 594 109 c 1
 571.333333333 81.6666666667 534.333333333 56.6666666667 483 34 c 128
 431.666666667 11.3333333333 376.666666667 0 318 0 c 0
 221.333333333 0 144.166666667 24.1666666667 86.5 72.5 c 128
 28.8333333333 120.833333333 0 193 0 289 c 0
 0 349 15 398.833333333 45 438.5 c 128
 75 478.166666667 108.666666667 505.333333333 146 520 c 1
EndSplineSet
EndChar

StartChar: u0B95_u0BC1
Encoding: 56 -1 56
Width: 1608
Flags: HW
AnchorPoint: "V" 522.5 932 basechar 0
AnchorPoint: "N" 522.5 6.77083 basechar 0
LayerCount: 2
Fore
SplineSet
975 461 m 1
 975 217 l 2
 975 187.666666667 961.333333333 156.166666667 934 122.5 c 128
 906.666666667 88.8333333333 867.833333333 60 817.5 36 c 128
 767.166666667 12 709.666666667 0 645 0 c 0
 548.333333333 0 471.333333333 24.1666666667 414 72.5 c 128
 356.666666667 120.833333333 328 193 328 289 c 0
 328 341 339.333333333 385.333333333 362 422 c 128
 384.666666667 458.666666667 410.833333333 486 440.5 504 c 128
 470.166666667 522 494.666666667 531 514 531 c 1
 514 922 l 1
 1180 922 l 1
 1180 850 l 1
 975 850 l 1
 975 533 l 1
 1069.66666667 533 1148.33333333 523.5 1211 504.5 c 128
 1273.66666667 485.5 1321.33333333 452.5 1354 405.5 c 128
 1386.66666667 358.5 1403 294.333333333 1403 213 c 0
 1403 89.6666666667 1384.16666667 -17 1346.5 -107 c 128
 1308.83333333 -197 1238 -270 1134 -326 c 128
 1030 -382 884.333333333 -410 697 -410 c 0
 543 -410 413.833333333 -380.666666667 309.5 -322 c 128
 205.166666667 -263.333333333 127.333333333 -180 76 -72 c 0
 50.6666666667 -17.3333333333 31.6666666667 40.8333333333 19 102.5 c 128
 6.33333333333 164.166666667 0 232.333333333 0 307 c 0
 0 392.333333333 8.66666666667 475.333333333 26 556 c 0
 34 594 44.3333333333 631.333333333 57 668 c 128
 69.6666666667 704.666666667 84 738.666666667 100 770 c 0
 131.333333333 832 168.333333333 882.666666667 211 922 c 1
 256 881 l 1
 194.666666667 819.666666667 148.666666667 738 118 636 c 128
 87.3333333333 534 72 422.333333333 72 301 c 0
 72 180.333333333 95.1666666667 71.5 141.5 -25.5 c 128
 187.833333333 -122.5 257.166666667 -198.833333333 349.5 -254.5 c 128
 441.833333333 -310.166666667 552 -338 680 -338 c 0
 833.333333333 -338 952.166666667 -312.833333333 1036.5 -262.5 c 128
 1120.83333333 -212.166666667 1177.5 -147 1206.5 -67 c 128
 1235.5 13 1250 105 1250 209 c 0
 1250 291.666666667 1229.16666667 354.333333333 1187.5 397 c 128
 1145.83333333 439.666666667 1075 461 975 461 c 1
821 533 m 1
 821 850 l 1
 586 850 l 1
 586 533 l 1
 821 533 l 1
821 211 m 2
 821 461 l 1
 553 461 l 2
 535 461 513.333333333 455 488 443 c 0
 464 430.333333333 443.333333333 409.833333333 426 381.5 c 128
 408.666666667 353.166666667 400 316.333333333 400 271 c 0
 400 138.333333333 474.333333333 72 623 72 c 0
 649.666666667 72 678.666666667 78.6666666667 710 92 c 128
 741.333333333 105.333333333 767.666666667 122.666666667 789 144 c 0
 799.666666667 155.333333333 807.666666667 166.333333333 813 177 c 128
 818.333333333 187.666666667 821 199 821 211 c 2
EndSplineSet
EndChar

StartChar: u0B95_u0BC2
Encoding: 57 -1 57
Width: 1925
VWidth: 1462
Flags: HW
AnchorPoint: "V" 522.5 932 basechar 0
AnchorPoint: "N" 522.5 6.77083 basechar 0
LayerCount: 2
Fore
SplineSet
227.857421875 463.571289062 m 0
 178.571289062 463.571289062 75 421.428710938 75 274.286132812 c 0
 75 142.142578125 149.286132812 75.7138671875 297.857421875 75.7138671875 c 0
 390.713867188 75.7138671875 494.286132812 149.286132812 495.713867188 213.571289062 c 0
 495.713867188 463.571289062 l 0
 227.857421875 463.571289062 l 0
495.713867188 535 m 0
 495.713867188 851.428710938 l 0
 260 851.428710938 l 0
 260 535 l 0
 495.713867188 535 l 0
876.428710938 70.7138671875 m 0
 921.428710938 70.7138671875 989.286132812 102.142578125 989.286132812 263.571289062 c 0
 989.286132812 357.142578125 921.428710938 428.571289062 875 442.857421875 c 0
 832.142578125 407.142578125 773.571289062 377.142578125 773.571289062 225 c 0
 773.571289062 92.857421875 841.428710938 70.7138671875 876.428710938 70.7138671875 c 0
650 535 m 0
 880 535 l 0
 920 557.857421875 1000 594.286132812 1101.42871094 594.286132812 c 0
 1440.71386719 594.286132812 1467.85742188 375 1467.85742188 310 c 0
 1467.85742188 197.142578125 1385.71386719 117.142578125 1315.71386719 70.7138671875 c 0
 1643.57128906 70.7138671875 l 0
 1643.57128906 -0.7138671875 l 0
 1105 -0.7138671875 l 0
 1105 70.7138671875 l 0
 1230 140 1314.28613281 217.857421875 1314.28613281 301.428710938 c 0
 1314.28613281 435.713867188 1231.42871094 510.713867188 1122.85742188 510.713867188 c 0
 1085 510.713867188 1004.28613281 510.713867188 968.571289062 485.713867188 c 0
 1010 444.286132812 1100 392.142578125 1100 235.713867188 c 0
 1100 118.571289062 1018.57128906 -1.4287109375 902.142578125 -1.4287109375 c 0
 826.428710938 -1.4287109375 702.857421875 37.142578125 702.857421875 214.286132812 c 0
 702.857421875 382.857421875 785.713867188 461.428710938 785.713867188 461.428710938 c 0
 649.286132812 461.428710938 l 0
 649.286132812 217.857421875 l 0
 649.286132812 104.286132812 482.857421875 2.142578125 321.428710938 2.142578125 c 0
 134.286132812 2.142578125 3.5712890625 93.5712890625 3.5712890625 290.713867188 c 0
 3.5712890625 465.713867188 143.571289062 532.142578125 190 532.142578125 c 0
 190 922.857421875 l 0
 855 922.857421875 l 0
 855 851.428710938 l 0
 650 851.428710938 l 0
 650 535 l 0
EndSplineSet
EndChar

StartChar: u0B95_u0BC2.old
Encoding: 58 -1 58
Width: 1925
Flags: HW
AnchorPoint: "V" 522.5 932 basechar 0
AnchorPoint: "N" 522.5 6.77083 basechar 0
LayerCount: 2
Fore
SplineSet
983 471 m 1
 1015 523 1104 549 1250 549 c 0
 1328 549 1396.83333333 528.5 1456.5 487.5 c 128
 1516.16666667 446.5 1546 388 1546 312 c 0
 1546 261.333333333 1530.83333333 215.5 1500.5 174.5 c 128
 1470.16666667 133.5 1434.33333333 99.3333333333 1393 72 c 1
 1721 72 l 1
 1721 0 l 1
 1182 0 l 1
 1182 72 l 1
 1307.33333333 141.333333333 1370 217.666666667 1370 301 c 0
 1370 331.666666667 1362.5 359 1347.5 383 c 128
 1332.5 407 1311.66666667 426.333333333 1285 441 c 128
 1258.33333333 455.666666667 1228.66666667 463 1196 463 c 0
 1170 463 1146.5 461 1125.5 457 c 128
 1104.5 453 1084.66666667 446.333333333 1066 437 c 0
 1032 420.333333333 1011.33333333 398.333333333 1004 371 c 1
 1004 0 l 1
 850 0 l 1
 850 461 l 1
 647 461 l 1
 647 217 l 2
 647 179.666666667 631 144.5 599 111.5 c 128
 567 78.5 525 51.6666666667 473 31 c 128
 421 10.3333333333 369.333333333 0 318 0 c 0
 221.333333333 0 144.166666667 24.1666666667 86.5 72.5 c 128
 28.8333333333 120.833333333 0 193 0 289 c 0
 0 341 11.3333333333 385.333333333 34 422 c 128
 56.6666666667 458.666666667 83 486 113 504 c 128
 143 522 167.666666667 531 187 531 c 1
 187 922 l 1
 852 922 l 1
 852 850 l 1
 647 850 l 1
 647 533 l 1
 899 533 l 2
 914.333333333 533 930.333333333 527.666666667 947 517 c 0
 965 507 977 491.666666667 983 471 c 1
494 533 m 1
 494 850 l 1
 258 850 l 1
 258 533 l 1
 494 533 l 1
494 211 m 2
 494 461 l 1
 226 461 l 2
 206.666666667 461 185 455 161 443 c 128
 137 431 116.166666667 410.666666667 98.5 382 c 128
 80.8333333333 353.333333333 72 316.333333333 72 271 c 0
 72 138.333333333 146.333333333 72 295 72 c 0
 310.333333333 72 324.166666667 73.3333333333 336.5 76 c 128
 348.833333333 78.6666666667 364 84 382 92 c 0
 413.333333333 105.333333333 439.833333333 122.833333333 461.5 144.5 c 128
 483.166666667 166.166666667 494 188.333333333 494 211 c 2
EndSplineSet
EndChar

StartChar: u0B95_u0BCD
Encoding: 59 -1 59
Width: 1270
Flags: HW
AnchorPoint: "N" 522.5 6.77083 basechar 0
LayerCount: 2
Fore
SplineSet
639 1192 m 0
 639 1160.66666667 627.333333333 1133.33333333 604 1110 c 128
 580.666666667 1086.66666667 553.333333333 1075 522 1075 c 0
 491.333333333 1075 464.333333333 1086.66666667 441 1110 c 128
 417.666666667 1133.33333333 406 1160.66666667 406 1192 c 0
 406 1224 417.5 1251.5 440.5 1274.5 c 128
 463.5 1297.5 490.666666667 1309 522 1309 c 0
 554 1309 581.5 1297.5 604.5 1274.5 c 128
 627.5 1251.5 639 1224 639 1192 c 0
1065 248 m 0
 1065 168.666666667 1042 107.5 996 64.5 c 128
 950 21.5 889 0 813 0 c 0
 687.666666667 0 614.666666667 36.3333333333 594 109 c 1
 571.333333333 81.6666666667 534.333333333 56.6666666667 483 34 c 128
 431.666666667 11.3333333333 376.666666667 0 318 0 c 0
 221.333333333 0 144.166666667 24.1666666667 86.5 72.5 c 128
 28.8333333333 120.833333333 0 193 0 289 c 0
 0 341 11.3333333333 385.333333333 34 422 c 128
 56.6666666667 458.666666667 83 486 113 504 c 128
 143 522 167.666666667 531 187 531 c 1
 187 922 l 1
 852 922 l 1
 852 850 l 1
 647 850 l 1
 647 533 l 1
 732.333333333 533 804.5 527.166666667 863.5 515.5 c 128
 922.5 503.833333333 970.833333333 477.166666667 1008.5 435.5 c 128
 1046.16666667 393.833333333 1065 331.333333333 1065 248 c 0
494 533 m 1
 494 850 l 1
 258 850 l 1
 258 533 l 1
 494 533 l 1
922 244 m 0
 922 308.666666667 910.333333333 357 887 389 c 128
 863.666666667 421 833.833333333 441 797.5 449 c 128
 761.166666667 457 711 461 647 461 c 1
 647 217 l 2
 647 167.666666667 657.166666667 131.166666667 677.5 107.5 c 128
 697.833333333 83.8333333333 731.333333333 72 778 72 c 0
 817.333333333 72 851.166666667 86.5 879.5 115.5 c 128
 907.833333333 144.5 922 187.333333333 922 244 c 0
494 211 m 2
 494 461 l 1
 226 461 l 2
 206.666666667 461 185 455 161 443 c 128
 137 431 116.166666667 410.666666667 98.5 382 c 128
 80.8333333333 353.333333333 72 316.333333333 72 271 c 0
 72 138.333333333 146.333333333 72 295 72 c 0
 310.333333333 72 324.166666667 73.3333333333 336.5 76 c 128
 348.833333333 78.6666666667 364 84 382 92 c 0
 413.333333333 105.333333333 439.833333333 122.833333333 461.5 144.5 c 128
 483.166666667 166.166666667 494 188.333333333 494 211 c 2
EndSplineSet
EndChar

StartChar: u0B99
Encoding: 60 2969 60
Width: 1434
Flags: HW
AnchorPoint: "V" 610.5 932 basechar 0
AnchorPoint: "N" 610.5 0 basechar 0
LayerCount: 2
Fore
SplineSet
1229 0 m 1
 307 0 l 1
 307 62 l 1
 545 62 l 1
 598.333333333 83.3333333333 638.666666667 119 666 169 c 128
 693.333333333 219 707 276 707 340 c 0
 707 395.333333333 692.833333333 437.833333333 664.5 467.5 c 128
 636.166666667 497.166666667 603 512 565 512 c 0
 541.666666667 512 520.166666667 505 500.5 491 c 128
 480.833333333 477 467.666666667 456.666666667 461 430 c 1
 461 266 l 1
 307 266 l 1
 307 850 l 1
 72 850 l 1
 72 0 l 1
 0 0 l 1
 0 922 l 1
 666 922 l 1
 666 850 l 1
 461 850 l 1
 461 547 l 1
 493 588.333333333 539.333333333 609 600 609 c 0
 640 609 679.333333333 598.5 718 577.5 c 128
 756.666666667 556.5 788.333333333 524.666666667 813 482 c 128
 837.666666667 439.333333333 850 389.333333333 850 332 c 0
 850 263.333333333 837.166666667 206.166666667 811.5 160.5 c 128
 785.833333333 114.833333333 750.333333333 82 705 62 c 1
 1086 62 l 1
 1086 922 l 1
 1229 922 l 1
 1229 0 l 1
EndSplineSet
EndChar

StartChar: u0B99_u0BBF
Encoding: 61 -1 61
Width: 1628
Flags: HW
AnchorPoint: "V" 610.5 932 basechar 0
AnchorPoint: "N" 610.5 0 basechar 0
LayerCount: 2
Fore
SplineSet
1424 0 m 1
 1362 0 l 1
 1362 1034 l 2
 1362 1128 1342.83333333 1197.66666667 1304.5 1243 c 128
 1266.16666667 1288.33333333 1202 1311 1112 1311 c 0
 1048 1311 993.5 1291.33333333 948.5 1252 c 128
 903.5 1212.66666667 881 1156.66666667 881 1084 c 0
 881 1018 896.666666667 969.333333333 928 938 c 0
 944 922 962.5 909.833333333 983.5 901.5 c 128
 1004.5 893.166666667 1028.33333333 889 1055 889 c 1
 1055 922 l 1
 1198 922 l 1
 1198 0 l 1
 307 0 l 1
 307 62 l 1
 545 62 l 1
 598.333333333 83.3333333333 638.666666667 119 666 169 c 128
 693.333333333 219 707 276 707 340 c 0
 707 395.333333333 692.833333333 437.833333333 664.5 467.5 c 128
 636.166666667 497.166666667 603 512 565 512 c 0
 541.666666667 512 520.166666667 505 500.5 491 c 128
 480.833333333 477 467.666666667 456.666666667 461 430 c 1
 461 266 l 1
 307 266 l 1
 307 850 l 1
 72 850 l 1
 72 0 l 1
 0 0 l 1
 0 922 l 1
 666 922 l 1
 666 850 l 1
 461 850 l 1
 461 547 l 1
 493 588.333333333 539.333333333 609 600 609 c 0
 640 609 679.333333333 598.5 718 577.5 c 128
 756.666666667 556.5 788.333333333 524.666666667 813 482 c 128
 837.666666667 439.333333333 850 389.333333333 850 332 c 0
 850 263.333333333 837.166666667 206.166666667 811.5 160.5 c 128
 785.833333333 114.833333333 750.333333333 82 705 62 c 1
 1055 62 l 1
 1055 817 l 1
 1008.33333333 817 965.5 827.666666667 926.5 849 c 128
 887.5 870.333333333 856.5 902.833333333 833.5 946.5 c 128
 810.5 990.166666667 799 1044.66666667 799 1110 c 0
 799 1220 826.833333333 1304.83333333 882.5 1364.5 c 128
 938.166666667 1424.16666667 1015.33333333 1454 1114 1454 c 0
 1222.66666667 1454 1301.5 1420.33333333 1350.5 1353 c 128
 1399.5 1285.66666667 1424 1187 1424 1057 c 2
 1424 0 l 1
EndSplineSet
EndChar

StartChar: u0B99_u0BC0
Encoding: 62 -1 62
Width: 1628
Flags: HW
AnchorPoint: "V" 610.5 932 basechar 0
AnchorPoint: "N" 610.5 0 basechar 0
LayerCount: 2
Fore
SplineSet
1086 811 m 1
 1053.33333333 811 1020.16666667 822.5 986.5 845.5 c 128
 952.833333333 868.5 925.166666667 903 903.5 949 c 128
 881.833333333 995 871 1049.33333333 871 1112 c 0
 871 1200 891.333333333 1272 932 1328 c 128
 972.666666667 1384 1023.16666667 1424.5 1083.5 1449.5 c 128
 1143.83333333 1474.5 1204.66666667 1487 1266 1487 c 0
 1366 1487 1454.83333333 1466 1532.5 1424 c 128
 1610.16666667 1382 1649 1309.66666667 1649 1207 c 0
 1649 1143.66666667 1627.16666667 1090.83333333 1583.5 1048.5 c 128
 1539.83333333 1006.16666667 1483 985 1413 985 c 0
 1347 985 1294.66666667 1004.66666667 1256 1044 c 128
 1217.33333333 1083.33333333 1198 1130 1198 1184 c 0
 1198 1218 1206 1252.16666667 1222 1286.5 c 128
 1238 1320.83333333 1259.33333333 1345.33333333 1286 1360 c 1
 1260 1364 1235 1366 1211 1366 c 0
 1162.33333333 1366 1118.16666667 1352.5 1078.5 1325.5 c 128
 1038.83333333 1298.5 1007.66666667 1263.33333333 985 1220 c 128
 962.333333333 1176.66666667 951 1132.66666667 951 1088 c 0
 951 1018.66666667 964.5 963.666666667 991.5 923 c 128
 1018.5 882.333333333 1050 862 1086 862 c 1
 1086 922 l 1
 1239 922 l 1
 1239 0 l 1
 307 0 l 1
 307 62 l 1
 545 62 l 1
 598.333333333 83.3333333333 638.666666667 119 666 169 c 128
 693.333333333 219 707 276 707 340 c 0
 707 395.333333333 692.833333333 437.833333333 664.5 467.5 c 128
 636.166666667 497.166666667 603 512 565 512 c 0
 541.666666667 512 520.166666667 505 500.5 491 c 128
 480.833333333 477 467.666666667 456.666666667 461 430 c 1
 461 266 l 1
 307 266 l 1
 307 850 l 1
 72 850 l 1
 72 0 l 1
 0 0 l 1
 0 922 l 1
 666 922 l 1
 666 850 l 1
 461 850 l 1
 461 547 l 1
 493 588.333333333 539.333333333 609 600 609 c 0
 640 609 679.333333333 598.5 718 577.5 c 128
 756.666666667 556.5 788.333333333 524.666666667 813 482 c 128
 837.666666667 439.333333333 850 389.333333333 850 332 c 0
 850 263.333333333 837.166666667 206.166666667 811.5 160.5 c 128
 785.833333333 114.833333333 750.333333333 82 705 62 c 1
 1086 62 l 1
 1086 811 l 1
1528 1184 m 0
 1528 1224 1514.5 1257.83333333 1487.5 1285.5 c 128
 1460.5 1313.16666667 1426.33333333 1327 1385 1327 c 1
 1349.66666667 1319.66666667 1321 1302.5 1299 1275.5 c 128
 1277 1248.5 1266 1217.33333333 1266 1182 c 256
 1266 1146.66666667 1278.33333333 1115.66666667 1303 1089 c 128
 1327.66666667 1062.33333333 1357.66666667 1049 1393 1049 c 0
 1429.66666667 1049 1461.33333333 1062.16666667 1488 1088.5 c 128
 1514.66666667 1114.83333333 1528 1146.66666667 1528 1184 c 0
EndSplineSet
EndChar

StartChar: u0B99_u0BC1
Encoding: 63 -1 63
Width: 1434
Flags: HW
AnchorPoint: "V" 610.5 932 basechar 0
AnchorPoint: "N" 610.5 0 basechar 0
LayerCount: 2
Fore
SplineSet
1229 -277 m 1
 1086 -277 l 1
 1086 0 l 1
 307 0 l 1
 307 62 l 1
 545 62 l 1
 598.333333333 83.3333333333 638.666666667 119 666 169 c 128
 693.333333333 219 707 276 707 340 c 0
 707 395.333333333 692.833333333 437.833333333 664.5 467.5 c 128
 636.166666667 497.166666667 603 512 565 512 c 0
 541.666666667 512 520.166666667 505 500.5 491 c 128
 480.833333333 477 467.666666667 456.666666667 461 430 c 1
 461 266 l 1
 307 266 l 1
 307 850 l 1
 72 850 l 1
 72 0 l 1
 0 0 l 1
 0 922 l 1
 666 922 l 1
 666 850 l 1
 461 850 l 1
 461 547 l 1
 493 588.333333333 539.333333333 609 600 609 c 0
 640 609 679.333333333 598.5 718 577.5 c 128
 756.666666667 556.5 788.333333333 524.666666667 813 482 c 128
 837.666666667 439.333333333 850 389.333333333 850 332 c 0
 850 263.333333333 837.166666667 206.166666667 811.5 160.5 c 128
 785.833333333 114.833333333 750.333333333 82 705 62 c 1
 1086 62 l 1
 1086 922 l 1
 1229 922 l 1
 1229 -277 l 1
EndSplineSet
EndChar

StartChar: u0B99_u0BC2
Encoding: 64 -1 64
Width: 1895
Flags: HW
AnchorPoint: "V" 610.5 932 basechar 0
AnchorPoint: "N" 610.5 0 basechar 0
LayerCount: 2
Fore
SplineSet
1536 209 m 0
 1536 269 1522 325 1494 377 c 128
 1466 429 1418.66666667 455 1352 455 c 0
 1292.66666667 455 1251.66666667 433.666666667 1229 391 c 1
 1229 -226 l 1
 1086 -226 l 1
 1086 0 l 1
 307 0 l 1
 307 62 l 1
 545 62 l 1
 598.333333333 83.3333333333 638.666666667 119 666 169 c 128
 693.333333333 219 707 276 707 340 c 0
 707 395.333333333 692.833333333 437.833333333 664.5 467.5 c 128
 636.166666667 497.166666667 603 512 565 512 c 0
 541.666666667 512 520.166666667 505 500.5 491 c 128
 480.833333333 477 467.666666667 456.666666667 461 430 c 1
 461 266 l 1
 307 266 l 1
 307 850 l 1
 72 850 l 1
 72 0 l 1
 0 0 l 1
 0 922 l 1
 666 922 l 1
 666 850 l 1
 461 850 l 1
 461 547 l 1
 493 588.333333333 539.333333333 609 600 609 c 0
 640 609 679.333333333 598.5 718 577.5 c 128
 756.666666667 556.5 788.333333333 524.666666667 813 482 c 128
 837.666666667 439.333333333 850 389.333333333 850 332 c 0
 850 263.333333333 837.166666667 206.166666667 811.5 160.5 c 128
 785.833333333 114.833333333 750.333333333 82 705 62 c 1
 1086 62 l 1
 1086 922 l 1
 1229 922 l 1
 1229 482 l 1
 1241.66666667 504 1262.5 521.333333333 1291.5 534 c 128
 1320.5 546.666666667 1351.66666667 553 1385 553 c 0
 1451.66666667 553 1508 536 1554 502 c 128
 1600 468 1634.16666667 424.833333333 1656.5 372.5 c 128
 1678.83333333 320.166666667 1690 267 1690 213 c 0
 1690 65 1657.83333333 -62.8333333333 1593.5 -170.5 c 128
 1529.16666667 -278.166666667 1429.16666667 -362 1293.5 -422 c 128
 1157.83333333 -482 987 -512 781 -512 c 0
 652.333333333 -512 552.5 -490.333333333 481.5 -447 c 128
 410.5 -403.666666667 375 -343.333333333 375 -266 c 0
 375 -202.666666667 393.333333333 -153.166666667 430 -117.5 c 128
 466.666666667 -81.8333333333 519.333333333 -64 588 -64 c 256
 656.666666667 -64 709.666666667 -82.6666666667 747 -120 c 128
 784.333333333 -157.333333333 803 -205.333333333 803 -264 c 0
 803 -297.333333333 794 -329.166666667 776 -359.5 c 128
 758 -389.833333333 734.333333333 -412.666666667 705 -428 c 1
 729 -438 755.666666667 -443 785 -443 c 0
 918.333333333 -443 1034 -424.666666667 1132 -388 c 128
 1230 -351.333333333 1308.5 -302 1367.5 -240 c 128
 1426.5 -178 1469.33333333 -108.666666667 1496 -32 c 128
 1522.66666667 44.6666666667 1536 125 1536 209 c 0
443 -262 m 0
 443 -302.666666667 456.5 -336.833333333 483.5 -364.5 c 128
 510.5 -392.166666667 544.666666667 -406 586 -406 c 1
 621.333333333 -398 650 -380.833333333 672 -354.5 c 128
 694 -328.166666667 705 -296.666666667 705 -260 c 0
 705 -222.666666667 692.833333333 -191.166666667 668.5 -165.5 c 128
 644.166666667 -139.833333333 614 -127 578 -127 c 0
 541.333333333 -127 509.666666667 -140.333333333 483 -167 c 128
 456.333333333 -193.666666667 443 -225.333333333 443 -262 c 0
EndSplineSet
EndChar

StartChar: u0B99_u0BCD
Encoding: 65 -1 65
Width: 1393
Flags: HW
AnchorPoint: "N" 610.5 0 basechar 0
LayerCount: 2
Fore
SplineSet
1229 0 m 1
 307 0 l 1
 307 62 l 1
 545 62 l 1
 598.333333333 83.3333333333 638.666666667 119 666 169 c 128
 693.333333333 219 707 276 707 340 c 0
 707 395.333333333 692.833333333 437.833333333 664.5 467.5 c 128
 636.166666667 497.166666667 603 512 565 512 c 0
 541.666666667 512 520.166666667 505 500.5 491 c 128
 480.833333333 477 467.666666667 456.666666667 461 430 c 1
 461 266 l 1
 307 266 l 1
 307 850 l 1
 72 850 l 1
 72 0 l 1
 0 0 l 1
 0 922 l 1
 666 922 l 1
 666 850 l 1
 461 850 l 1
 461 547 l 1
 493 588.333333333 539.333333333 609 600 609 c 0
 640 609 679.333333333 598.5 718 577.5 c 128
 756.666666667 556.5 788.333333333 524.666666667 813 482 c 128
 837.666666667 439.333333333 850 389.333333333 850 332 c 0
 850 263.333333333 837.166666667 206.166666667 811.5 160.5 c 128
 785.833333333 114.833333333 750.333333333 82 705 62 c 1
 1086 62 l 1
 1086 922 l 1
 1229 922 l 1
 1229 0 l 1
727 1192 m 0
 727 1160.66666667 715.333333333 1133.33333333 692 1110 c 128
 668.666666667 1086.66666667 641.333333333 1075 610 1075 c 0
 579.333333333 1075 552.333333333 1086.66666667 529 1110 c 128
 505.666666667 1133.33333333 494 1160.66666667 494 1192 c 0
 494 1224 505.5 1251.5 528.5 1274.5 c 128
 551.5 1297.5 578.666666667 1309 610 1309 c 0
 642 1309 669.5 1297.5 692.5 1274.5 c 128
 715.5 1251.5 727 1224 727 1192 c 0
EndSplineSet
EndChar

StartChar: u0B99_u0BCD.alt
Encoding: 66 -1 66
Width: 1392
Flags: HW
AnchorPoint: "N" 610.5 0 basechar 0
LayerCount: 2
Fore
SplineSet
1228 0 m 1
 307 0 l 1
 307 61 l 1
 544 61 l 1
 596.666666667 82.3333333333 636.5 117.833333333 663.5 167.5 c 128
 690.5 217.166666667 704 274 704 338 c 0
 704 392 689.666666667 434 661 464 c 128
 632.333333333 494 599.666666667 509 563 509 c 0
 537.666666667 509 515.833333333 502.333333333 497.5 489 c 128
 479.166666667 475.666666667 466.666666667 455.666666667 460 429 c 1
 460 266 l 1
 307 266 l 1
 307 849 l 1
 72 849 l 1
 72 0 l 1
 1 0 l 1
 1 921 l 1
 666 921 l 1
 666 850 l 1
 462 850 l 1
 462 547 l 1
 494.666666667 587.666666667 541 608 601 608 c 0
 665 608 720.666666667 585 768 539 c 0
 822 486.333333333 849 418 849 334 c 0
 849 263.333333333 836.166666667 205.5 810.5 160.5 c 128
 784.833333333 115.5 749.666666667 83.6666666667 705 65 c 1
 1085 65 l 1
 1085 925 l 1
 1228 925 l 1
 1228 0 l 1
727 1195 m 256
 727 1226.33333333 715.5 1253.5 692.5 1276.5 c 128
 669.5 1299.5 642.333333333 1311 611 1311 c 256
 579.666666667 1311 552.5 1299.5 529.5 1276.5 c 128
 506.5 1253.5 495 1226.33333333 495 1195 c 256
 495 1163.66666667 506.5 1136.5 529.5 1113.5 c 128
 552.5 1090.5 579.666666667 1079 611 1079 c 256
 642.333333333 1079 669.5 1090.5 692.5 1113.5 c 128
 715.5 1136.5 727 1163.66666667 727 1195 c 256
611 1387 m 256
 663.666666667 1387 708.666666667 1368.33333333 746 1331 c 128
 783.333333333 1293.66666667 802 1248.66666667 802 1196 c 256
 802 1143.33333333 783.333333333 1098.33333333 746 1061 c 128
 708.666666667 1023.66666667 663.666666667 1005 611 1005 c 256
 558.333333333 1005 513.333333333 1023.66666667 476 1061 c 128
 438.666666667 1098.33333333 420 1143.33333333 420 1196 c 256
 420 1248.66666667 438.666666667 1293.66666667 476 1331 c 128
 513.333333333 1368.33333333 558.333333333 1387 611 1387 c 256
EndSplineSet
EndChar

StartChar: u0B95_u0BB7
Encoding: 67 -1 67
Width: 3062
Flags: HW
AnchorPoint: "V" 522.5 932 basechar 0
AnchorPoint: "N" 522.5 6.77083 basechar 0
LayerCount: 2
Fore
SplineSet
2857 213 m 0
 2857 152.333333333 2839.5 101.666666667 2804.5 61 c 128
 2769.5 20.3333333333 2714 0 2638 0 c 2
 2509 0 l 1
 2509 -441 l 1
 2366 -441 l 1
 2366 0 l 1
 1491 0 l 1
 1609.66666667 120.666666667 1669 260.666666667 1669 420 c 0
 1669 500.666666667 1654.16666667 573.833333333 1624.5 639.5 c 128
 1594.83333333 705.166666667 1552.33333333 756.666666667 1497 794 c 128
 1441.66666667 831.333333333 1378.33333333 850 1307 850 c 0
 1242.33333333 850 1185.66666667 839.833333333 1137 819.5 c 128
 1088.33333333 799.166666667 1049 773.166666667 1019 741.5 c 128
 989 709.833333333 965.666666667 675.166666667 949 637.5 c 128
 932.333333333 599.833333333 924 565 924 533 c 1
 1137 533 l 2
 1306.33333333 533 1391 460.666666667 1391 316 c 0
 1391 223.333333333 1370.16666667 147.5 1328.5 88.5 c 128
 1286.83333333 29.5 1230.33333333 0 1159 0 c 0
 953 0 850 153.666666667 850 461 c 1
 647 461 l 1
 647 217 l 2
 647 179.666666667 631 144.5 599 111.5 c 128
 567 78.5 525 51.6666666667 473 31 c 128
 421 10.3333333333 369.333333333 0 318 0 c 0
 221.333333333 0 144.166666667 24.1666666667 86.5 72.5 c 128
 28.8333333333 120.833333333 0 193 0 289 c 0
 0 341 11.3333333333 385.333333333 34 422 c 128
 56.6666666667 458.666666667 83 486 113 504 c 128
 143 522 167.666666667 531 187 531 c 1
 187 922 l 1
 852 922 l 1
 852 850 l 1
 647 850 l 1
 647 533 l 1
 856 533 l 1
 874.666666667 655 923 750.333333333 1001 819 c 128
 1079 887.666666667 1181.66666667 922 1309 922 c 0
 1396.33333333 922 1472.16666667 909.333333333 1536.5 884 c 128
 1600.83333333 858.666666667 1653.16666667 823.333333333 1693.5 778 c 128
 1733.83333333 732.666666667 1763.83333333 679.833333333 1783.5 619.5 c 128
 1803.16666667 559.166666667 1813 494.666666667 1813 426 c 0
 1813 293.333333333 1770.66666667 175.333333333 1686 72 c 1
 2366 72 l 1
 2366 393 l 1
 2124 439 2003 532.666666667 2003 674 c 0
 2003 752 2024.5 812.833333333 2067.5 856.5 c 128
 2110.5 900.166666667 2173 922 2255 922 c 256
 2337 922 2399.83333333 905.833333333 2443.5 873.5 c 128
 2487.16666667 841.166666667 2509 798.666666667 2509 746 c 2
 2509 447 l 1
 2741 405 2857 327 2857 213 c 0
2366 469 m 1
 2366 721 l 2
 2366 758.333333333 2352 788.166666667 2324 810.5 c 128
 2296 832.833333333 2257.33333333 844 2208 844 c 0
 2163.33333333 844 2128.33333333 829 2103 799 c 128
 2077.66666667 769 2065 728 2065 676 c 0
 2065 620.666666667 2094.16666667 576.333333333 2152.5 543 c 128
 2210.83333333 509.666666667 2282 485 2366 469 c 1
2771 221 m 0
 2771 259 2747.66666667 289.5 2701 312.5 c 128
 2654.33333333 335.5 2590.33333333 354.333333333 2509 369 c 1
 2509 72 l 1
 2640 72 l 2
 2727.33333333 72 2771 121.666666667 2771 221 c 0
1237 312 m 0
 1237 411.333333333 1181.66666667 461 1071 461 c 2
 920 461 l 1
 920 426.333333333 922 386.5 926 341.5 c 128
 930 296.5 936 263.333333333 944 242 c 0
 974 162.666666667 1024.66666667 123 1096 123 c 0
 1140 123 1174.5 141.5 1199.5 178.5 c 128
 1224.5 215.5 1237 260 1237 312 c 0
494 533 m 1
 494 850 l 1
 258 850 l 1
 258 533 l 1
 494 533 l 1
494 211 m 2
 494 461 l 1
 226 461 l 2
 206.666666667 461 185 455 161 443 c 128
 137 431 116.166666667 410.666666667 98.5 382 c 128
 80.8333333333 353.333333333 72 316.333333333 72 271 c 0
 72 138.333333333 146.333333333 72 295 72 c 0
 310.333333333 72 324.166666667 73.3333333333 336.5 76 c 128
 348.833333333 78.6666666667 364 84 382 92 c 0
 413.333333333 105.333333333 439.833333333 122.833333333 461.5 144.5 c 128
 483.166666667 166.166666667 494 188.333333333 494 211 c 2
EndSplineSet
EndChar

StartChar: u0B95_u0BB7_u0BBF
Encoding: 68 -1 68
Width: 3287
Flags: HW
AnchorPoint: "V" 522.5 932 basechar 0
AnchorPoint: "N" 522.5 6.77083 basechar 0
LayerCount: 2
Fore
SplineSet
2366 469 m 1
 2366 721 l 2
 2366 758.333333333 2352 788.166666667 2324 810.5 c 128
 2296 832.833333333 2257.33333333 844 2208 844 c 0
 2163.33333333 844 2128.33333333 829 2103 799 c 128
 2077.66666667 769 2065 728 2065 676 c 0
 2065 620.666666667 2094.16666667 576.333333333 2152.5 543 c 128
 2210.83333333 509.666666667 2282 485 2366 469 c 1
2771 221 m 0
 2771 259 2747.66666667 289.5 2701 312.5 c 128
 2654.33333333 335.5 2590.33333333 354.333333333 2509 369 c 1
 2509 72 l 1
 2640 72 l 2
 2727.33333333 72 2771 121.666666667 2771 221 c 0
1237 312 m 0
 1237 411.333333333 1181.66666667 461 1071 461 c 2
 920 461 l 1
 920 426.333333333 922 386.5 926 341.5 c 128
 930 296.5 936 263.333333333 944 242 c 0
 974 162.666666667 1024.66666667 123 1096 123 c 0
 1140 123 1174.5 141.5 1199.5 178.5 c 128
 1224.5 215.5 1237 260 1237 312 c 0
494 533 m 1
 494 850 l 1
 258 850 l 1
 258 533 l 1
 494 533 l 1
494 211 m 2
 494 461 l 1
 226 461 l 2
 206.666666667 461 185 455 161 443 c 128
 137 431 116.166666667 410.666666667 98.5 382 c 128
 80.8333333333 353.333333333 72 316.333333333 72 271 c 0
 72 138.333333333 146.333333333 72 295 72 c 0
 310.333333333 72 324.166666667 73.3333333333 336.5 76 c 128
 348.833333333 78.6666666667 364 84 382 92 c 0
 413.333333333 105.333333333 439.833333333 122.833333333 461.5 144.5 c 128
 483.166666667 166.166666667 494 188.333333333 494 211 c 2
2284 922 m 1
 2269.33333333 943.333333333 2257.16666667 974.333333333 2247.5 1015 c 128
 2237.83333333 1055.66666667 2233 1095.66666667 2233 1135 c 0
 2233 1250.33333333 2269.83333333 1337.83333333 2343.5 1397.5 c 128
 2417.16666667 1457.16666667 2523 1487 2661 1487 c 0
 2826.33333333 1487 2937.83333333 1447.33333333 2995.5 1368 c 128
 3053.16666667 1288.66666667 3082 1188.33333333 3082 1067 c 2
 3082 0 l 1
 3021 0 l 1
 3021 1065 l 2
 3021 1118.33333333 3010.16666667 1165.83333333 2988.5 1207.5 c 128
 2966.83333333 1249.16666667 2928.83333333 1283 2874.5 1309 c 128
 2820.16666667 1335 2748.33333333 1348 2659 1348 c 0
 2427.66666667 1348 2312 1249.66666667 2312 1053 c 0
 2312 997 2328.66666667 949.333333333 2362 910 c 1
 2409.33333333 898 2445.66666667 877.166666667 2471 847.5 c 128
 2496.33333333 817.833333333 2509 784 2509 746 c 2
 2509 447 l 1
 2741 405 2857 327 2857 213 c 0
 2857 152.333333333 2839.5 101.666666667 2804.5 61 c 128
 2769.5 20.3333333333 2714 0 2638 0 c 2
 2509 0 l 1
 2509 -441 l 1
 2366 -441 l 1
 2366 0 l 1
 1491 0 l 1
 1609.66666667 120.666666667 1669 260.666666667 1669 420 c 0
 1669 500.666666667 1654.16666667 573.833333333 1624.5 639.5 c 128
 1594.83333333 705.166666667 1552.33333333 756.666666667 1497 794 c 128
 1441.66666667 831.333333333 1378.33333333 850 1307 850 c 0
 1242.33333333 850 1185.66666667 839.833333333 1137 819.5 c 128
 1088.33333333 799.166666667 1049 773.166666667 1019 741.5 c 128
 989 709.833333333 965.666666667 675.166666667 949 637.5 c 128
 932.333333333 599.833333333 924 565 924 533 c 1
 1137 533 l 2
 1306.33333333 533 1391 460.666666667 1391 316 c 0
 1391 223.333333333 1370.16666667 147.5 1328.5 88.5 c 128
 1286.83333333 29.5 1230.33333333 0 1159 0 c 0
 953 0 850 153.666666667 850 461 c 1
 647 461 l 1
 647 217 l 2
 647 179.666666667 631 144.5 599 111.5 c 128
 567 78.5 525 51.6666666667 473 31 c 128
 421 10.3333333333 369.333333333 0 318 0 c 0
 221.333333333 0 144.166666667 24.1666666667 86.5 72.5 c 128
 28.8333333333 120.833333333 0 193 0 289 c 0
 0 341 11.3333333333 385.333333333 34 422 c 128
 56.6666666667 458.666666667 83 486 113 504 c 128
 143 522 167.666666667 531 187 531 c 1
 187 922 l 1
 852 922 l 1
 852 850 l 1
 647 850 l 1
 647 533 l 1
 856 533 l 1
 874.666666667 655 923 750.333333333 1001 819 c 128
 1079 887.666666667 1181.66666667 922 1309 922 c 0
 1396.33333333 922 1472.16666667 909.333333333 1536.5 884 c 128
 1600.83333333 858.666666667 1653.16666667 823.333333333 1693.5 778 c 128
 1733.83333333 732.666666667 1763.83333333 679.833333333 1783.5 619.5 c 128
 1803.16666667 559.166666667 1813 494.666666667 1813 426 c 0
 1813 293.333333333 1770.66666667 175.333333333 1686 72 c 1
 2366 72 l 1
 2366 393 l 1
 2124 439 2003 532.666666667 2003 674 c 0
 2003 752 2024.5 812.833333333 2067.5 856.5 c 128
 2110.5 900.166666667 2173 922 2255 922 c 2
 2284 922 l 1
EndSplineSet
EndChar

StartChar: u0B95_u0BB7_u0BC0
Encoding: 69 -1 69
Width: 3062
Flags: HW
AnchorPoint: "V" 522.5 932 basechar 0
AnchorPoint: "N" 522.5 6.77083 basechar 0
LayerCount: 2
Fore
SplineSet
2857 213 m 0
 2857 152.333333333 2839.5 101.666666667 2804.5 61 c 128
 2769.5 20.3333333333 2714 0 2638 0 c 2
 2509 0 l 1
 2509 -441 l 1
 2366 -441 l 1
 2366 0 l 1
 1491 0 l 1
 1609.66666667 120.666666667 1669 260.666666667 1669 420 c 0
 1669 500.666666667 1654.16666667 573.833333333 1624.5 639.5 c 128
 1594.83333333 705.166666667 1552.33333333 756.666666667 1497 794 c 128
 1441.66666667 831.333333333 1378.33333333 850 1307 850 c 0
 1242.33333333 850 1185.66666667 839.833333333 1137 819.5 c 128
 1088.33333333 799.166666667 1049 773.166666667 1019 741.5 c 128
 989 709.833333333 965.666666667 675.166666667 949 637.5 c 128
 932.333333333 599.833333333 924 565 924 533 c 1
 1137 533 l 2
 1306.33333333 533 1391 460.666666667 1391 316 c 0
 1391 223.333333333 1370.16666667 147.5 1328.5 88.5 c 128
 1286.83333333 29.5 1230.33333333 0 1159 0 c 0
 953 0 850 153.666666667 850 461 c 1
 647 461 l 1
 647 217 l 2
 647 179.666666667 631 144.5 599 111.5 c 128
 567 78.5 525 51.6666666667 473 31 c 128
 421 10.3333333333 369.333333333 0 318 0 c 0
 221.333333333 0 144.166666667 24.1666666667 86.5 72.5 c 128
 28.8333333333 120.833333333 0 193 0 289 c 0
 0 341 11.3333333333 385.333333333 34 422 c 128
 56.6666666667 458.666666667 83 486 113 504 c 128
 143 522 167.666666667 531 187 531 c 1
 187 922 l 1
 852 922 l 1
 852 850 l 1
 647 850 l 1
 647 533 l 1
 856 533 l 1
 874.666666667 655 923 750.333333333 1001 819 c 128
 1079 887.666666667 1181.66666667 922 1309 922 c 0
 1396.33333333 922 1472.16666667 909.333333333 1536.5 884 c 128
 1600.83333333 858.666666667 1653.16666667 823.333333333 1693.5 778 c 128
 1733.83333333 732.666666667 1763.83333333 679.833333333 1783.5 619.5 c 128
 1803.16666667 559.166666667 1813 494.666666667 1813 426 c 0
 1813 293.333333333 1770.66666667 175.333333333 1686 72 c 1
 2366 72 l 1
 2366 393 l 1
 2124 439 2003 532.666666667 2003 674 c 0
 2003 747.333333333 2022.33333333 805.666666667 2061 849 c 0
 2081.66666667 872.333333333 2105.16666667 890 2131.5 902 c 128
 2157.83333333 914 2188.66666667 920 2224 920 c 1
 2191.33333333 948.666666667 2162.33333333 984.333333333 2137 1027 c 128
 2111.66666667 1069.66666667 2099 1114.33333333 2099 1161 c 0
 2099 1249.66666667 2118 1322 2156 1378 c 128
 2194 1434 2241.33333333 1474.33333333 2298 1499 c 128
 2354.66666667 1523.66666667 2413.33333333 1536 2474 1536 c 0
 2574.66666667 1536 2663.66666667 1515 2741 1473 c 128
 2818.33333333 1431 2857 1358.66666667 2857 1256 c 0
 2857 1192 2835.16666667 1139 2791.5 1097 c 128
 2747.83333333 1055 2691.33333333 1034 2622 1034 c 0
 2554.66666667 1034 2502 1053.66666667 2464 1093 c 128
 2426 1132.33333333 2407 1179 2407 1233 c 0
 2407 1267.66666667 2415 1302 2431 1336 c 128
 2447 1370 2468.33333333 1394.33333333 2495 1409 c 1
 2469 1413 2443.66666667 1415 2419 1415 c 0
 2347.66666667 1415 2289.83333333 1386.33333333 2245.5 1329 c 128
 2201.16666667 1271.66666667 2179 1207.66666667 2179 1137 c 0
 2179 1096.33333333 2188.5 1057 2207.5 1019 c 128
 2226.5 981 2251.33333333 948.666666667 2282 922 c 1
 2317.33333333 922 2348.33333333 917.5 2375 908.5 c 128
 2401.66666667 899.5 2426 885.666666667 2448 867 c 0
 2488.66666667 834.333333333 2509 794 2509 746 c 2
 2509 447 l 1
 2741 405 2857 327 2857 213 c 0
2736 1233 m 0
 2736 1272.33333333 2722.83333333 1306.16666667 2696.5 1334.5 c 128
 2670.16666667 1362.83333333 2635.66666667 1377 2593 1377 c 1
 2557 1369.66666667 2528.16666667 1352.33333333 2506.5 1325 c 128
 2484.83333333 1297.66666667 2474 1266.33333333 2474 1231 c 256
 2474 1195.66666667 2486.33333333 1164.66666667 2511 1138 c 128
 2535.66666667 1111.33333333 2565.66666667 1098 2601 1098 c 0
 2637.66666667 1098 2669.33333333 1111.16666667 2696 1137.5 c 128
 2722.66666667 1163.83333333 2736 1195.66666667 2736 1233 c 0
2366 469 m 1
 2366 721 l 2
 2366 758.333333333 2352 788.166666667 2324 810.5 c 128
 2296 832.833333333 2257.33333333 844 2208 844 c 0
 2163.33333333 844 2128.33333333 829 2103 799 c 128
 2077.66666667 769 2065 728 2065 676 c 0
 2065 620.666666667 2094.16666667 576.333333333 2152.5 543 c 128
 2210.83333333 509.666666667 2282 485 2366 469 c 1
2771 221 m 0
 2771 259 2747.66666667 289.5 2701 312.5 c 128
 2654.33333333 335.5 2590.33333333 354.333333333 2509 369 c 1
 2509 72 l 1
 2640 72 l 2
 2727.33333333 72 2771 121.666666667 2771 221 c 0
1237 312 m 0
 1237 411.333333333 1181.66666667 461 1071 461 c 2
 920 461 l 1
 920 426.333333333 922 386.5 926 341.5 c 128
 930 296.5 936 263.333333333 944 242 c 0
 974 162.666666667 1024.66666667 123 1096 123 c 0
 1140 123 1174.5 141.5 1199.5 178.5 c 128
 1224.5 215.5 1237 260 1237 312 c 0
494 533 m 1
 494 850 l 1
 258 850 l 1
 258 533 l 1
 494 533 l 1
494 211 m 2
 494 461 l 1
 226 461 l 2
 206.666666667 461 185 455 161 443 c 128
 137 431 116.166666667 410.666666667 98.5 382 c 128
 80.8333333333 353.333333333 72 316.333333333 72 271 c 0
 72 138.333333333 146.333333333 72 295 72 c 0
 310.333333333 72 324.166666667 73.3333333333 336.5 76 c 128
 348.833333333 78.6666666667 364 84 382 92 c 0
 413.333333333 105.333333333 439.833333333 122.833333333 461.5 144.5 c 128
 483.166666667 166.166666667 494 188.333333333 494 211 c 2
EndSplineSet
EndChar

StartChar: u0B95_u0BB7_u0BCD
Encoding: 70 -1 70
Width: 3062
Flags: HW
AnchorPoint: "N" 522.5 6.77083 basechar 0
LayerCount: 2
Fore
SplineSet
2857 213 m 0
 2857 152.333333333 2839.5 101.666666667 2804.5 61 c 128
 2769.5 20.3333333333 2714 0 2638 0 c 2
 2509 0 l 1
 2509 -441 l 1
 2366 -441 l 1
 2366 0 l 1
 1491 0 l 1
 1609.66666667 120.666666667 1669 260.666666667 1669 420 c 0
 1669 500.666666667 1654.16666667 573.833333333 1624.5 639.5 c 128
 1594.83333333 705.166666667 1552.33333333 756.666666667 1497 794 c 128
 1441.66666667 831.333333333 1378.33333333 850 1307 850 c 0
 1242.33333333 850 1185.66666667 839.833333333 1137 819.5 c 128
 1088.33333333 799.166666667 1049 773.166666667 1019 741.5 c 128
 989 709.833333333 965.666666667 675.166666667 949 637.5 c 128
 932.333333333 599.833333333 924 565 924 533 c 1
 1137 533 l 2
 1306.33333333 533 1391 460.666666667 1391 316 c 0
 1391 223.333333333 1370.16666667 147.5 1328.5 88.5 c 128
 1286.83333333 29.5 1230.33333333 0 1159 0 c 0
 953 0 850 153.666666667 850 461 c 1
 647 461 l 1
 647 217 l 2
 647 179.666666667 631 144.5 599 111.5 c 128
 567 78.5 525 51.6666666667 473 31 c 128
 421 10.3333333333 369.333333333 0 318 0 c 0
 221.333333333 0 144.166666667 24.1666666667 86.5 72.5 c 128
 28.8333333333 120.833333333 0 193 0 289 c 0
 0 341 11.3333333333 385.333333333 34 422 c 128
 56.6666666667 458.666666667 83 486 113 504 c 128
 143 522 167.666666667 531 187 531 c 1
 187 922 l 1
 852 922 l 1
 852 850 l 1
 647 850 l 1
 647 533 l 1
 856 533 l 1
 874.666666667 655 923 750.333333333 1001 819 c 128
 1079 887.666666667 1181.66666667 922 1309 922 c 0
 1396.33333333 922 1472.16666667 909.333333333 1536.5 884 c 128
 1600.83333333 858.666666667 1653.16666667 823.333333333 1693.5 778 c 128
 1733.83333333 732.666666667 1763.83333333 679.833333333 1783.5 619.5 c 128
 1803.16666667 559.166666667 1813 494.666666667 1813 426 c 0
 1813 293.333333333 1770.66666667 175.333333333 1686 72 c 1
 2366 72 l 1
 2366 393 l 1
 2124 439 2003 532.666666667 2003 674 c 0
 2003 752 2024.5 812.833333333 2067.5 856.5 c 128
 2110.5 900.166666667 2173 922 2255 922 c 256
 2337 922 2399.83333333 905.833333333 2443.5 873.5 c 128
 2487.16666667 841.166666667 2509 798.666666667 2509 746 c 2
 2509 447 l 1
 2741 405 2857 327 2857 213 c 0
2366 469 m 1
 2366 721 l 2
 2366 758.333333333 2352 788.166666667 2324 810.5 c 128
 2296 832.833333333 2257.33333333 844 2208 844 c 0
 2163.33333333 844 2128.33333333 829 2103 799 c 128
 2077.66666667 769 2065 728 2065 676 c 0
 2065 620.666666667 2094.16666667 576.333333333 2152.5 543 c 128
 2210.83333333 509.666666667 2282 485 2366 469 c 1
2771 221 m 0
 2771 259 2747.66666667 289.5 2701 312.5 c 128
 2654.33333333 335.5 2590.33333333 354.333333333 2509 369 c 1
 2509 72 l 1
 2640 72 l 2
 2727.33333333 72 2771 121.666666667 2771 221 c 0
1237 312 m 0
 1237 411.333333333 1181.66666667 461 1071 461 c 2
 920 461 l 1
 920 426.333333333 922 386.5 926 341.5 c 128
 930 296.5 936 263.333333333 944 242 c 0
 974 162.666666667 1024.66666667 123 1096 123 c 0
 1140 123 1174.5 141.5 1199.5 178.5 c 128
 1224.5 215.5 1237 260 1237 312 c 0
494 533 m 1
 494 850 l 1
 258 850 l 1
 258 533 l 1
 494 533 l 1
494 211 m 2
 494 461 l 1
 226 461 l 2
 206.666666667 461 185 455 161 443 c 128
 137 431 116.166666667 410.666666667 98.5 382 c 128
 80.8333333333 353.333333333 72 316.333333333 72 271 c 0
 72 138.333333333 146.333333333 72 295 72 c 0
 310.333333333 72 324.166666667 73.3333333333 336.5 76 c 128
 348.833333333 78.6666666667 364 84 382 92 c 0
 413.333333333 105.333333333 439.833333333 122.833333333 461.5 144.5 c 128
 483.166666667 166.166666667 494 188.333333333 494 211 c 2
1798 1309 m 0
 1830 1309 1857.5 1297.5 1880.5 1274.5 c 128
 1903.5 1251.5 1915 1224 1915 1192 c 0
 1915 1160.66666667 1903.33333333 1133.33333333 1880 1110 c 128
 1856.66666667 1086.66666667 1829.33333333 1075 1798 1075 c 256
 1766.66666667 1075 1739.5 1086.5 1716.5 1109.5 c 128
 1693.5 1132.5 1682 1160 1682 1192 c 256
 1682 1224 1693.16666667 1251.5 1715.5 1274.5 c 128
 1737.83333333 1297.5 1765.33333333 1309 1798 1309 c 0
EndSplineSet
EndChar

StartChar: u0B9A
Encoding: 71 2970 71
Width: 1065
Flags: HW
AnchorPoint: "V" 522.5 932 basechar 0
AnchorPoint: "N" 522.5 7.56966 basechar 0
LayerCount: 2
Fore
SplineSet
852 461 m 1
 647 461 l 1
 647 217 l 2
 647 179.666666667 631 144.5 599 111.5 c 128
 567 78.5 525 51.6666666667 473 31 c 128
 421 10.3333333333 369.333333333 0 318 0 c 0
 221.333333333 0 144.166666667 24.1666666667 86.5 72.5 c 128
 28.8333333333 120.833333333 0 193 0 289 c 0
 0 341 11.3333333333 385.333333333 34 422 c 128
 56.6666666667 458.666666667 83 486 113 504 c 128
 143 522 167.666666667 531 187 531 c 1
 187 922 l 1
 852 922 l 1
 852 850 l 1
 647 850 l 1
 647 533 l 1
 852 533 l 1
 852 461 l 1
494 533 m 1
 494 850 l 1
 258 850 l 1
 258 533 l 1
 494 533 l 1
494 211 m 2
 494 461 l 1
 226 461 l 2
 206.666666667 461 185 455 161 443 c 128
 137 431 116.166666667 410.666666667 98.5 382 c 128
 80.8333333333 353.333333333 72 316.333333333 72 271 c 0
 72 138.333333333 146.333333333 72 295 72 c 0
 310.333333333 72 324.166666667 73.3333333333 336.5 76 c 128
 348.833333333 78.6666666667 364 84 382 92 c 0
 413.333333333 105.333333333 439.833333333 122.833333333 461.5 144.5 c 128
 483.166666667 166.166666667 494 188.333333333 494 211 c 2
EndSplineSet
EndChar

StartChar: u0B9A_u0BBF
Encoding: 72 -1 72
Width: 1301
Flags: HW
AnchorPoint: "V" 522.5 1484.38 basechar 0
AnchorPoint: "N" 522.5 7.56966 basechar 0
LayerCount: 2
Fore
SplineSet
1086 0 m 1
 1024 0 l 1
 1024 926 l 2
 1024 1002 1003 1071 961 1133 c 128
 919 1195 862.666666667 1243.5 792 1278.5 c 128
 721.333333333 1313.5 643 1331 557 1331 c 0
 391 1331 268.666666667 1291.33333333 190 1212 c 128
 111.333333333 1132.66666667 72 1028.33333333 72 899 c 0
 72 835.666666667 81.8333333333 774 101.5 714 c 128
 121.166666667 654 149.666666667 606.666666667 187 572 c 1
 187 922 l 1
 852 922 l 1
 852 850 l 1
 647 850 l 1
 647 533 l 1
 852 533 l 1
 852 461 l 1
 647 461 l 1
 647 217 l 2
 647 179.666666667 631 144.5 599 111.5 c 128
 567 78.5 525 51.6666666667 473 31 c 128
 421 10.3333333333 369.333333333 0 318 0 c 0
 221.333333333 0 144.166666667 24.1666666667 86.5 72.5 c 128
 28.8333333333 120.833333333 0 193 0 289 c 0
 0 349 15 398.833333333 45 438.5 c 128
 75 478.166666667 108.666666667 505.333333333 146 520 c 1
 48.6666666667 601.333333333 0 724.333333333 0 889 c 0
 0 989 18.6666666667 1084.83333333 56 1176.5 c 128
 93.3333333333 1268.16666667 153.666666667 1342.5 237 1399.5 c 128
 320.333333333 1456.5 426.333333333 1485 555 1485 c 0
 668.333333333 1485 764.166666667 1463.5 842.5 1420.5 c 128
 920.833333333 1377.5 981 1312.83333333 1023 1226.5 c 128
 1065 1140.16666667 1086 1035.33333333 1086 912 c 2
 1086 0 l 1
494 533 m 1
 494 850 l 1
 258 850 l 1
 258 533 l 1
 494 533 l 1
494 211 m 2
 494 461 l 1
 226 461 l 2
 206.666666667 461 185 455 161 443 c 128
 137 431 116.166666667 410.666666667 98.5 382 c 128
 80.8333333333 353.333333333 72 316.333333333 72 271 c 0
 72 138.333333333 146.333333333 72 295 72 c 0
 310.333333333 72 324.166666667 73.3333333333 336.5 76 c 128
 348.833333333 78.6666666667 364 84 382 92 c 0
 413.333333333 105.333333333 439.833333333 122.833333333 461.5 144.5 c 128
 483.166666667 166.166666667 494 188.333333333 494 211 c 2
EndSplineSet
EndChar

StartChar: u0B9A_u0BC0
Encoding: 73 -1 73
Width: 1055
Flags: HW
AnchorPoint: "V" 522.5 1524.36 basechar 0
AnchorPoint: "N" 522.5 7.56966 basechar 0
LayerCount: 2
Fore
SplineSet
920 1233 m 0
 920 1271.66666667 906.5 1305.33333333 879.5 1334 c 128
 852.5 1362.66666667 818 1377 776 1377 c 1
 740.666666667 1370.33333333 712.166666667 1353.16666667 690.5 1325.5 c 128
 668.833333333 1297.83333333 658 1266.33333333 658 1231 c 0
 658 1207 663.5 1185 674.5 1165 c 128
 685.5 1145 700.833333333 1128.83333333 720.5 1116.5 c 128
 740.166666667 1104.16666667 761.666666667 1098 785 1098 c 0
 821.666666667 1098 853.333333333 1111.33333333 880 1138 c 128
 906.666666667 1164.66666667 920 1196.33333333 920 1233 c 0
494 533 m 1
 494 850 l 1
 258 850 l 1
 258 533 l 1
 494 533 l 1
494 211 m 2
 494 461 l 1
 226 461 l 2
 206.666666667 461 185 455 161 443 c 128
 137 431 116.166666667 410.666666667 98.5 382 c 128
 80.8333333333 353.333333333 72 316.333333333 72 271 c 0
 72 138.333333333 146.333333333 72 295 72 c 0
 310.333333333 72 324.166666667 73.3333333333 336.5 76 c 128
 348.833333333 78.6666666667 364 84 382 92 c 0
 413.333333333 105.333333333 439.833333333 122.833333333 461.5 144.5 c 128
 483.166666667 166.166666667 494 188.333333333 494 211 c 2
146 520 m 1
 48.6666666667 601.333333333 0 724.333333333 0 889 c 0
 0 983 16.1666666667 1070 48.5 1150 c 128
 80.8333333333 1230 126.5 1298.66666667 185.5 1356 c 128
 244.5 1413.33333333 314.5 1457.66666667 395.5 1489 c 128
 476.5 1520.33333333 564 1536 658 1536 c 0
 758.666666667 1536 847.666666667 1515 925 1473 c 128
 1002.33333333 1431 1041 1358.66666667 1041 1256 c 0
 1041 1192.66666667 1019.16666667 1139.83333333 975.5 1097.5 c 128
 931.833333333 1055.16666667 875 1034 805 1034 c 0
 739 1034 686.666666667 1053.66666667 648 1093 c 128
 609.333333333 1132.33333333 590 1179 590 1233 c 0
 590 1268.33333333 598.166666667 1302.66666667 614.5 1336 c 128
 630.833333333 1369.33333333 652 1393.66666667 678 1409 c 1
 652 1413 626.666666667 1415 602 1415 c 0
 498 1415 405.833333333 1389.5 325.5 1338.5 c 128
 245.166666667 1287.5 182.833333333 1221.83333333 138.5 1141.5 c 128
 94.1666666667 1061.16666667 72 980.333333333 72 899 c 0
 72 835.666666667 81.8333333333 774 101.5 714 c 128
 121.166666667 654 149.666666667 606.666666667 187 572 c 1
 187 922 l 1
 850 922 l 1
 850 850 l 1
 647 850 l 1
 647 533 l 1
 850 533 l 1
 850 461 l 1
 647 461 l 1
 647 217 l 2
 647 179.666666667 631 144.5 599 111.5 c 128
 567 78.5 525 51.6666666667 473 31 c 128
 421 10.3333333333 369.333333333 0 318 0 c 0
 221.333333333 0 144.166666667 24.1666666667 86.5 72.5 c 128
 28.8333333333 120.833333333 0 193 0 289 c 0
 0 349 15 398.833333333 45 438.5 c 128
 75 478.166666667 108.666666667 505.333333333 146 520 c 1
EndSplineSet
EndChar

StartChar: u0B9A_u0BC1
Encoding: 74 -1 74
Width: 1393
Flags: HW
AnchorPoint: "V" 522.5 932 basechar 0
AnchorPoint: "N" 522.5 7.56966 basechar 0
LayerCount: 2
Fore
SplineSet
494 533 m 1
 494 850 l 1
 258 850 l 1
 258 533 l 1
 494 533 l 1
494 211 m 2
 494 461 l 1
 226 461 l 2
 206.666666667 461 185 455 161 443 c 128
 137 431 116.166666667 410.666666667 98.5 382 c 128
 80.8333333333 353.333333333 72 316.333333333 72 271 c 0
 72 138.333333333 146.333333333 72 295 72 c 0
 310.333333333 72 324.166666667 73.3333333333 336.5 76 c 128
 348.833333333 78.6666666667 364 84 382 92 c 0
 413.333333333 105.333333333 439.833333333 122.833333333 461.5 144.5 c 128
 483.166666667 166.166666667 494 188.333333333 494 211 c 2
1004 0 m 1
 850 0 l 1
 850 461 l 1
 647 461 l 1
 647 217 l 2
 647 179.666666667 631 144.5 599 111.5 c 128
 567 78.5 525 51.6666666667 473 31 c 128
 421 10.3333333333 369.333333333 0 318 0 c 0
 221.333333333 0 144.166666667 24.1666666667 86.5 72.5 c 128
 28.8333333333 120.833333333 0 193 0 289 c 0
 0 341 11.3333333333 385.333333333 34 422 c 128
 56.6666666667 458.666666667 83 486 113 504 c 128
 143 522 167.666666667 531 187 531 c 1
 187 922 l 1
 852 922 l 1
 852 850 l 1
 647 850 l 1
 647 533 l 1
 1188 533 l 1
 1188 461 l 1
 1004 461 l 1
 1004 0 l 1
EndSplineSet
EndChar

StartChar: u0B9A_u0BC2
Encoding: 75 -1 75
Width: 1587
Flags: HW
AnchorPoint: "V" 522.5 932 basechar 0
AnchorPoint: "N" 522.5 7.56966 basechar 0
LayerCount: 2
Fore
SplineSet
494 533 m 1
 494 850 l 1
 258 850 l 1
 258 533 l 1
 494 533 l 1
494 211 m 2
 494 461 l 1
 226 461 l 2
 206.666666667 461 185 455 161 443 c 128
 137 431 116.166666667 410.666666667 98.5 382 c 128
 80.8333333333 353.333333333 72 316.333333333 72 271 c 0
 72 138.333333333 146.333333333 72 295 72 c 0
 310.333333333 72 324.166666667 73.3333333333 336.5 76 c 128
 348.833333333 78.6666666667 364 84 382 92 c 0
 413.333333333 105.333333333 439.833333333 122.833333333 461.5 144.5 c 128
 483.166666667 166.166666667 494 188.333333333 494 211 c 2
1004 0 m 1
 850 0 l 1
 850 461 l 1
 647 461 l 1
 647 217 l 2
 647 179.666666667 631 144.5 599 111.5 c 128
 567 78.5 525 51.6666666667 473 31 c 128
 421 10.3333333333 369.333333333 0 318 0 c 0
 221.333333333 0 144.166666667 24.1666666667 86.5 72.5 c 128
 28.8333333333 120.833333333 0 193 0 289 c 0
 0 341 11.3333333333 385.333333333 34 422 c 128
 56.6666666667 458.666666667 83 486 113 504 c 128
 143 522 167.666666667 531 187 531 c 1
 187 922 l 1
 852 922 l 1
 852 850 l 1
 647 850 l 1
 647 533 l 1
 1188 533 l 1
 1188 461 l 1
 1004 461 l 1
 1004 322 l 1
 1013.33333333 335.333333333 1029.5 346.833333333 1052.5 356.5 c 128
 1075.5 366.166666667 1099.66666667 371 1125 371 c 0
 1195 371 1255.5 341 1306.5 281 c 128
 1357.5 221 1383 138.333333333 1383 33 c 0
 1383 -73.6666666667 1354.33333333 -168.333333333 1297 -251 c 128
 1239.66666667 -333.666666667 1159.83333333 -397.833333333 1057.5 -443.5 c 128
 955.166666667 -489.166666667 841.666666667 -512 717 -512 c 0
 600.333333333 -512 500.666666667 -501.833333333 418 -481.5 c 128
 335.333333333 -461.166666667 272 -431 228 -391 c 128
 184 -351 162 -303.333333333 162 -248 c 0
 162 -191.333333333 187.5 -147.833333333 238.5 -117.5 c 128
 289.5 -87.1666666667 351.333333333 -72 424 -72 c 0
 452 -72 478.333333333 -74 503 -78 c 128
 527.666666667 -82 553 -88.6666666667 579 -98 c 0
 630.333333333 -116.666666667 671 -140 701 -168 c 1
 680 -205 l 1
 650 -181 610 -161.666666667 560 -147 c 128
 510 -132.333333333 461.333333333 -125 414 -125 c 0
 357.333333333 -125 312.5 -135.5 279.5 -156.5 c 128
 246.5 -177.5 230 -206.666666667 230 -244 c 0
 230 -311.333333333 271.833333333 -361 355.5 -393 c 128
 439.166666667 -425 539.333333333 -441 656 -441 c 0
 766.666666667 -441 865.5 -419.166666667 952.5 -375.5 c 128
 1039.5 -331.833333333 1107.33333333 -274 1156 -202 c 128
 1204.66666667 -130 1229 -54.3333333333 1229 25 c 0
 1229 109 1212.5 172 1179.5 214 c 128
 1146.5 256 1109 277 1067 277 c 0
 1041 277 1020 268.666666667 1004 252 c 1
 1004 0 l 1
EndSplineSet
EndChar

StartChar: u0B9A_u0BCD
Encoding: 76 -1 76
Width: 1065
Flags: HW
AnchorPoint: "N" 522.5 7.56966 basechar 0
LayerCount: 2
Fore
SplineSet
852 461 m 1
 647 461 l 1
 647 217 l 2
 647 179.666666667 631 144.5 599 111.5 c 128
 567 78.5 525 51.6666666667 473 31 c 128
 421 10.3333333333 369.333333333 0 318 0 c 0
 221.333333333 0 144.166666667 24.1666666667 86.5 72.5 c 128
 28.8333333333 120.833333333 0 193 0 289 c 0
 0 341 11.3333333333 385.333333333 34 422 c 128
 56.6666666667 458.666666667 83 486 113 504 c 128
 143 522 167.666666667 531 187 531 c 1
 187 922 l 1
 852 922 l 1
 852 850 l 1
 647 850 l 1
 647 533 l 1
 852 533 l 1
 852 461 l 1
494 533 m 1
 494 850 l 1
 258 850 l 1
 258 533 l 1
 494 533 l 1
494 211 m 2
 494 461 l 1
 226 461 l 2
 206.666666667 461 185 455 161 443 c 128
 137 431 116.166666667 410.666666667 98.5 382 c 128
 80.8333333333 353.333333333 72 316.333333333 72 271 c 0
 72 138.333333333 146.333333333 72 295 72 c 0
 310.333333333 72 324.166666667 73.3333333333 336.5 76 c 128
 348.833333333 78.6666666667 364 84 382 92 c 0
 413.333333333 105.333333333 439.833333333 122.833333333 461.5 144.5 c 128
 483.166666667 166.166666667 494 188.333333333 494 211 c 2
522 1309 m 0
 554 1309 581.5 1297.5 604.5 1274.5 c 128
 627.5 1251.5 639 1224 639 1192 c 0
 639 1160.66666667 627.333333333 1133.33333333 604 1110 c 128
 580.666666667 1086.66666667 553.333333333 1075 522 1075 c 0
 491.333333333 1075 464.333333333 1086.66666667 441 1110 c 128
 417.666666667 1133.33333333 406 1160.66666667 406 1192 c 0
 406 1224 417.5 1251.5 440.5 1274.5 c 128
 463.5 1297.5 490.666666667 1309 522 1309 c 0
EndSplineSet
EndChar

StartChar: u0B9C
Encoding: 77 2972 77
Width: 1331
Flags: HW
AnchorPoint: "V" 610 932 basechar 0
AnchorPoint: "N" 610 -314.513 basechar 0
LayerCount: 2
Fore
SplineSet
1127 598 m 0
 1127 528.666666667 1113.83333333 459.833333333 1087.5 391.5 c 128
 1061.16666667 323.166666667 1020.16666667 274.5 964.5 245.5 c 128
 908.833333333 216.5 858.333333333 199.666666667 813 195 c 0
 748.333333333 187.666666667 699.333333333 182.833333333 666 180.5 c 128
 632.666666667 178.166666667 598.666666667 177 564 177 c 0
 506 177 457.166666667 173.666666667 417.5 167 c 128
 377.833333333 160.333333333 343.333333333 151.333333333 314 140 c 0
 228 106.666666667 185 41.3333333333 185 -56 c 0
 185 -196 234 -266 332 -266 c 0
 371.333333333 -266 405.166666667 -260.166666667 433.5 -248.5 c 128
 461.833333333 -236.833333333 485.833333333 -222.166666667 505.5 -204.5 c 128
 525.166666667 -186.833333333 545 -165 565 -139 c 2
 621 -66 l 1
 668 -2 l 2
 681.333333333 16.6666666667 697.333333333 33.3333333333 716 48 c 0
 732.666666667 62.6666666667 756.333333333 75.1666666667 787 85.5 c 128
 817.666666667 95.8333333333 854.333333333 101 897 101 c 0
 967 101 1022.5 83.3333333333 1063.5 48 c 128
 1104.5 12.6666666667 1125 -37 1125 -101 c 0
 1125 -166.333333333 1104.5 -220.5 1063.5 -263.5 c 128
 1022.5 -306.5 961.666666667 -328 881 -328 c 0
 823 -328 775.333333333 -317.666666667 738 -297 c 1
 756 -244 l 1
 780 -252 815.333333333 -256 862 -256 c 0
 902 -256 931.833333333 -243.166666667 951.5 -217.5 c 128
 971.166666667 -191.833333333 981 -158.333333333 981 -117 c 0
 981 -65 971.333333333 -29.3333333333 952 -10 c 0
 933.333333333 10.6666666667 898 21 846 21 c 0
 817.333333333 21 792.333333333 9.33333333333 771 -14 c 0
 749 -36 718.333333333 -72.5 679 -123.5 c 128
 639.666666667 -174.5 607.833333333 -213.166666667 583.5 -239.5 c 128
 559.166666667 -265.833333333 527.833333333 -289.5 489.5 -310.5 c 128
 451.166666667 -331.5 407 -342 357 -342 c 0
 246.333333333 -342 166 -318 116 -270 c 128
 66 -222 41 -150.666666667 41 -56 c 0
 41 14 55.6666666667 66.6666666667 85 102 c 128
 114.333333333 137.333333333 155.666666667 165.666666667 209 187 c 0
 281.666666667 214.333333333 358.666666667 232 440 240 c 2
 685 261 l 2
 765 268.333333333 826 282.166666667 868 302.5 c 128
 910 322.833333333 939.666666667 366.833333333 957 434.5 c 128
 974.333333333 502.166666667 983 562.333333333 983 615 c 0
 983 683 967.5 739.166666667 936.5 783.5 c 128
 905.5 827.833333333 859.666666667 850 799 850 c 0
 757.666666667 850 726.833333333 832.5 706.5 797.5 c 128
 686.166666667 762.5 676 729 676 697 c 2
 676 439 l 1
 533 439 l 1
 533 686 l 2
 533 724 516.833333333 760.833333333 484.5 796.5 c 128
 452.166666667 832.166666667 402 850 334 850 c 0
 291.333333333 850 250 841.333333333 210 824 c 128
 170 806.666666667 137.333333333 783.333333333 112 754 c 128
 86.6666666667 724.666666667 74 694 74 662 c 1
 108 719.333333333 159.333333333 748 228 748 c 0
 265.333333333 748 299 738 329 718 c 0
 357 700 379.5 674 396.5 640 c 128
 413.5 606 422 569.666666667 422 531 c 0
 422 465.666666667 402.666666667 414.166666667 364 376.5 c 128
 325.333333333 338.833333333 273.666666667 320 209 320 c 0
 69.6666666667 320 0 421 0 623 c 0
 0 675 14.1666666667 723.833333333 42.5 769.5 c 128
 70.8333333333 815.166666667 112.666666667 852 168 880 c 128
 223.333333333 908 288.333333333 922 363 922 c 0
 506.333333333 922 593.666666667 883 625 805 c 1
 655 883 719.666666667 922 819 922 c 0
 919 922 995.333333333 893.666666667 1048 837 c 128
 1100.66666667 780.333333333 1127 700.666666667 1127 598 c 0
250 628 m 0
 230 644 207.666666667 652 183 652 c 0
 137 652 100 627.333333333 72 578 c 1
 72 530 83 490 105 458 c 128
 127 426 156.333333333 410 193 410 c 0
 224.333333333 410 248.833333333 422.5 266.5 447.5 c 128
 284.166666667 472.5 293 501.666666667 293 535 c 0
 293 549.666666667 290 564.666666667 284 580 c 0
 276 600.666666667 264.666666667 616.666666667 250 628 c 0
EndSplineSet
EndChar

StartChar: u0B9C_u0BBF
Encoding: 78 -1 78
Width: 1598
Flags: HW
AnchorPoint: "V" 610 932 basechar 0
AnchorPoint: "N" 610 -314.513 basechar 0
LayerCount: 2
Fore
SplineSet
250 628 m 0
 230 644 207.666666667 652 183 652 c 0
 137 652 100 627.333333333 72 578 c 1
 72 530 83 490 105 458 c 128
 127 426 156.333333333 410 193 410 c 0
 224.333333333 410 248.833333333 422.5 266.5 447.5 c 128
 284.166666667 472.5 293 501.666666667 293 535 c 0
 293 549.666666667 290 564.666666667 284 580 c 0
 276 600.666666667 264.666666667 616.666666667 250 628 c 0
778 920 m 1
 744 973.333333333 727 1045 727 1135 c 0
 727 1237 755.666666667 1321.16666667 813 1387.5 c 128
 870.333333333 1453.83333333 957 1487 1073 1487 c 0
 1161 1487 1228.5 1465.5 1275.5 1422.5 c 128
 1322.5 1379.5 1354 1327.33333333 1370 1266 c 0
 1377.33333333 1236.66666667 1383 1205.16666667 1387 1171.5 c 128
 1391 1137.83333333 1393 1103 1393 1067 c 2
 1393 0 l 1
 1331 0 l 1
 1331 1065 l 2
 1331 1143.66666667 1310.5 1210.5 1269.5 1265.5 c 128
 1228.5 1320.5 1162.33333333 1348 1071 1348 c 0
 983 1348 917 1322.83333333 873 1272.5 c 128
 829 1222.16666667 807 1149 807 1053 c 0
 807 1003 821.333333333 959.333333333 850 922 c 1
 894 922 933 914 967 898 c 128
 1001 882 1030.66666667 858.666666667 1056 828 c 0
 1079.33333333 800 1097 767 1109 729 c 128
 1121 691 1127 647.333333333 1127 598 c 0
 1127 528.666666667 1113.83333333 459.833333333 1087.5 391.5 c 128
 1061.16666667 323.166666667 1020.16666667 274.5 964.5 245.5 c 128
 908.833333333 216.5 858.333333333 199.666666667 813 195 c 0
 748.333333333 187.666666667 699.333333333 182.833333333 666 180.5 c 128
 632.666666667 178.166666667 598.666666667 177 564 177 c 0
 506 177 457.166666667 173.666666667 417.5 167 c 128
 377.833333333 160.333333333 343.333333333 151.333333333 314 140 c 0
 228 106.666666667 185 41.3333333333 185 -56 c 0
 185 -196 234 -266 332 -266 c 0
 371.333333333 -266 405.166666667 -260.166666667 433.5 -248.5 c 128
 461.833333333 -236.833333333 485.833333333 -222.166666667 505.5 -204.5 c 128
 525.166666667 -186.833333333 545 -165 565 -139 c 2
 621 -66 l 1
 668 -2 l 2
 681.333333333 16.6666666667 697.333333333 33.3333333333 716 48 c 0
 732.666666667 62.6666666667 756.333333333 75.1666666667 787 85.5 c 128
 817.666666667 95.8333333333 854.333333333 101 897 101 c 0
 967 101 1022.5 83.3333333333 1063.5 48 c 128
 1104.5 12.6666666667 1125 -37 1125 -101 c 0
 1125 -166.333333333 1104.5 -220.5 1063.5 -263.5 c 128
 1022.5 -306.5 961.666666667 -328 881 -328 c 0
 823 -328 775.333333333 -317.666666667 738 -297 c 1
 756 -244 l 1
 780 -252 815.333333333 -256 862 -256 c 0
 902 -256 931.833333333 -243.166666667 951.5 -217.5 c 128
 971.166666667 -191.833333333 981 -158.333333333 981 -117 c 0
 981 -65 971.333333333 -29.3333333333 952 -10 c 0
 933.333333333 10.6666666667 898 21 846 21 c 0
 817.333333333 21 792.333333333 9.33333333333 771 -14 c 0
 749 -36 718.333333333 -72.5 679 -123.5 c 128
 639.666666667 -174.5 607.833333333 -213.166666667 583.5 -239.5 c 128
 559.166666667 -265.833333333 527.833333333 -289.5 489.5 -310.5 c 128
 451.166666667 -331.5 407 -342 357 -342 c 0
 246.333333333 -342 166 -318 116 -270 c 128
 66 -222 41 -150.666666667 41 -56 c 0
 41 14 55.6666666667 66.6666666667 85 102 c 128
 114.333333333 137.333333333 155.666666667 165.666666667 209 187 c 0
 281.666666667 214.333333333 358.666666667 232 440 240 c 2
 685 261 l 2
 765 268.333333333 826 282.166666667 868 302.5 c 128
 910 322.833333333 939.666666667 366.833333333 957 434.5 c 128
 974.333333333 502.166666667 983 562.333333333 983 615 c 0
 983 683 967.5 739.166666667 936.5 783.5 c 128
 905.5 827.833333333 859.666666667 850 799 850 c 0
 757.666666667 850 726.833333333 832.5 706.5 797.5 c 128
 686.166666667 762.5 676 729 676 697 c 2
 676 439 l 1
 533 439 l 1
 533 686 l 2
 533 724 516.833333333 760.833333333 484.5 796.5 c 128
 452.166666667 832.166666667 402 850 334 850 c 0
 291.333333333 850 250 841.333333333 210 824 c 128
 170 806.666666667 137.333333333 783.333333333 112 754 c 128
 86.6666666667 724.666666667 74 694 74 662 c 1
 108 719.333333333 159.333333333 748 228 748 c 0
 265.333333333 748 299 738 329 718 c 0
 357 700 379.5 674 396.5 640 c 128
 413.5 606 422 569.666666667 422 531 c 0
 422 465.666666667 402.666666667 414.166666667 364 376.5 c 128
 325.333333333 338.833333333 273.666666667 320 209 320 c 0
 69.6666666667 320 0 421 0 623 c 0
 0 675 14.1666666667 723.833333333 42.5 769.5 c 128
 70.8333333333 815.166666667 112.666666667 852 168 880 c 128
 223.333333333 908 288.333333333 922 363 922 c 0
 506.333333333 922 593.666666667 883 625 805 c 1
 651 869.666666667 702 908 778 920 c 1
EndSplineSet
EndChar

StartChar: u0B9C_u0BC0
Encoding: 79 -1 79
Width: 1403
Flags: HW
AnchorPoint: "V" 610 932 basechar 0
AnchorPoint: "N" 610 -314.513 basechar 0
LayerCount: 2
Fore
SplineSet
250 628 m 0
 230 644 207.666666667 652 183 652 c 0
 137 652 100 627.333333333 72 578 c 1
 72 530 83 490 105 458 c 128
 127 426 156.333333333 410 193 410 c 0
 224.333333333 410 248.833333333 422.5 266.5 447.5 c 128
 284.166666667 472.5 293 501.666666667 293 535 c 0
 293 549.666666667 290 564.666666667 284 580 c 0
 276 600.666666667 264.666666667 616.666666667 250 628 c 0
1127 598 m 0
 1127 528.666666667 1113.83333333 459.833333333 1087.5 391.5 c 128
 1061.16666667 323.166666667 1020.16666667 274.5 964.5 245.5 c 128
 908.833333333 216.5 858.333333333 199.666666667 813 195 c 0
 748.333333333 187.666666667 699.333333333 182.833333333 666 180.5 c 128
 632.666666667 178.166666667 598.666666667 177 564 177 c 0
 506 177 457.166666667 173.666666667 417.5 167 c 128
 377.833333333 160.333333333 343.333333333 151.333333333 314 140 c 0
 228 106.666666667 185 41.3333333333 185 -56 c 0
 185 -196 234 -266 332 -266 c 0
 371.333333333 -266 405.166666667 -260.166666667 433.5 -248.5 c 128
 461.833333333 -236.833333333 485.833333333 -222.166666667 505.5 -204.5 c 128
 525.166666667 -186.833333333 545 -165 565 -139 c 2
 621 -66 l 1
 668 -2 l 2
 681.333333333 16.6666666667 697.333333333 33.3333333333 716 48 c 0
 732.666666667 62.6666666667 756.333333333 75.1666666667 787 85.5 c 128
 817.666666667 95.8333333333 854.333333333 101 897 101 c 0
 967 101 1022.5 83.3333333333 1063.5 48 c 128
 1104.5 12.6666666667 1125 -37 1125 -101 c 0
 1125 -166.333333333 1104.5 -220.5 1063.5 -263.5 c 128
 1022.5 -306.5 961.666666667 -328 881 -328 c 0
 823 -328 775.333333333 -317.666666667 738 -297 c 1
 756 -244 l 1
 780 -252 815.333333333 -256 862 -256 c 0
 902 -256 931.833333333 -243.166666667 951.5 -217.5 c 128
 971.166666667 -191.833333333 981 -158.333333333 981 -117 c 0
 981 -65 971.333333333 -29.3333333333 952 -10 c 0
 933.333333333 10.6666666667 898 21 846 21 c 0
 817.333333333 21 792.333333333 9.33333333333 771 -14 c 0
 749 -36 718.333333333 -72.5 679 -123.5 c 128
 639.666666667 -174.5 607.833333333 -213.166666667 583.5 -239.5 c 128
 559.166666667 -265.833333333 527.833333333 -289.5 489.5 -310.5 c 128
 451.166666667 -331.5 407 -342 357 -342 c 0
 246.333333333 -342 166 -318 116 -270 c 128
 66 -222 41 -150.666666667 41 -56 c 0
 41 14 55.6666666667 66.6666666667 85 102 c 128
 114.333333333 137.333333333 155.666666667 165.666666667 209 187 c 0
 281.666666667 214.333333333 358.666666667 232 440 240 c 2
 685 261 l 2
 765 268.333333333 826 282.166666667 868 302.5 c 128
 910 322.833333333 939.666666667 366.833333333 957 434.5 c 128
 974.333333333 502.166666667 983 562.333333333 983 615 c 0
 983 683 967.5 739.166666667 936.5 783.5 c 128
 905.5 827.833333333 859.666666667 850 799 850 c 0
 757.666666667 850 726.833333333 832.5 706.5 797.5 c 128
 686.166666667 762.5 676 729 676 697 c 2
 676 439 l 1
 533 439 l 1
 533 686 l 2
 533 724 516.833333333 760.833333333 484.5 796.5 c 128
 452.166666667 832.166666667 402 850 334 850 c 0
 291.333333333 850 250 841.333333333 210 824 c 128
 170 806.666666667 137.333333333 783.333333333 112 754 c 128
 86.6666666667 724.666666667 74 694 74 662 c 1
 108 719.333333333 159.333333333 748 228 748 c 0
 265.333333333 748 299 738 329 718 c 0
 357 700 379.5 674 396.5 640 c 128
 413.5 606 422 569.666666667 422 531 c 0
 422 465.666666667 402.666666667 414.166666667 364 376.5 c 128
 325.333333333 338.833333333 273.666666667 320 209 320 c 0
 69.6666666667 320 0 421 0 623 c 0
 0 675 14.1666666667 723.833333333 42.5 769.5 c 128
 70.8333333333 815.166666667 112.666666667 852 168 880 c 128
 223.333333333 908 288.333333333 922 363 922 c 0
 506.333333333 922 593.666666667 883 625 805 c 1
 639 841.666666667 659.833333333 870 687.5 890 c 128
 715.166666667 910 749.666666667 920 791 920 c 1
 757.666666667 948 728.5 983.5 703.5 1026.5 c 128
 678.5 1069.5 666 1114.33333333 666 1161 c 0
 666 1250.33333333 684.666666667 1322.66666667 722 1378 c 128
 759.333333333 1433.33333333 806.833333333 1473.5 864.5 1498.5 c 128
 922.166666667 1523.5 981 1536 1041 1536 c 0
 1141.66666667 1536 1230.66666667 1515 1308 1473 c 128
 1385.33333333 1431 1424 1358.66666667 1424 1256 c 0
 1424 1192.66666667 1402.16666667 1139.83333333 1358.5 1097.5 c 128
 1314.83333333 1055.16666667 1258 1034 1188 1034 c 0
 1122 1034 1069.66666667 1053.66666667 1031 1093 c 128
 992.333333333 1132.33333333 973 1179 973 1233 c 0
 973 1268.33333333 981.166666667 1302.66666667 997.5 1336 c 128
 1013.83333333 1369.33333333 1035 1393.66666667 1061 1409 c 1
 1033.66666667 1413 1008.33333333 1415 985 1415 c 0
 914.333333333 1415 856.833333333 1386.33333333 812.5 1329 c 128
 768.166666667 1271.66666667 746 1207.66666667 746 1137 c 0
 746 1094.33333333 755.666666667 1054.16666667 775 1016.5 c 128
 794.333333333 978.833333333 818.666666667 947.333333333 848 922 c 1
 892 922 931 914 965 898 c 128
 999 882 1029 858.666666667 1055 828 c 0
 1103 772 1127 695.333333333 1127 598 c 0
1303 1233 m 0
 1303 1271.66666667 1289.5 1305.33333333 1262.5 1334 c 128
 1235.5 1362.66666667 1201 1377 1159 1377 c 1
 1123.66666667 1370.33333333 1095.16666667 1353.16666667 1073.5 1325.5 c 128
 1051.83333333 1297.83333333 1041 1266.33333333 1041 1231 c 0
 1041 1207 1046.5 1185 1057.5 1165 c 128
 1068.5 1145 1083.83333333 1128.83333333 1103.5 1116.5 c 128
 1123.16666667 1104.16666667 1144.66666667 1098 1168 1098 c 0
 1204.66666667 1098 1236.33333333 1111.33333333 1263 1138 c 128
 1289.66666667 1164.66666667 1303 1196.33333333 1303 1233 c 0
EndSplineSet
EndChar

StartChar: u0B9C_u0BCD
Encoding: 80 -1 80
Width: 1331
Flags: HW
AnchorPoint: "N" 610 -314.513 basechar 0
LayerCount: 2
Fore
SplineSet
1127 598 m 0
 1127 528.666666667 1113.83333333 459.833333333 1087.5 391.5 c 128
 1061.16666667 323.166666667 1020.16666667 274.5 964.5 245.5 c 128
 908.833333333 216.5 858.333333333 199.666666667 813 195 c 0
 748.333333333 187.666666667 699.333333333 182.833333333 666 180.5 c 128
 632.666666667 178.166666667 598.666666667 177 564 177 c 0
 506 177 457.166666667 173.666666667 417.5 167 c 128
 377.833333333 160.333333333 343.333333333 151.333333333 314 140 c 0
 228 106.666666667 185 41.3333333333 185 -56 c 0
 185 -196 234 -266 332 -266 c 0
 371.333333333 -266 405.166666667 -260.166666667 433.5 -248.5 c 128
 461.833333333 -236.833333333 485.833333333 -222.166666667 505.5 -204.5 c 128
 525.166666667 -186.833333333 545 -165 565 -139 c 2
 621 -66 l 1
 668 -2 l 2
 681.333333333 16.6666666667 697.333333333 33.3333333333 716 48 c 0
 732.666666667 62.6666666667 756.333333333 75.1666666667 787 85.5 c 128
 817.666666667 95.8333333333 854.333333333 101 897 101 c 0
 967 101 1022.5 83.3333333333 1063.5 48 c 128
 1104.5 12.6666666667 1125 -37 1125 -101 c 0
 1125 -166.333333333 1104.5 -220.5 1063.5 -263.5 c 128
 1022.5 -306.5 961.666666667 -328 881 -328 c 0
 823 -328 775.333333333 -317.666666667 738 -297 c 1
 756 -244 l 1
 780 -252 815.333333333 -256 862 -256 c 0
 902 -256 931.833333333 -243.166666667 951.5 -217.5 c 128
 971.166666667 -191.833333333 981 -158.333333333 981 -117 c 0
 981 -65 971.333333333 -29.3333333333 952 -10 c 0
 933.333333333 10.6666666667 898 21 846 21 c 0
 817.333333333 21 792.333333333 9.33333333333 771 -14 c 0
 749 -36 718.333333333 -72.5 679 -123.5 c 128
 639.666666667 -174.5 607.833333333 -213.166666667 583.5 -239.5 c 128
 559.166666667 -265.833333333 527.833333333 -289.5 489.5 -310.5 c 128
 451.166666667 -331.5 407 -342 357 -342 c 0
 246.333333333 -342 166 -318 116 -270 c 128
 66 -222 41 -150.666666667 41 -56 c 0
 41 14 55.6666666667 66.6666666667 85 102 c 128
 114.333333333 137.333333333 155.666666667 165.666666667 209 187 c 0
 281.666666667 214.333333333 358.666666667 232 440 240 c 2
 685 261 l 2
 765 268.333333333 826 282.166666667 868 302.5 c 128
 910 322.833333333 939.666666667 366.833333333 957 434.5 c 128
 974.333333333 502.166666667 983 562.333333333 983 615 c 0
 983 683 967.5 739.166666667 936.5 783.5 c 128
 905.5 827.833333333 859.666666667 850 799 850 c 0
 757.666666667 850 726.833333333 832.5 706.5 797.5 c 128
 686.166666667 762.5 676 729 676 697 c 2
 676 439 l 1
 533 439 l 1
 533 686 l 2
 533 724 516.833333333 760.833333333 484.5 796.5 c 128
 452.166666667 832.166666667 402 850 334 850 c 0
 291.333333333 850 250 841.333333333 210 824 c 128
 170 806.666666667 137.333333333 783.333333333 112 754 c 128
 86.6666666667 724.666666667 74 694 74 662 c 1
 108 719.333333333 159.333333333 748 228 748 c 0
 265.333333333 748 299 738 329 718 c 0
 357 700 379.5 674 396.5 640 c 128
 413.5 606 422 569.666666667 422 531 c 0
 422 465.666666667 402.666666667 414.166666667 364 376.5 c 128
 325.333333333 338.833333333 273.666666667 320 209 320 c 0
 69.6666666667 320 0 421 0 623 c 0
 0 675 14.1666666667 723.833333333 42.5 769.5 c 128
 70.8333333333 815.166666667 112.666666667 852 168 880 c 128
 223.333333333 908 288.333333333 922 363 922 c 0
 506.333333333 922 593.666666667 883 625 805 c 1
 655 883 719.666666667 922 819 922 c 0
 919 922 995.333333333 893.666666667 1048 837 c 128
 1100.66666667 780.333333333 1127 700.666666667 1127 598 c 0
250 628 m 0
 230 644 207.666666667 652 183 652 c 0
 137 652 100 627.333333333 72 578 c 1
 72 530 83 490 105 458 c 128
 127 426 156.333333333 410 193 410 c 0
 224.333333333 410 248.833333333 422.5 266.5 447.5 c 128
 284.166666667 472.5 293 501.666666667 293 535 c 0
 293 549.666666667 290 564.666666667 284 580 c 0
 276 600.666666667 264.666666667 616.666666667 250 628 c 0
610 1309 m 256
 641.333333333 1309 668.666666667 1297.33333333 692 1274 c 128
 715.333333333 1250.66666667 727 1223.33333333 727 1192 c 0
 727 1162 715.333333333 1135 692 1111 c 128
 668.666666667 1087 641.333333333 1075 610 1075 c 0
 580 1075 553 1086.66666667 529 1110 c 128
 505 1133.33333333 493 1160.66666667 493 1192 c 256
 493 1223.33333333 504.666666667 1250.66666667 528 1274 c 128
 551.333333333 1297.33333333 578.666666667 1309 610 1309 c 256
EndSplineSet
EndChar

StartChar: u0B9E
Encoding: 81 2974 81
Width: 1813
Flags: HW
AnchorPoint: "V" 928 932 basechar 0
AnchorPoint: "N" 928 -410 basechar 0
LayerCount: 2
Fore
SplineSet
1608 213 m 0
 1608 126.333333333 1592.66666667 45.1666666667 1562 -30.5 c 128
 1531.33333333 -106.166666667 1483.83333333 -172 1419.5 -228 c 128
 1355.16666667 -284 1270.83333333 -328.333333333 1166.5 -361 c 128
 1062.16666667 -393.666666667 939.666666667 -410 799 -410 c 0
 674.333333333 -410 562.5 -393.833333333 463.5 -361.5 c 128
 364.5 -329.166666667 280.5 -281.833333333 211.5 -219.5 c 128
 142.5 -157.166666667 90 -81.8333333333 54 6.5 c 128
 18 94.8333333333 0 195 0 307 c 0
 0 392.333333333 8.66666666667 475.333333333 26 556 c 0
 34 594 44.3333333333 631.333333333 57 668 c 128
 69.6666666667 704.666666667 84 738.666666667 100 770 c 0
 131.333333333 832 168.333333333 882.666666667 211 922 c 1
 256 881 l 1
 194.666666667 819.666666667 148.666666667 738 118 636 c 128
 87.3333333333 534 72 422.333333333 72 301 c 0
 72 207.666666667 89 121.166666667 123 41.5 c 128
 157 -38.1666666667 205.833333333 -106.166666667 269.5 -162.5 c 128
 333.166666667 -218.833333333 408.833333333 -262.166666667 496.5 -292.5 c 128
 584.166666667 -322.833333333 679.666666667 -338 783 -338 c 0
 938.333333333 -338 1066.16666667 -312.5 1166.5 -261.5 c 128
 1266.83333333 -210.5 1339.83333333 -143.333333333 1385.5 -60 c 128
 1431.16666667 23.3333333333 1454 113 1454 209 c 0
 1454 268.333333333 1440 324 1412 376 c 0
 1398 402 1379.33333333 421.666666667 1356 435 c 128
 1332.66666667 448.333333333 1304 455 1270 455 c 0
 1210 455 1169 433.666666667 1147 391 c 1
 1147 0 l 1
 994 0 l 1
 994 850 l 1
 703 850 l 2
 618.333333333 850 547.5 832.833333333 490.5 798.5 c 128
 433.5 764.166666667 391 721.666666667 363 671 c 0
 348.333333333 643.666666667 337.5 618.5 330.5 595.5 c 128
 323.5 572.5 320 548 320 522 c 1
 336.666666667 546.666666667 363.333333333 567 400 583 c 0
 417.333333333 590.333333333 435.833333333 596 455.5 600 c 128
 475.166666667 604 496 606 518 606 c 0
 598 606 662.833333333 578.833333333 712.5 524.5 c 128
 762.166666667 470.166666667 787 400.666666667 787 316 c 0
 787 219.333333333 767.833333333 142.5 729.5 85.5 c 128
 691.166666667 28.5 633 0 555 0 c 0
 457 0 381 37.1666666667 327 111.5 c 128
 273 185.833333333 246 290 246 424 c 0
 246 524 263.833333333 611.5 299.5 686.5 c 128
 335.166666667 761.5 386.5 819.5 453.5 860.5 c 128
 520.5 901.5 597.333333333 922 684 922 c 2
 1352 922 l 1
 1352 850 l 1
 1147 850 l 1
 1147 482 l 1
 1159.66666667 504 1180.5 521.333333333 1209.5 534 c 128
 1238.5 546.666666667 1269.66666667 553 1303 553 c 0
 1369 553 1425.33333333 536 1472 502 c 128
 1518.66666667 468 1553 424.833333333 1575 372.5 c 128
 1597 320.166666667 1608 267 1608 213 c 0
633 312 m 0
 633 344 625.333333333 375.166666667 610 405.5 c 128
 594.666666667 435.833333333 575 460.166666667 551 478.5 c 128
 527 496.833333333 501 506 473 506 c 0
 434.333333333 506 401.5 495.333333333 374.5 474 c 128
 347.5 452.666666667 328.666666667 425 318 391 c 1
 318 314.333333333 333.166666667 250.5 363.5 199.5 c 128
 393.833333333 148.5 436.666666667 123 492 123 c 0
 536 123 570.5 141.5 595.5 178.5 c 128
 620.5 215.5 633 260 633 312 c 0
EndSplineSet
EndChar

StartChar: u0B9E_u0BBF
Encoding: 82 -1 82
Width: 2007
Flags: HW
AnchorPoint: "V" 928 932 basechar 0
AnchorPoint: "N" 928 -410 basechar 0
LayerCount: 2
Fore
SplineSet
1802 0 m 1
 1741 0 l 1
 1741 1065 l 2
 1741 1150.33333333 1719.33333333 1218.83333333 1676 1270.5 c 128
 1632.66666667 1322.16666667 1547.33333333 1348 1420 1348 c 0
 1202.66666667 1348 1094 1249.66666667 1094 1053 c 0
 1094 1002.33333333 1108.33333333 958.666666667 1137 922 c 1
 1352 922 l 1
 1352 850 l 1
 1147 850 l 1
 1147 514 l 1
 1157 526 1166.83333333 536.5 1176.5 545.5 c 128
 1186.16666667 554.5 1196.66666667 561.666666667 1208 567 c 0
 1234 581 1266.33333333 588 1305 588 c 0
 1327.66666667 588 1352.66666667 582.5 1380 571.5 c 128
 1407.33333333 560.5 1433.66666667 543 1459 519 c 0
 1494.33333333 485.666666667 1522.83333333 438 1544.5 376 c 128
 1566.16666667 314 1577 242 1577 160 c 0
 1577 80.6666666667 1561.33333333 6.83333333333 1530 -61.5 c 128
 1498.66666667 -129.833333333 1449.66666667 -190.166666667 1383 -242.5 c 128
 1316.33333333 -294.833333333 1232.66666667 -336 1132 -366 c 0
 1080.66666667 -380.666666667 1026.16666667 -391.666666667 968.5 -399 c 128
 910.833333333 -406.333333333 847.333333333 -410 778 -410 c 0
 673.333333333 -410 574.166666667 -393.833333333 480.5 -361.5 c 128
 386.833333333 -329.166666667 303.833333333 -281.833333333 231.5 -219.5 c 128
 159.166666667 -157.166666667 102.5 -80.6666666667 61.5 10 c 128
 20.5 100.666666667 0 199.666666667 0 307 c 0
 0 392.333333333 8.66666666667 475.333333333 26 556 c 0
 34 594 44.3333333333 631.333333333 57 668 c 128
 69.6666666667 704.666666667 84 738.666666667 100 770 c 0
 131.333333333 832 168.333333333 882.666666667 211 922 c 1
 256 881 l 1
 194.666666667 819.666666667 148.666666667 738 118 636 c 128
 87.3333333333 534 72 422.333333333 72 301 c 0
 72 208.333333333 91 122.666666667 129 44 c 128
 167 -34.6666666667 219.833333333 -102.833333333 287.5 -160.5 c 128
 355.166666667 -218.166666667 431.5 -262.166666667 516.5 -292.5 c 128
 601.5 -322.833333333 690.333333333 -338 783 -338 c 0
 934.333333333 -338 1058.66666667 -313.333333333 1156 -264 c 128
 1253.33333333 -214.666666667 1324 -150.666666667 1368 -72 c 128
 1412 6.66666666667 1434 89.3333333333 1434 176 c 0
 1434 254 1422.66666667 316.666666667 1400 364 c 0
 1382 402 1361 431 1337 451 c 0
 1310.33333333 473 1281.33333333 484 1250 484 c 0
 1227.33333333 484 1207.5 479.333333333 1190.5 470 c 128
 1173.5 460.666666667 1159 447.333333333 1147 430 c 1
 1147 0 l 1
 994 0 l 1
 994 850 l 1
 703 850 l 2
 618.333333333 850 547.5 832.833333333 490.5 798.5 c 128
 433.5 764.166666667 391 721.666666667 363 671 c 0
 348.333333333 643.666666667 337.5 618.5 330.5 595.5 c 128
 323.5 572.5 320 548 320 522 c 1
 336.666666667 546.666666667 363.333333333 567 400 583 c 0
 417.333333333 590.333333333 435.833333333 596 455.5 600 c 128
 475.166666667 604 496 606 518 606 c 0
 598 606 662.833333333 578.833333333 712.5 524.5 c 128
 762.166666667 470.166666667 787 400.666666667 787 316 c 0
 787 219.333333333 767.833333333 142.5 729.5 85.5 c 128
 691.166666667 28.5 633 0 555 0 c 0
 457 0 381 37.1666666667 327 111.5 c 128
 273 185.833333333 246 290 246 424 c 0
 246 524 263.833333333 611.5 299.5 686.5 c 128
 335.166666667 761.5 386.5 819.5 453.5 860.5 c 128
 520.5 901.5 597.333333333 922 684 922 c 2
 1063 922 l 1
 1030.33333333 986 1014 1057 1014 1135 c 0
 1014 1191.66666667 1022.33333333 1241.66666667 1039 1285 c 128
 1055.66666667 1328.33333333 1081.33333333 1365.33333333 1116 1396 c 128
 1150.66666667 1426.66666667 1193.66666667 1449.5 1245 1464.5 c 128
 1296.33333333 1479.5 1355.33333333 1487 1422 1487 c 0
 1534.66666667 1487 1619.16666667 1465.66666667 1675.5 1423 c 128
 1731.83333333 1380.33333333 1767 1329.83333333 1781 1271.5 c 128
 1795 1213.16666667 1802 1145 1802 1067 c 2
 1802 0 l 1
633 312 m 0
 633 344 625.333333333 375.166666667 610 405.5 c 128
 594.666666667 435.833333333 575 460.166666667 551 478.5 c 128
 527 496.833333333 501 506 473 506 c 0
 434.333333333 506 401.5 495.333333333 374.5 474 c 128
 347.5 452.666666667 328.666666667 425 318 391 c 1
 318 314.333333333 333.166666667 250.5 363.5 199.5 c 128
 393.833333333 148.5 436.666666667 123 492 123 c 0
 536 123 570.5 141.5 595.5 178.5 c 128
 620.5 215.5 633 260 633 312 c 0
EndSplineSet
EndChar

StartChar: u0B9E_u0BC0
Encoding: 83 -1 83
Width: 1813
Flags: HW
AnchorPoint: "V" 928 1369.88 basechar 0
AnchorPoint: "N" 928 -410 basechar 0
LayerCount: 2
Fore
SplineSet
633 312 m 0
 633 344 625.333333333 375.166666667 610 405.5 c 128
 594.666666667 435.833333333 575 460.166666667 551 478.5 c 128
 527 496.833333333 501 506 473 506 c 0
 434.333333333 506 401.5 495.333333333 374.5 474 c 128
 347.5 452.666666667 328.666666667 425 318 391 c 1
 318 314.333333333 333.166666667 250.5 363.5 199.5 c 128
 393.833333333 148.5 436.666666667 123 492 123 c 0
 536 123 570.5 141.5 595.5 178.5 c 128
 620.5 215.5 633 260 633 312 c 0
1514 1233 m 0
 1514 1271.66666667 1500.5 1305.33333333 1473.5 1334 c 128
 1446.5 1362.66666667 1412 1377 1370 1377 c 1
 1334.66666667 1370.33333333 1306.16666667 1353.16666667 1284.5 1325.5 c 128
 1262.83333333 1297.83333333 1252 1266.33333333 1252 1231 c 0
 1252 1207 1257.5 1185 1268.5 1165 c 128
 1279.5 1145 1294.83333333 1128.83333333 1314.5 1116.5 c 128
 1334.16666667 1104.16666667 1355.66666667 1098 1379 1098 c 0
 1415.66666667 1098 1447.33333333 1111.33333333 1474 1138 c 128
 1500.66666667 1164.66666667 1514 1196.33333333 1514 1233 c 0
1352 922 m 1
 1352 850 l 1
 1147 850 l 1
 1147 482 l 1
 1159.66666667 504 1180.5 521.333333333 1209.5 534 c 128
 1238.5 546.666666667 1269.66666667 553 1303 553 c 0
 1369 553 1425.33333333 536 1472 502 c 128
 1518.66666667 468 1553 424.833333333 1575 372.5 c 128
 1597 320.166666667 1608 267 1608 213 c 0
 1608 126.333333333 1592.66666667 45.1666666667 1562 -30.5 c 128
 1531.33333333 -106.166666667 1483.83333333 -172 1419.5 -228 c 128
 1355.16666667 -284 1270.83333333 -328.333333333 1166.5 -361 c 128
 1062.16666667 -393.666666667 939.666666667 -410 799 -410 c 0
 674.333333333 -410 562.5 -393.833333333 463.5 -361.5 c 128
 364.5 -329.166666667 280.5 -281.833333333 211.5 -219.5 c 128
 142.5 -157.166666667 90 -81.8333333333 54 6.5 c 128
 18 94.8333333333 0 195 0 307 c 0
 0 392.333333333 8.66666666667 475.333333333 26 556 c 0
 34 594 44.3333333333 631.333333333 57 668 c 128
 69.6666666667 704.666666667 84 738.666666667 100 770 c 0
 131.333333333 832 168.333333333 882.666666667 211 922 c 1
 256 881 l 1
 194.666666667 819.666666667 148.666666667 738 118 636 c 128
 87.3333333333 534 72 422.333333333 72 301 c 0
 72 207.666666667 89 121.166666667 123 41.5 c 128
 157 -38.1666666667 205.833333333 -106.166666667 269.5 -162.5 c 128
 333.166666667 -218.833333333 408.833333333 -262.166666667 496.5 -292.5 c 128
 584.166666667 -322.833333333 679.666666667 -338 783 -338 c 0
 938.333333333 -338 1066.16666667 -312.5 1166.5 -261.5 c 128
 1266.83333333 -210.5 1339.83333333 -143.333333333 1385.5 -60 c 128
 1431.16666667 23.3333333333 1454 113 1454 209 c 0
 1454 268.333333333 1440 324 1412 376 c 0
 1398 402 1379.33333333 421.666666667 1356 435 c 128
 1332.66666667 448.333333333 1304 455 1270 455 c 0
 1210 455 1169 433.666666667 1147 391 c 1
 1147 0 l 1
 994 0 l 1
 994 850 l 1
 703 850 l 2
 618.333333333 850 547.5 832.833333333 490.5 798.5 c 128
 433.5 764.166666667 391 721.666666667 363 671 c 0
 348.333333333 643.666666667 337.5 618.5 330.5 595.5 c 128
 323.5 572.5 320 548 320 522 c 1
 336.666666667 546.666666667 363.333333333 567 400 583 c 0
 417.333333333 590.333333333 435.833333333 596 455.5 600 c 128
 475.166666667 604 496 606 518 606 c 0
 598 606 662.833333333 578.833333333 712.5 524.5 c 128
 762.166666667 470.166666667 787 400.666666667 787 316 c 0
 787 219.333333333 767.833333333 142.5 729.5 85.5 c 128
 691.166666667 28.5 633 0 555 0 c 0
 457 0 381 37.1666666667 327 111.5 c 128
 273 185.833333333 246 290 246 424 c 0
 246 524 263.833333333 611.5 299.5 686.5 c 128
 335.166666667 761.5 386.5 819.5 453.5 860.5 c 128
 520.5 901.5 597.333333333 922 684 922 c 2
 996 922 l 1
 964 949.333333333 936.166666667 984.333333333 912.5 1027 c 128
 888.833333333 1069.66666667 877 1114.33333333 877 1161 c 0
 877 1250.33333333 895.666666667 1322.66666667 933 1378 c 128
 970.333333333 1433.33333333 1017.83333333 1473.5 1075.5 1498.5 c 128
 1133.16666667 1523.5 1192 1536 1252 1536 c 0
 1352.66666667 1536 1441.66666667 1515 1519 1473 c 128
 1596.33333333 1431 1635 1358.66666667 1635 1256 c 0
 1635 1192.66666667 1613.16666667 1139.83333333 1569.5 1097.5 c 128
 1525.83333333 1055.16666667 1469 1034 1399 1034 c 0
 1333 1034 1280.66666667 1053.66666667 1242 1093 c 128
 1203.33333333 1132.33333333 1184 1179 1184 1233 c 0
 1184 1266.33333333 1192 1300.33333333 1208 1335 c 128
 1224 1369.66666667 1245.33333333 1394.33333333 1272 1409 c 1
 1244.66666667 1413 1219.33333333 1415 1196 1415 c 0
 1125.33333333 1415 1067.83333333 1386.33333333 1023.5 1329 c 128
 979.166666667 1271.66666667 957 1207.66666667 957 1137 c 0
 957 1095.66666667 966.333333333 1055.5 985 1016.5 c 128
 1003.66666667 977.5 1027 946 1055 922 c 1
 1352 922 l 1
EndSplineSet
EndChar

StartChar: u0B9E_u0BC1
Encoding: 84 -1 84
Width: 2202
Flags: HW
AnchorPoint: "V" 928 932 basechar 0
AnchorPoint: "N" 928 -410 basechar 0
LayerCount: 2
Fore
SplineSet
633 312 m 0
 633 344 625.333333333 375.166666667 610 405.5 c 128
 594.666666667 435.833333333 575 460.166666667 551 478.5 c 128
 527 496.833333333 501 506 473 506 c 0
 434.333333333 506 401.5 495.333333333 374.5 474 c 128
 347.5 452.666666667 328.666666667 425 318 391 c 1
 318 314.333333333 333.166666667 250.5 363.5 199.5 c 128
 393.833333333 148.5 436.666666667 123 492 123 c 0
 536 123 570.5 141.5 595.5 178.5 c 128
 620.5 215.5 633 260 633 312 c 0
1344 -154 m 1
 142 -154 l 2
 113.333333333 -154 99 -161.333333333 99 -176 c 0
 99 -182 101.666666667 -189 107 -197 c 0
 140.333333333 -250.333333333 215.833333333 -304.333333333 333.5 -359 c 128
 451.166666667 -413.666666667 601 -441 783 -441 c 0
 867.666666667 -441 945.833333333 -428.833333333 1017.5 -404.5 c 128
 1089.16666667 -380.166666667 1152.16666667 -346.166666667 1206.5 -302.5 c 128
 1260.83333333 -258.833333333 1306.66666667 -209.333333333 1344 -154 c 1
1549 -82 m 1
 1843 -82 l 1
 1843 922 l 1
 1997 922 l 1
 1997 -154 l 1
 1514 -154 l 1
 1472 -224.666666667 1417.83333333 -287 1351.5 -341 c 128
 1285.16666667 -395 1205.33333333 -437 1112 -467 c 128
 1018.66666667 -497 914.333333333 -512 799 -512 c 0
 639 -512 503.833333333 -492.833333333 393.5 -454.5 c 128
 283.166666667 -416.166666667 197.666666667 -370.666666667 137 -318 c 128
 76.3333333333 -265.333333333 34 -214.666666667 10 -166 c 0
 6 -156.666666667 3.33333333333 -147 2 -137 c 0
 2 -100.333333333 24 -82 68 -82 c 2
 1385 -82 l 1
 1431 11.3333333333 1454 108.333333333 1454 209 c 0
 1454 268.333333333 1440 324 1412 376 c 0
 1398 402 1379.33333333 421.666666667 1356 435 c 128
 1332.66666667 448.333333333 1304 455 1270 455 c 0
 1210 455 1169 433.666666667 1147 391 c 1
 1147 0 l 1
 994 0 l 1
 994 850 l 1
 703 850 l 2
 618.333333333 850 547.5 832.833333333 490.5 798.5 c 128
 433.5 764.166666667 391 721.666666667 363 671 c 0
 348.333333333 643.666666667 337.5 618.5 330.5 595.5 c 128
 323.5 572.5 320 548 320 522 c 1
 336.666666667 546.666666667 363.333333333 567 400 583 c 0
 417.333333333 590.333333333 435.833333333 596 455.5 600 c 128
 475.166666667 604 496 606 518 606 c 0
 598 606 662.833333333 578.833333333 712.5 524.5 c 128
 762.166666667 470.166666667 787 400.666666667 787 316 c 0
 787 219.333333333 767.833333333 142.5 729.5 85.5 c 128
 691.166666667 28.5 633 0 555 0 c 0
 457 0 381 37.1666666667 327 111.5 c 128
 273 185.833333333 246 290 246 424 c 0
 246 524 263.833333333 611.5 299.5 686.5 c 128
 335.166666667 761.5 386.5 819.5 453.5 860.5 c 128
 520.5 901.5 597.333333333 922 684 922 c 2
 1352 922 l 1
 1352 850 l 1
 1147 850 l 1
 1147 482 l 1
 1159.66666667 504 1180.5 521.333333333 1209.5 534 c 128
 1238.5 546.666666667 1269.66666667 553 1303 553 c 0
 1369 553 1425.33333333 536 1472 502 c 128
 1518.66666667 468 1553 424.833333333 1575 372.5 c 128
 1597 320.166666667 1608 267 1608 213 c 0
 1608 112.333333333 1588.33333333 14 1549 -82 c 1
EndSplineSet
EndChar

StartChar: u0B9E_u0BC2
Encoding: 85 -1 85
Width: 2714
Flags: HW
AnchorPoint: "V" 928 932 basechar 0
AnchorPoint: "N" 928 -410 basechar 0
LayerCount: 2
Fore
SplineSet
633 312 m 0
 633 344 625.333333333 375.166666667 610 405.5 c 128
 594.666666667 435.833333333 575 460.166666667 551 478.5 c 128
 527 496.833333333 501 506 473 506 c 0
 434.333333333 506 401.5 495.333333333 374.5 474 c 128
 347.5 452.666666667 328.666666667 425 318 391 c 1
 318 314.333333333 333.166666667 250.5 363.5 199.5 c 128
 393.833333333 148.5 436.666666667 123 492 123 c 0
 536 123 570.5 141.5 595.5 178.5 c 128
 620.5 215.5 633 260 633 312 c 0
1344 -154 m 1
 131 -154 l 2
 102.333333333 -154 88 -161.333333333 88 -176 c 0
 88 -182 91 -189 97 -197 c 0
 115 -227 152.666666667 -261 210 -299 c 128
 267.333333333 -337 345.333333333 -370 444 -398 c 0
 493.333333333 -412 546.166666667 -422.666666667 602.5 -430 c 128
 658.833333333 -437.333333333 719 -441 783 -441 c 0
 909.666666667 -441 1020.33333333 -414.833333333 1115 -362.5 c 128
 1209.66666667 -310.166666667 1286 -240.666666667 1344 -154 c 1
1385 -82 m 1
 1431 11.3333333333 1454 108.333333333 1454 209 c 0
 1454 268.333333333 1440 324 1412 376 c 0
 1398 402 1379.33333333 421.666666667 1356 435 c 128
 1332.66666667 448.333333333 1304 455 1270 455 c 0
 1210 455 1169 433.666666667 1147 391 c 1
 1147 0 l 1
 994 0 l 1
 994 850 l 1
 703 850 l 2
 618.333333333 850 547.5 832.833333333 490.5 798.5 c 128
 433.5 764.166666667 391 721.666666667 363 671 c 0
 348.333333333 643.666666667 337.5 618.5 330.5 595.5 c 128
 323.5 572.5 320 548 320 522 c 1
 336.666666667 546.666666667 363.333333333 567 400 583 c 0
 417.333333333 590.333333333 435.833333333 596 455.5 600 c 128
 475.166666667 604 496 606 518 606 c 0
 598 606 662.833333333 578.833333333 712.5 524.5 c 128
 762.166666667 470.166666667 787 400.666666667 787 316 c 0
 787 219.333333333 767.833333333 142.5 729.5 85.5 c 128
 691.166666667 28.5 633 0 555 0 c 0
 457 0 381 37.1666666667 327 111.5 c 128
 273 185.833333333 246 290 246 424 c 0
 246 524 263.833333333 611.5 299.5 686.5 c 128
 335.166666667 761.5 386.5 819.5 453.5 860.5 c 128
 520.5 901.5 597.333333333 922 684 922 c 2
 1352 922 l 1
 1352 850 l 1
 1147 850 l 1
 1147 482 l 1
 1159.66666667 504 1180.5 521.333333333 1209.5 534 c 128
 1238.5 546.666666667 1269.66666667 553 1303 553 c 0
 1369 553 1425.33333333 536 1472 502 c 128
 1518.66666667 468 1553 424.833333333 1575 372.5 c 128
 1597 320.166666667 1608 267 1608 213 c 0
 1608 107 1588.33333333 8.66666666667 1549 -82 c 1
 1843 -82 l 1
 1843 922 l 1
 2509 922 l 1
 2509 850 l 1
 2304 850 l 1
 2304 -154 l 1
 2151 -154 l 1
 2151 850 l 1
 1915 850 l 1
 1915 -154 l 1
 1512 -154 l 1
 1471.33333333 -224 1417.66666667 -286.333333333 1351 -341 c 0
 1287 -393 1207.83333333 -434.5 1113.5 -465.5 c 128
 1019.16666667 -496.5 914.333333333 -512 799 -512 c 0
 639 -512 503.833333333 -492.833333333 393.5 -454.5 c 128
 283.166666667 -416.166666667 197.666666667 -370.666666667 137 -318 c 128
 76.3333333333 -265.333333333 34 -214.666666667 10 -166 c 0
 6 -156.666666667 3.33333333333 -147 2 -137 c 0
 2 -100.333333333 24 -82 68 -82 c 2
 1385 -82 l 1
EndSplineSet
EndChar

StartChar: u0B9E_u0BCD
Encoding: 86 -1 86
Width: 1782
Flags: HW
AnchorPoint: "N" 928 -410 basechar 0
LayerCount: 2
Fore
SplineSet
1608 213 m 0
 1608 126.333333333 1592.66666667 45.1666666667 1562 -30.5 c 128
 1531.33333333 -106.166666667 1483.83333333 -172 1419.5 -228 c 128
 1355.16666667 -284 1270.83333333 -328.333333333 1166.5 -361 c 128
 1062.16666667 -393.666666667 939.666666667 -410 799 -410 c 0
 674.333333333 -410 562.5 -393.833333333 463.5 -361.5 c 128
 364.5 -329.166666667 280.5 -281.833333333 211.5 -219.5 c 128
 142.5 -157.166666667 90 -81.8333333333 54 6.5 c 128
 18 94.8333333333 0 195 0 307 c 0
 0 392.333333333 8.66666666667 475.333333333 26 556 c 0
 34 594 44.3333333333 631.333333333 57 668 c 128
 69.6666666667 704.666666667 84 738.666666667 100 770 c 0
 131.333333333 832 168.333333333 882.666666667 211 922 c 1
 256 881 l 1
 194.666666667 819.666666667 148.666666667 738 118 636 c 128
 87.3333333333 534 72 422.333333333 72 301 c 0
 72 207.666666667 89 121.166666667 123 41.5 c 128
 157 -38.1666666667 205.833333333 -106.166666667 269.5 -162.5 c 128
 333.166666667 -218.833333333 408.833333333 -262.166666667 496.5 -292.5 c 128
 584.166666667 -322.833333333 679.666666667 -338 783 -338 c 0
 938.333333333 -338 1066.16666667 -312.5 1166.5 -261.5 c 128
 1266.83333333 -210.5 1339.83333333 -143.333333333 1385.5 -60 c 128
 1431.16666667 23.3333333333 1454 113 1454 209 c 0
 1454 268.333333333 1440 324 1412 376 c 0
 1398 402 1379.33333333 421.666666667 1356 435 c 128
 1332.66666667 448.333333333 1304 455 1270 455 c 0
 1210 455 1169 433.666666667 1147 391 c 1
 1147 0 l 1
 994 0 l 1
 994 850 l 1
 703 850 l 2
 618.333333333 850 547.5 832.833333333 490.5 798.5 c 128
 433.5 764.166666667 391 721.666666667 363 671 c 0
 348.333333333 643.666666667 337.5 618.5 330.5 595.5 c 128
 323.5 572.5 320 548 320 522 c 1
 336.666666667 546.666666667 363.333333333 567 400 583 c 0
 417.333333333 590.333333333 435.833333333 596 455.5 600 c 128
 475.166666667 604 496 606 518 606 c 0
 598 606 662.833333333 578.833333333 712.5 524.5 c 128
 762.166666667 470.166666667 787 400.666666667 787 316 c 0
 787 219.333333333 767.833333333 142.5 729.5 85.5 c 128
 691.166666667 28.5 633 0 555 0 c 0
 457 0 381 37.1666666667 327 111.5 c 128
 273 185.833333333 246 290 246 424 c 0
 246 524 263.833333333 611.5 299.5 686.5 c 128
 335.166666667 761.5 386.5 819.5 453.5 860.5 c 128
 520.5 901.5 597.333333333 922 684 922 c 2
 1352 922 l 1
 1352 850 l 1
 1147 850 l 1
 1147 482 l 1
 1159.66666667 504 1180.5 521.333333333 1209.5 534 c 128
 1238.5 546.666666667 1269.66666667 553 1303 553 c 0
 1369 553 1425.33333333 536 1472 502 c 128
 1518.66666667 468 1553 424.833333333 1575 372.5 c 128
 1597 320.166666667 1608 267 1608 213 c 0
633 312 m 0
 633 344 625.333333333 375.166666667 610 405.5 c 128
 594.666666667 435.833333333 575 460.166666667 551 478.5 c 128
 527 496.833333333 501 506 473 506 c 0
 434.333333333 506 401.5 495.333333333 374.5 474 c 128
 347.5 452.666666667 328.666666667 425 318 391 c 1
 318 314.333333333 333.166666667 250.5 363.5 199.5 c 128
 393.833333333 148.5 436.666666667 123 492 123 c 0
 536 123 570.5 141.5 595.5 178.5 c 128
 620.5 215.5 633 260 633 312 c 0
928 1309 m 256
 959.333333333 1309 986.666666667 1297.33333333 1010 1274 c 128
 1033.33333333 1250.66666667 1045 1223.33333333 1045 1192 c 0
 1045 1162 1033.33333333 1135 1010 1111 c 128
 986.666666667 1087 959.333333333 1075 928 1075 c 0
 898 1075 871 1086.66666667 847 1110 c 128
 823 1133.33333333 811 1160.66666667 811 1192 c 256
 811 1223.33333333 822.666666667 1250.66666667 846 1274 c 128
 869.333333333 1297.33333333 896.666666667 1309 928 1309 c 256
EndSplineSet
EndChar

StartChar: u0B9F
Encoding: 87 2975 87
Width: 1475
Flags: HW
AnchorPoint: "V" 651.5 932 basechar 0
AnchorPoint: "N" 651.5 0 basechar 0
LayerCount: 2
Fore
SplineSet
1270 0 m 1
 0 0 l 1
 0 922 l 1
 144 922 l 1
 144 72 l 1
 1270 72 l 1
 1270 0 l 1
EndSplineSet
EndChar

StartChar: u0B9F_u0BBF
Encoding: 88 -1 88
Width: 1311
Flags: HW
AnchorPoint: "V" 651.5 932 basechar 0
AnchorPoint: "N" 651.5 0 basechar 0
LayerCount: 2
Fore
SplineSet
1106 0 m 1
 901 0 l 1
 901 -441 l 1
 758 -441 l 1
 758 0 l 1
 0 0 l 1
 0 922 l 1
 144 922 l 1
 144 62 l 1
 629 62 l 1
 546.333333333 122 479.333333333 208.666666667 428 322 c 0
 391.333333333 403.333333333 373 488 373 576 c 0
 373 679.333333333 401.833333333 762.833333333 459.5 826.5 c 128
 517.166666667 890.166666667 592.666666667 922 686 922 c 0
 755.333333333 922 808.5 899.666666667 845.5 855 c 128
 882.5 810.333333333 901 757 901 695 c 2
 901 62 l 1
 1106 62 l 1
 1106 0 l 1
758 62 m 1
 758 705 l 2
 758 736.333333333 747.833333333 760.833333333 727.5 778.5 c 128
 707.166666667 796.166666667 685.333333333 805 662 805 c 0
 603.333333333 805 556 781 520 733 c 0
 480.666666667 682.333333333 461 614.333333333 461 529 c 0
 461 454.333333333 477.333333333 384.666666667 510 320 c 0
 525.333333333 290.666666667 542 263 560 237 c 128
 578 211 598.666666667 186 622 162 c 0
 667.333333333 115.333333333 712.666666667 82 758 62 c 1
EndSplineSet
EndChar

StartChar: u0B9F_u0BC0
Encoding: 89 -1 89
Width: 1229
Flags: HW
AnchorPoint: "V" 651.5 932 basechar 0
AnchorPoint: "N" 651.5 0 basechar 0
LayerCount: 2
Fore
SplineSet
463 62 m 1
 1024 62 l 1
 1024 0 l 1
 0 0 l 1
 0 922 l 1
 144 922 l 1
 144 62 l 1
 406 62 l 1
 371.333333333 85.3333333333 340.166666667 120.333333333 312.5 167 c 128
 284.833333333 213.666666667 271 262.666666667 271 314 c 0
 271 402 290 474 328 530 c 128
 366 586 413.333333333 626.333333333 470 651 c 128
 526.666666667 675.666666667 585 688 645 688 c 0
 745.666666667 688 834.666666667 667 912 625 c 128
 989.333333333 583 1028 510.666666667 1028 408 c 0
 1028 365.333333333 1018.5 327.666666667 999.5 295 c 128
 980.5 262.333333333 952.5 236.166666667 915.5 216.5 c 128
 878.5 196.833333333 837.666666667 187 793 187 c 0
 725.666666667 187 673 206.5 635 245.5 c 128
 597 284.5 578 331 578 385 c 0
 578 418.333333333 586.166666667 452.666666667 602.5 488 c 128
 618.833333333 523.333333333 640 547.666666667 666 561 c 1
 650 563 636.166666667 564.666666667 624.5 566 c 128
 612.833333333 567.333333333 601.333333333 568 590 568 c 0
 520 568 462.5 539.166666667 417.5 481.5 c 128
 372.5 423.833333333 350 359.666666667 350 289 c 0
 350 243 361.166666667 199.166666667 383.5 157.5 c 128
 405.833333333 115.833333333 432.333333333 84 463 62 c 1
908 385 m 0
 908 424.333333333 894.666666667 458.166666667 868 486.5 c 128
 841.333333333 514.833333333 806.666666667 529 764 529 c 1
 728 521.666666667 699.166666667 504.333333333 677.5 477 c 128
 655.833333333 449.666666667 645 418.333333333 645 383 c 256
 645 347.666666667 657.5 316.666666667 682.5 290 c 128
 707.5 263.333333333 737.333333333 250 772 250 c 0
 809.333333333 250 841.333333333 263.333333333 868 290 c 0
 882 304 892.166666667 318.5 898.5 333.5 c 128
 904.833333333 348.5 908 365.666666667 908 385 c 0
EndSplineSet
EndChar

StartChar: u0B9F_u0BC1
Encoding: 90 -1 90
Width: 1546
Flags: HW
AnchorPoint: "V" 651.5 1351.96 basechar 0
AnchorPoint: "N" 651.5 0 basechar 0
LayerCount: 2
Fore
SplineSet
1280 0 m 1
 1219 0 l 1
 1249 116 1264 251.333333333 1264 406 c 0
 1264 492.666666667 1258.66666667 575.833333333 1248 655.5 c 128
 1237.33333333 735.166666667 1220.33333333 803.5 1197 860.5 c 128
 1173.66666667 917.5 1144.5 967.5 1109.5 1010.5 c 128
 1074.5 1053.5 1034.16666667 1087.83333333 988.5 1113.5 c 128
 942.833333333 1139.16666667 892.333333333 1158 837 1170 c 128
 781.666666667 1182 720 1188 652 1188 c 0
 528.666666667 1188 423.833333333 1157.5 337.5 1096.5 c 128
 251.166666667 1035.5 185.333333333 949.5 140 838.5 c 128
 94.6666666667 727.5 72 599.666666667 72 455 c 0
 72 401 74 350.666666667 78 304 c 128
 82 257.333333333 88.5 210.833333333 97.5 164.5 c 128
 106.5 118.166666667 117.666666667 75.6666666667 131 37 c 128
 144.333333333 -1.66666666667 161 -39 181 -75 c 0
 218.333333333 -143 268.166666667 -196.333333333 330.5 -235 c 128
 392.833333333 -273.666666667 467 -293 553 -293 c 256
 639 -293 710.833333333 -269 768.5 -221 c 128
 826.166666667 -173 869.5 -110.333333333 898.5 -33 c 128
 927.5 44.3333333333 942 125 942 209 c 0
 942 243 935.833333333 279 923.5 317 c 128
 911.166666667 355 890.166666667 387.5 860.5 414.5 c 128
 830.833333333 441.5 793.333333333 455 748 455 c 0
 681.333333333 455 637 433.666666667 615 391 c 1
 615 0 l 1
 461 0 l 1
 461 922 l 1
 615 922 l 1
 615 482 l 1
 627.666666667 502.666666667 650 519.666666667 682 533 c 128
 714 546.333333333 747 553 781 553 c 0
 847.666666667 553 904.666666667 536.166666667 952 502.5 c 128
 999.333333333 468.833333333 1035.16666667 425.5 1059.5 372.5 c 128
 1083.83333333 319.5 1096 266.333333333 1096 213 c 0
 1096 26.3333333333 1050.16666667 -116.666666667 958.5 -216 c 128
 866.833333333 -315.333333333 737.333333333 -365 570 -365 c 0
 370 -365 225 -289.5 135 -138.5 c 128
 45 12.5 0 216.333333333 0 473 c 0
 0 641.666666667 23.6666666667 792.166666667 71 924.5 c 128
 118.333333333 1056.83333333 191.666666667 1161.16666667 291 1237.5 c 128
 390.333333333 1313.83333333 513.333333333 1352 660 1352 c 0
 762.666666667 1352 855.166666667 1336 937.5 1304 c 128
 1019.83333333 1272 1088.83333333 1227 1144.5 1169 c 128
 1200.16666667 1111 1242.66666667 1042.33333333 1272 963 c 0
 1311.33333333 852.333333333 1331 699.333333333 1331 504 c 0
 1331 454.666666667 1330 408.5 1328 365.5 c 128
 1326 322.5 1322.33333333 277 1317 229 c 0
 1307.66666667 137.666666667 1295.33333333 61.3333333333 1280 0 c 1
EndSplineSet
EndChar

StartChar: u0B9F_u0BC2
Encoding: 91 -1 91
Width: 1536
Flags: HW
AnchorPoint: "V" 651.5 1351.19 basechar 0
AnchorPoint: "N" 651.5 0 basechar 0
LayerCount: 2
Fore
SplineSet
1372 776 m 0
 1372 710 1352.83333333 653.666666667 1314.5 607 c 128
 1276.16666667 560.333333333 1219.66666667 537 1145 537 c 0
 1065 537 1003.33333333 556.833333333 960 596.5 c 128
 916.666666667 636.166666667 895 688 895 752 c 0
 895 809.333333333 913.5 859.5 950.5 902.5 c 128
 987.5 945.5 1041.33333333 967 1112 967 c 0
 1138 967 1157.33333333 965.666666667 1170 963 c 1
 1144.66666667 1012.33333333 1107.5 1057.5 1058.5 1098.5 c 128
 1009.5 1139.5 950.166666667 1171.5 880.5 1194.5 c 128
 810.833333333 1217.5 738 1229 662 1229 c 0
 534 1229 425.5 1195.16666667 336.5 1127.5 c 128
 247.5 1059.83333333 181.166666667 967.166666667 137.5 849.5 c 128
 93.8333333333 731.833333333 72 600.333333333 72 455 c 0
 72 401 74 350.666666667 78 304 c 128
 82 257.333333333 88.5 210.833333333 97.5 164.5 c 128
 106.5 118.166666667 117.666666667 75.6666666667 131 37 c 128
 144.333333333 -1.66666666667 161 -39 181 -75 c 0
 218.333333333 -143 268.166666667 -196.333333333 330.5 -235 c 128
 392.833333333 -273.666666667 467 -293 553 -293 c 256
 639 -293 710.833333333 -269 768.5 -221 c 128
 826.166666667 -173 869.5 -110.333333333 898.5 -33 c 128
 927.5 44.3333333333 942 125 942 209 c 0
 942 243 935.833333333 279 923.5 317 c 128
 911.166666667 355 890.166666667 387.5 860.5 414.5 c 128
 830.833333333 441.5 793.333333333 455 748 455 c 0
 681.333333333 455 637 433.666666667 615 391 c 1
 615 0 l 1
 461 0 l 1
 461 922 l 1
 615 922 l 1
 615 482 l 1
 627.666666667 502.666666667 650 519.666666667 682 533 c 128
 714 546.333333333 747 553 781 553 c 0
 847.666666667 553 904.666666667 536.166666667 952 502.5 c 128
 999.333333333 468.833333333 1035.16666667 425.5 1059.5 372.5 c 128
 1083.83333333 319.5 1096 266.333333333 1096 213 c 0
 1096 26.3333333333 1050.16666667 -116.666666667 958.5 -216 c 128
 866.833333333 -315.333333333 737.333333333 -365 570 -365 c 0
 370 -365 225 -289.5 135 -138.5 c 128
 45 12.5 0 216.333333333 0 473 c 0
 0 649 25.6666666667 803.5 77 936.5 c 128
 128.333333333 1069.5 205.666666667 1172 309 1244 c 128
 412.333333333 1316 539.333333333 1352 690 1352 c 0
 792 1352 885.666666667 1336.5 971 1305.5 c 128
 1056.33333333 1274.5 1129 1231.66666667 1189 1177 c 128
 1249 1122.33333333 1294.5 1060.66666667 1325.5 992 c 128
 1356.5 923.333333333 1372 851.333333333 1372 776 c 0
1231 764 m 0
 1231 809.333333333 1214 847 1180 877 c 1
 1154 885 1131.33333333 889 1112 889 c 0
 1072 889 1039.66666667 877.666666667 1015 855 c 0
 1000.33333333 841.666666667 989.666666667 828.333333333 983 815 c 0
 973.666666667 797 969 776 969 752 c 0
 969 720.666666667 976.333333333 694.333333333 991 673 c 0
 1001.66666667 657.666666667 1015.33333333 645.833333333 1032 637.5 c 128
 1048.66666667 629.166666667 1068.66666667 625 1092 625 c 0
 1136 625 1170.66666667 639 1196 667 c 0
 1208 678.333333333 1216.83333333 692.333333333 1222.5 709 c 128
 1228.16666667 725.666666667 1231 744 1231 764 c 0
EndSplineSet
EndChar

StartChar: u0B9F_u0BCD
Encoding: 92 -1 92
Width: 1475
Flags: HW
AnchorPoint: "N" 651.5 0 basechar 0
LayerCount: 2
Fore
SplineSet
1270 0 m 1
 0 0 l 1
 0 922 l 1
 144 922 l 1
 144 72 l 1
 1270 72 l 1
 1270 0 l 1
768 1192 m 0
 768 1160.66666667 756.333333333 1133.33333333 733 1110 c 128
 709.666666667 1086.66666667 682.333333333 1075 651 1075 c 0
 620.333333333 1075 593.333333333 1086.66666667 570 1110 c 128
 546.666666667 1133.33333333 535 1160.66666667 535 1192 c 0
 535 1224 546.5 1251.5 569.5 1274.5 c 128
 592.5 1297.5 619.666666667 1309 651 1309 c 0
 683 1309 710.5 1297.5 733.5 1274.5 c 128
 756.5 1251.5 768 1224 768 1192 c 0
EndSplineSet
EndChar

StartChar: u0BA3
Encoding: 93 2979 93
Width: 2663
Flags: HW
AnchorPoint: "V" 1275.5 932 basechar 0
AnchorPoint: "N" 1275.5 78.3351 basechar 0
LayerCount: 2
Fore
SplineSet
387 312 m 0
 387 344 379.833333333 374.833333333 365.5 404.5 c 128
 351.166666667 434.166666667 331.5 458.5 306.5 477.5 c 128
 281.5 496.5 255.333333333 506 228 506 c 0
 189.333333333 506 156.166666667 494.833333333 128.5 472.5 c 128
 100.833333333 450.166666667 82 423 72 391 c 1
 72 314.333333333 87.1666666667 250.5 117.5 199.5 c 128
 147.833333333 148.5 190.666666667 123 246 123 c 0
 290.666666667 123 325.333333333 141.666666667 350 179 c 128
 374.666666667 216.333333333 387 260.666666667 387 312 c 0
1600 740 m 1
 1572.66666667 718.666666667 1549.33333333 695.666666667 1530 671 c 128
 1510.66666667 646.333333333 1493 618.333333333 1477 587 c 0
 1448.33333333 527.666666667 1434 462.333333333 1434 391 c 0
 1434 295 1448.33333333 217.833333333 1477 159.5 c 128
 1505.66666667 101.166666667 1544 72 1592 72 c 0
 1631.33333333 72 1662.5 84.6666666667 1685.5 110 c 128
 1708.5 135.333333333 1724.83333333 173.666666667 1734.5 225 c 128
 1744.16666667 276.333333333 1749 339.333333333 1749 414 c 0
 1749 474.666666667 1736.66666667 534 1712 592 c 128
 1687.33333333 650 1650 699.333333333 1600 740 c 1
924 740 m 1
 813.333333333 652.666666667 758 536.333333333 758 391 c 0
 758 295 772.333333333 217.833333333 801 159.5 c 128
 829.666666667 101.166666667 868 72 916 72 c 0
 975.333333333 72 1016.33333333 99.3333333333 1039 154 c 128
 1061.66666667 208.666666667 1073 295.333333333 1073 414 c 0
 1073 474.666666667 1060.66666667 534 1036 592 c 128
 1011.33333333 650 974 699.333333333 924 740 c 1
1530 789 m 1
 1455.33333333 829.666666667 1364 850 1256 850 c 0
 1169.33333333 850 1092 833.666666667 1024 801 c 1
 1092 755 1142.5 698.166666667 1175.5 630.5 c 128
 1208.5 562.833333333 1225 490.666666667 1225 414 c 0
 1225 272 1204.33333333 167.5 1163 100.5 c 128
 1121.66666667 33.5 1053 0 957 0 c 0
 863 0 794.333333333 33.8333333333 751 101.5 c 128
 707.666666667 169.166666667 686 265.666666667 686 391 c 0
 686 471.666666667 700.666666667 546.333333333 730 615 c 128
 759.333333333 683.666666667 800.666666667 741.666666667 854 789 c 1
 779.333333333 829.666666667 688 850 580 850 c 0
 512 850 448 839.833333333 388 819.5 c 128
 328 799.166666667 274.5 771.666666667 227.5 737 c 128
 180.5 702.333333333 144.166666667 666.5 118.5 629.5 c 128
 92.8333333333 592.5 78 556.666666667 74 522 c 1
 90 546 116.666666667 566 154 582 c 128
 191.333333333 598 231 606 273 606 c 0
 352.333333333 606 416.833333333 578.833333333 466.5 524.5 c 128
 516.166666667 470.166666667 541 400.666666667 541 316 c 0
 541 254.666666667 532.5 200.166666667 515.5 152.5 c 128
 498.5 104.833333333 470.833333333 67.5 432.5 40.5 c 128
 394.166666667 13.5 346.333333333 0 289 0 c 0
 235.666666667 0 187 17 143 51 c 128
 99 85 64.1666666667 134.166666667 38.5 198.5 c 128
 12.8333333333 262.833333333 0 338 0 424 c 0
 0 525.333333333 25.6666666667 613.833333333 77 689.5 c 128
 128.333333333 765.166666667 197.333333333 822.833333333 284 862.5 c 128
 370.666666667 902.166666667 463.666666667 922 563 922 c 0
 712.333333333 922 838 898 940 850 c 1
 1029.33333333 898 1129 922 1239 922 c 0
 1386.33333333 922 1512 897.333333333 1616 848 c 1
 1701.33333333 897.333333333 1801 922 1915 922 c 2
 2458 922 l 1
 2458 850 l 1
 2253 850 l 1
 2253 0 l 1
 2099 0 l 1
 2099 850 l 1
 1932 850 l 2
 1850 850 1772 833.666666667 1698 801 c 1
 1744 769.666666667 1782.16666667 733 1812.5 691 c 128
 1842.83333333 649 1865.16666667 604 1879.5 556 c 128
 1893.83333333 508 1901 460.666666667 1901 414 c 0
 1901 272 1880.33333333 167.5 1839 100.5 c 128
 1797.66666667 33.5 1729 0 1633 0 c 0
 1539.66666667 0 1471.16666667 34.1666666667 1427.5 102.5 c 128
 1383.83333333 170.833333333 1362 267 1362 391 c 0
 1362 471.666666667 1376.66666667 546.333333333 1406 615 c 128
 1435.33333333 683.666666667 1476.66666667 741.666666667 1530 789 c 1
EndSplineSet
EndChar

StartChar: u0BA3_u0BBE.old
Encoding: 95 -1 95
Width: 2878
Flags: HW
AnchorPoint: "V" 1275.5 932 basechar 0
AnchorPoint: "N" 1275.5 78.3351 basechar 0
LayerCount: 2
Fore
SplineSet
633 312 m 0
 633 344 625.333333333 375.166666667 610 405.5 c 128
 594.666666667 435.833333333 575 460.166666667 551 478.5 c 128
 527 496.833333333 501 506 473 506 c 0
 434.333333333 506 401.5 495.333333333 374.5 474 c 128
 347.5 452.666666667 328.666666667 425 318 391 c 1
 318 314.333333333 333.166666667 250.5 363.5 199.5 c 128
 393.833333333 148.5 436.666666667 123 492 123 c 0
 536 123 570.5 141.5 595.5 178.5 c 128
 620.5 215.5 633 260 633 312 c 0
1845 742 m 1
 1813.66666667 715.333333333 1785 683.166666667 1759 645.5 c 128
 1733 607.833333333 1713.33333333 568.333333333 1700 527 c 0
 1693.33333333 505.666666667 1688.33333333 484 1685 462 c 128
 1681.66666667 440 1680 416.333333333 1680 391 c 0
 1680 295 1694.16666667 217.833333333 1722.5 159.5 c 128
 1750.83333333 101.166666667 1789 72 1837 72 c 0
 1896.33333333 72 1937.5 99.8333333333 1960.5 155.5 c 128
 1983.5 211.166666667 1995 297.333333333 1995 414 c 0
 1995 474 1982.66666667 533 1958 591 c 0
 1944.66666667 621 1929.16666667 648 1911.5 672 c 128
 1893.83333333 696 1871.66666667 719.333333333 1845 742 c 1
1170 740 m 1
 1142.66666667 718.666666667 1119.33333333 695.666666667 1100 671 c 128
 1080.66666667 646.333333333 1063 618.333333333 1047 587 c 0
 1018.33333333 527.666666667 1004 462.333333333 1004 391 c 0
 1004 295 1018.16666667 217.833333333 1046.5 159.5 c 128
 1074.83333333 101.166666667 1113 72 1161 72 c 0
 1220.33333333 72 1261.5 99.8333333333 1284.5 155.5 c 128
 1307.5 211.166666667 1319 297.333333333 1319 414 c 0
 1319 474.666666667 1306.66666667 534 1282 592 c 128
 1257.33333333 650 1220 699.333333333 1170 740 c 1
1776 789 m 1
 1701.33333333 829.666666667 1609.66666667 850 1501 850 c 0
 1414.33333333 850 1337.33333333 833.666666667 1270 801 c 1
 1337.33333333 755.666666667 1387.66666667 698.833333333 1421 630.5 c 128
 1454.33333333 562.166666667 1471 490 1471 414 c 0
 1471 272 1450.33333333 167.5 1409 100.5 c 128
 1367.66666667 33.5 1298.66666667 0 1202 0 c 0
 1109.33333333 0 1041.16666667 34.1666666667 997.5 102.5 c 128
 953.833333333 170.833333333 932 267 932 391 c 0
 932 471.666666667 946.666666667 546.333333333 976 615 c 128
 1005.33333333 683.666666667 1046.66666667 741.666666667 1100 789 c 1
 1025.33333333 829.666666667 934 850 826 850 c 0
 757.333333333 850 693 839.833333333 633 819.5 c 128
 573 799.166666667 520 772 474 738 c 128
 428 704 391.833333333 668.166666667 365.5 630.5 c 128
 339.166666667 592.833333333 324 556.666666667 320 522 c 1
 336.666666667 546.666666667 363.333333333 567 400 583 c 0
 417.333333333 590.333333333 435.833333333 596 455.5 600 c 128
 475.166666667 604 496 606 518 606 c 0
 598 606 662.833333333 578.833333333 712.5 524.5 c 128
 762.166666667 470.166666667 787 400.666666667 787 316 c 0
 787 220.666666667 766.5 144.166666667 725.5 86.5 c 128
 684.5 28.8333333333 621 0 535 0 c 0
 481.666666667 0 433 17 389 51 c 128
 345 85 310.166666667 134.166666667 284.5 198.5 c 128
 258.833333333 262.833333333 246 338 246 424 c 0
 246 526 271.666666667 614.5 323 689.5 c 128
 374.333333333 764.5 443.333333333 822 530 862 c 128
 616.666666667 902 709.666666667 922 809 922 c 0
 958.333333333 922 1084 898 1186 850 c 1
 1275.33333333 898 1375 922 1485 922 c 0
 1631 922 1756 898 1860 850 c 1
 1943.33333333 898 2036.66666667 922 2140 922 c 0
 2250 922 2345.33333333 897.833333333 2426 849.5 c 128
 2506.66666667 801.166666667 2568 735.833333333 2610 653.5 c 128
 2652 571.166666667 2673 482.333333333 2673 387 c 0
 2673 253.666666667 2644.66666667 131.5 2588 20.5 c 128
 2531.33333333 -90.5 2447.5 -185.5 2336.5 -264.5 c 128
 2225.5 -343.5 2087.83333333 -404.5 1923.5 -447.5 c 128
 1759.16666667 -490.5 1571.33333333 -512 1360 -512 c 0
 1127.33333333 -512 909 -486.333333333 705 -435 c 128
 501 -383.666666667 332.5 -295.166666667 199.5 -169.5 c 128
 66.5 -43.8333333333 0 122 0 328 c 0
 0 456 19 572.333333333 57 677 c 128
 95 781.666666667 146.333333333 863.333333333 211 922 c 1
 256 881 l 1
 133.333333333 758.333333333 72 572 72 322 c 0
 72 178.666666667 111.333333333 56.6666666667 190 -44 c 128
 268.666666667 -144.666666667 371.833333333 -224 499.5 -282 c 128
 627.166666667 -340 764.166666667 -381 910.5 -405 c 128
 1056.83333333 -429 1204 -441 1352 -441 c 0
 1526.66666667 -441 1686.16666667 -420.333333333 1830.5 -379 c 128
 1974.83333333 -337.666666667 2098.5 -278.833333333 2201.5 -202.5 c 128
 2304.5 -126.166666667 2383.16666667 -36 2437.5 68 c 128
 2491.83333333 172 2519 286 2519 410 c 0
 2519 492.666666667 2503.5 567.166666667 2472.5 633.5 c 128
 2441.5 699.833333333 2397.5 752.5 2340.5 791.5 c 128
 2283.5 830.5 2219 850 2147 850 c 0
 2111 850 2076.66666667 846.333333333 2044 839 c 128
 2011.33333333 831.666666667 1977.33333333 819.666666667 1942 803 c 1
 2010.66666667 755.666666667 2062 697.666666667 2096 629 c 128
 2130 560.333333333 2147 488.666666667 2147 414 c 0
 2147 272 2126.33333333 167.5 2085 100.5 c 128
 2043.66666667 33.5 1974.66666667 0 1878 0 c 0
 1784.66666667 0 1716.33333333 33.6666666667 1673 101 c 128
 1629.66666667 168.333333333 1608 265 1608 391 c 0
 1608 473.666666667 1622.83333333 548.666666667 1652.5 616 c 128
 1682.16666667 683.333333333 1723.33333333 741 1776 789 c 1
EndSplineSet
EndChar

StartChar: u0BA3_u0BBF
Encoding: 96 -1 96
Width: 2888
Flags: HW
AnchorPoint: "V" 1275.5 932 basechar 0
AnchorPoint: "N" 1275.5 78.3351 basechar 0
LayerCount: 2
Fore
SplineSet
387 312 m 0
 387 344 379.833333333 374.833333333 365.5 404.5 c 128
 351.166666667 434.166666667 331.5 458.5 306.5 477.5 c 128
 281.5 496.5 255.333333333 506 228 506 c 0
 189.333333333 506 156.166666667 494.833333333 128.5 472.5 c 128
 100.833333333 450.166666667 82 423 72 391 c 1
 72 314.333333333 87.1666666667 250.5 117.5 199.5 c 128
 147.833333333 148.5 190.666666667 123 246 123 c 0
 290.666666667 123 325.333333333 141.666666667 350 179 c 128
 374.666666667 216.333333333 387 260.666666667 387 312 c 0
1600 740 m 1
 1572.66666667 718.666666667 1549.33333333 695.666666667 1530 671 c 128
 1510.66666667 646.333333333 1493 618.333333333 1477 587 c 0
 1448.33333333 527.666666667 1434 462.333333333 1434 391 c 0
 1434 295 1448.33333333 217.833333333 1477 159.5 c 128
 1505.66666667 101.166666667 1544 72 1592 72 c 0
 1631.33333333 72 1662.5 84.6666666667 1685.5 110 c 128
 1708.5 135.333333333 1724.83333333 173.666666667 1734.5 225 c 128
 1744.16666667 276.333333333 1749 339.333333333 1749 414 c 0
 1749 474.666666667 1736.66666667 534 1712 592 c 128
 1687.33333333 650 1650 699.333333333 1600 740 c 1
924 740 m 1
 813.333333333 652.666666667 758 536.333333333 758 391 c 0
 758 295 772.333333333 217.833333333 801 159.5 c 128
 829.666666667 101.166666667 868 72 916 72 c 0
 975.333333333 72 1016.33333333 99.3333333333 1039 154 c 128
 1061.66666667 208.666666667 1073 295.333333333 1073 414 c 0
 1073 474.666666667 1060.66666667 534 1036 592 c 128
 1011.33333333 650 974 699.333333333 924 740 c 1
1530 789 m 1
 1455.33333333 829.666666667 1364 850 1256 850 c 0
 1169.33333333 850 1092 833.666666667 1024 801 c 1
 1092 755 1142.5 698.166666667 1175.5 630.5 c 128
 1208.5 562.833333333 1225 490.666666667 1225 414 c 0
 1225 272 1204.33333333 167.5 1163 100.5 c 128
 1121.66666667 33.5 1053 0 957 0 c 0
 863 0 794.333333333 33.8333333333 751 101.5 c 128
 707.666666667 169.166666667 686 265.666666667 686 391 c 0
 686 471.666666667 700.666666667 546.333333333 730 615 c 128
 759.333333333 683.666666667 800.666666667 741.666666667 854 789 c 1
 779.333333333 829.666666667 688 850 580 850 c 0
 512 850 448 839.833333333 388 819.5 c 128
 328 799.166666667 274.5 771.666666667 227.5 737 c 128
 180.5 702.333333333 144.166666667 666.5 118.5 629.5 c 128
 92.8333333333 592.5 78 556.666666667 74 522 c 1
 90 546 116.666666667 566 154 582 c 128
 191.333333333 598 231 606 273 606 c 0
 352.333333333 606 416.833333333 578.833333333 466.5 524.5 c 128
 516.166666667 470.166666667 541 400.666666667 541 316 c 0
 541 254.666666667 532.5 200.166666667 515.5 152.5 c 128
 498.5 104.833333333 470.833333333 67.5 432.5 40.5 c 128
 394.166666667 13.5 346.333333333 0 289 0 c 0
 235.666666667 0 187 17 143 51 c 128
 99 85 64.1666666667 134.166666667 38.5 198.5 c 128
 12.8333333333 262.833333333 0 338 0 424 c 0
 0 525.333333333 25.6666666667 613.833333333 77 689.5 c 128
 128.333333333 765.166666667 197.333333333 822.833333333 284 862.5 c 128
 370.666666667 902.166666667 463.666666667 922 563 922 c 0
 712.333333333 922 838 898 940 850 c 1
 1029.33333333 898 1129 922 1239 922 c 0
 1386.33333333 922 1512 897.333333333 1616 848 c 1
 1701.33333333 897.333333333 1801 922 1915 922 c 2
 2169 922 l 1
 2136.33333333 984.666666667 2120 1045.33333333 2120 1104 c 0
 2120 1214.66666667 2144.5 1300.66666667 2193.5 1362 c 128
 2242.5 1423.33333333 2313 1454 2405 1454 c 0
 2441 1454 2472.33333333 1450.33333333 2499 1443 c 128
 2525.66666667 1435.66666667 2549.66666667 1423.66666667 2571 1407 c 0
 2612.33333333 1376.33333333 2641.33333333 1332 2658 1274 c 128
 2674.66666667 1216 2683 1143.66666667 2683 1057 c 2
 2683 0 l 1
 2622 0 l 1
 2622 1034 l 2
 2622 1128.66666667 2606.33333333 1198.5 2575 1243.5 c 128
 2543.66666667 1288.5 2486.33333333 1311 2403 1311 c 0
 2343 1311 2292.83333333 1290.83333333 2252.5 1250.5 c 128
 2212.16666667 1210.16666667 2192 1154.66666667 2192 1084 c 0
 2192 1052 2197.16666667 1020.5 2207.5 989.5 c 128
 2217.83333333 958.5 2229.66666667 936 2243 922 c 1
 2458 922 l 1
 2458 850 l 1
 2253 850 l 1
 2253 0 l 1
 2099 0 l 1
 2099 850 l 1
 1932 850 l 2
 1850 850 1772 833.666666667 1698 801 c 1
 1744 769.666666667 1782.16666667 733 1812.5 691 c 128
 1842.83333333 649 1865.16666667 604 1879.5 556 c 128
 1893.83333333 508 1901 460.666666667 1901 414 c 0
 1901 272 1880.33333333 167.5 1839 100.5 c 128
 1797.66666667 33.5 1729 0 1633 0 c 0
 1539.66666667 0 1471.16666667 34.1666666667 1427.5 102.5 c 128
 1383.83333333 170.833333333 1362 267 1362 391 c 0
 1362 471.666666667 1376.66666667 546.333333333 1406 615 c 128
 1435.33333333 683.666666667 1476.66666667 741.666666667 1530 789 c 1
EndSplineSet
EndChar

